<svg xmlns="http://www.w3.org/2000/svg" fill="none" viewBox="0 0 228 228">
  <rect width="228" height="228" fill="#2C3832" rx="40"/>
  <g clip-path="url(#icon_svg__a)">
    <path fill="#68C481" d="M150.17 177.688H89.49c-13.533 0-20.3 0-25.412-2.754a23 23 0 0 1-9.32-9.305C52 160.525 52 153.77 52 140.26V98.675a38.44 38.44 0 0 1 13-28.81c.28 5.594 4.904 9.984 10.513 9.984h64.997c13.533 0 20.299 0 25.412 2.754a23 23 0 0 1 9.319 9.305c2.023 3.743 2.563 8.374 2.707 15.905-.868-.01-1.843-.01-2.948-.01h-24c-11.598 0-21 9.387-21 20.966 0 11.578 9.402 20.965 21 20.965h24c1.128 0 2.119 0 3-.011v.18c0 4.481 0 6.721-.312 8.593-1.614 9.682-9.214 17.268-18.912 18.881-1.875.311-4.119.311-8.606.311"/>
    <path fill="#68C481" fill-rule="evenodd" d="M152 113.793c-8.284 0-15 6.705-15 14.976 0 8.27 6.716 14.975 15 14.975h22.5c2.323 0 3.485 0 4.451-.192a9.99 9.99 0 0 0 7.857-7.844c.192-.964.192-2.124.192-4.444v-4.991c0-2.32 0-3.48-.192-4.444a9.99 9.99 0 0 0-7.857-7.844c-.966-.192-2.128-.192-4.451-.192zm0 19.967c2.761 0 5-2.235 5-4.991a4.996 4.996 0 0 0-5-4.992c-2.761 0-5 2.235-5 4.992a4.996 4.996 0 0 0 5 4.991M87.284 60.88c-11.944.006-18.128.118-22.886 2.586a23 23 0 0 0-9.808 9.792C52 78.235 52 84.773 52 97.849v23.901c0 13.077 0 19.615 2.59 24.592a23 23 0 0 0 7.553 8.454C62 152.552 62 149.778 62 146.2V93.367c0-7.96 0-11.94 1.576-14.969a14 14 0 0 1 5.97-5.96c3.035-1.574 7.021-1.574 14.994-1.574h2.744zm52.159 9.984h16.017c6.385 0 10.214 0 13.044.808a23 23 0 0 0-8.902-8.206c-4.382-2.273-9.973-2.548-20.159-2.58z" clip-rule="evenodd"/>
    <mask id="icon_svg__b" width="77" height="61" x="75" y="14" maskUnits="userSpaceOnUse" style="mask-type:alpha">
      <path fill="#C4C4C4" d="M152 14.957H75v59.9h77z"/>
    </mask>
    <g mask="url(#icon_svg__b)">
      <path fill="#FFC700" fill-rule="evenodd" d="M113.25 97.32c20.131 0 36.45-16.292 36.45-36.39s-16.319-36.39-36.45-36.39c-20.13 0-36.45 16.293-36.45 36.39s16.32 36.39 36.45 36.39m4.3-62.636h-9.029v7.436h-8.894v41.015h8.894v9.014h9.029v-9.027c7.024-.28 12.595-4.955 12.595-11.998 0-4.16-1.995-7.324-5.047-9.258 2.23-1.933 3.58-4.629 3.58-8.027 0-6.47-4.84-10.891-11.128-11.614zm1.738 19.858c0-2.11-1.409-3.633-3.58-3.633h-6.691v7.266h6.691c2.113 0 3.58-1.524 3.58-3.633m-10.271 19.805h7.864c2.348 0 3.874-1.641 3.874-3.926s-1.526-3.926-3.874-3.926h-7.864z" clip-rule="evenodd"/>
    </g>
  </g>
  <defs>
    <clipPath id="icon_svg__a">
      <path fill="#fff" d="M52 23h135v154.688H52z"/>
    </clipPath>
  </defs>
</svg>
