<?xml version="1.0" standalone="no"?>
<!DOCTYPE svg PUBLIC "-//W3C//DTD SVG 1.1//EN" "http://www.w3.org/Graphics/SVG/1.1/DTD/svg11.dtd" >
<svg xmlns="http://www.w3.org/2000/svg">
<metadata>
This is a custom SVG webfont generated by Typotheque.
</metadata>
<defs>
<font id="typotheque_webfonts_service" horiz-adv-x="497" >
<font-face units-per-em="1000" ascent="710" descent="-290" />
<missing-glyph horiz-adv-x="180" />
<glyph horiz-adv-x="0" />
<glyph unicode=" "  horiz-adv-x="180" />
<glyph unicode="&#x09;" horiz-adv-x="180" />
<glyph unicode="&#xa0;" horiz-adv-x="180" />
<glyph unicode="C" horiz-adv-x="548" d="M373 -6q-59 0 -116.5 22t-103.5 66t-74.5 109.5t-28.5 152.5q0 82 28.5 147t75.5 110t107 69t123 24q51 0 90 -11t59 -25l-28 -56q-14 8 -49 19.5t-83 11.5q-38 0 -83 -17.5t-83.5 -53.5t-64 -90.5t-25.5 -127.5q0 -62 20 -115t54.5 -91.5t81.5 -60.5t100 -22 q44 0 81 9.5t53 17.5l26 -54q-22 -12 -60.5 -23t-99.5 -11z" />
<glyph unicode="D" horiz-adv-x="692" d="M90 688h230q95 0 157 -31t99 -79.5t51.5 -108t14.5 -115.5q0 -76 -25.5 -141t-70 -112t-106 -74t-133.5 -27h-217v688zM287 60q39 0 89 13t94 47t74 92t30 148q0 65 -16 110t-42 74.5t-58 46t-63 24.5t-58.5 10t-44.5 2h-138v-567h133z" />
<glyph unicode="E" d="M90 688h360v-61h-296v-243h274v-60h-274v-264h296v-60h-360v688z" />
<glyph unicode="F" horiz-adv-x="480" d="M90 688h360v-61h-296v-243h274v-60h-274v-324h-64v688z" />
<glyph unicode="G" horiz-adv-x="658" d="M377 -6q-72 0 -132.5 27.5t-103.5 75t-67 109.5t-24 131q0 72 26 136.5t72 113.5t108.5 78t135.5 29q43 0 74.5 -5.5t54 -13t36.5 -15.5t22 -12l-32 -51q-25 15 -63.5 25.5t-92.5 10.5q-62 0 -112 -24t-86 -65t-55.5 -94.5t-19.5 -111.5q0 -57 18 -108.5t51.5 -90.5 t82 -62t109.5 -23q48 0 90 13t65 33v182h-181v60h245v-269q-21 -19 -47.5 -34t-56 -25t-60 -15t-57.5 -5z" />
<glyph unicode="H" horiz-adv-x="690" d="M90 688h65v-300h381v300h64v-688h-64v327h-381v-327h-65v688z" />
<glyph unicode="I" horiz-adv-x="244" d="M90 688h64v-688h-64v688z" />
<glyph unicode="J" horiz-adv-x="244" d="M-82 -154q32 0 63 9.5t55 32t39 60.5t15 94v646h64v-660q0 -118 -63.5 -179t-172.5 -61v58z" />
<glyph unicode="K" horiz-adv-x="574" d="M166 367l320 328l53 -36l-285 -288l300 -338l-54 -39zM90 688h65v-688h-65v688z" />
<glyph unicode="L" horiz-adv-x="468" d="M90 688h64v-627h304v-61h-368v688z" />
<glyph unicode="M" horiz-adv-x="872" d="M80 -2l40 690h80l234 -568l258 568h70l30 -690l-64 -4l-25 583l-235 -527l-70 -1l-221 531l-32 -586z" />
<glyph unicode="N" horiz-adv-x="741" d="M90 688h78l418 -601v601h65v-688h-81l-415 598v-598h-65v688z" />
<glyph unicode="O" horiz-adv-x="770" d="M386 -6q-75 0 -136.5 26t-106 72.5t-69 110.5t-24.5 141q0 73 23.5 137t67.5 111t106.5 74.5t139.5 27.5q74 0 135 -28t105 -75.5t68.5 -111t24.5 -134.5q0 -78 -25 -143t-69.5 -111t-105.5 -71.5t-134 -25.5zM383 55q63 0 113.5 23t86 63t54 92t18.5 111q0 58 -18 110.5 t-52.5 92.5t-84.5 63t-114 23t-114 -23t-84.5 -63t-53 -92.5t-18.5 -110.5q0 -54 18 -106t52 -92.5t83.5 -65.5t113.5 -25z" />
<glyph unicode="P" horiz-adv-x="499" d="M90 688h173q33 0 67.5 -7.5t63 -27.5t47 -54.5t18.5 -87.5q0 -40 -14.5 -78t-43.5 -68t-72 -48.5t-100 -18.5h-75v-298h-64v688zM215 358q54 0 88 14.5t54 37t27.5 50t7.5 52.5q0 34 -11.5 56.5t-31.5 35.5t-46.5 18t-57.5 5h-91v-269h61z" />
<glyph unicode="Q" horiz-adv-x="770" d="M474 -1q-23 -2 -41 -3q-16 -1 -30.5 -1.5t-16.5 -0.5q-75 0 -136.5 26t-106 72.5t-69 110.5t-24.5 141q0 73 23.5 137t67.5 111t106.5 74.5t139.5 27.5q74 0 135 -28t105 -75.5t68.5 -111t24.5 -134.5q0 -96 -38.5 -174t-107.5 -120l179 2v-59zM383 55q63 0 113.5 23 t86 63t54 92t18.5 111q0 58 -18 110.5t-52.5 92.5t-84.5 63t-114 23t-114 -23t-84.5 -63t-53 -92.5t-18.5 -110.5q0 -54 18 -106t52 -92.5t83.5 -65.5t113.5 -25z" />
<glyph unicode="R" horiz-adv-x="512" d="M221 312h-66v-312h-65v688h168q9 0 27 -0.5t40.5 -4.5t45.5 -14t42.5 -29t31.5 -48.5t12 -73.5q0 -42 -14.5 -76t-38 -59t-53.5 -41t-61 -23l202 -299l-61 -29zM211 373q59 0 94.5 15t54 37t24 47.5t5.5 46.5q0 37 -14 59t-36 33t-48.5 14t-51.5 3h-84v-255h56z" />
<glyph unicode="S" horiz-adv-x="473" d="M226 -6q-17 0 -37.5 2t-43.5 8.5t-47 20.5t-48 38l40 46q16 -16 34.5 -26.5t36 -17t33.5 -9t27 -2.5q28 0 53 9t43.5 25t29.5 38.5t11 49.5q0 37 -13 62t-34 42.5t-48.5 30.5l-55.5 26q-33 16 -60 32t-46 37.5t-29.5 51t-10.5 71.5q0 35 15 65t40.5 52.5t59 35t69.5 12.5 q21 0 39.5 -1.5t37.5 -7t41 -15.5t49 -28l-36 -51q-26 17 -44 25.5t-32.5 12.5t-27.5 4h-29q-15 0 -35 -6t-38 -18.5t-31 -33.5t-13 -51t9.5 -50.5t25 -35.5t36.5 -26l44 -22l70 -33.5t58 -39.5t39.5 -55.5t14.5 -81.5q0 -39 -15.5 -73t-42 -59t-62.5 -39.5t-77 -14.5z" />
<glyph unicode="T" d="M218 627h-223v61h507v-61h-219v-627h-65v627z" />
<glyph unicode="U" horiz-adv-x="660" d="M332 -7q-57 0 -104 16t-81 45t-53 71t-19 94v469h65v-459q0 -41 14.5 -73t40.5 -54.5t61.5 -34.5t78.5 -12q39 0 73 9.5t59 31.5t39 56.5t14 84.5v451h65v-467q0 -56 -20.5 -98.5t-55 -71.5t-80.5 -43.5t-97 -14.5z" />
<glyph unicode="V" horiz-adv-x="618" d="M20 674l63 20l226 -580l231 582l58 -20l-266 -676h-50z" />
<glyph unicode="W" horiz-adv-x="889" d="M20 676l64 17l174 -561l165 556h45l171 -562l171 568l59 -16l-209 -678h-46l-170 562l-165 -562h-46z" />
<glyph unicode="X" horiz-adv-x="557" d="M20 23l220 321l-219 319l56 31l202 -294l202 294l51 -31l-217 -316l222 -322l-57 -31l-203 296l-204 -296z" />
<glyph unicode="Y" horiz-adv-x="520" d="M228 328l-228 334l53 31l208 -300l207 300l52 -33l-228 -332v-328h-64v328z" />
<glyph unicode="Z" horiz-adv-x="566" d="M35 51l407 571h-395v60h460l24 -45l-411 -577h404v-60h-463z" />
<glyph unicode="&#xc0;" horiz-adv-x="618" d="M187 825l42 50l142 -125l-28 -35zM20 12l269 676h46l263 -674l-63 -20l-90 232h-274l-93 -234zM421 286l-113 290l-113 -290h226z" />
<glyph unicode="&#xc6;" horiz-adv-x="828" d="M0 12l421 676h360v-61h-296v-243h274v-60h-274v-264h295v-60h-359v226h-219l-146 -234zM421 286v290l-182 -290h182z" />
<glyph unicode="&#xc7;" horiz-adv-x="548" d="M312 -184q33 15 44 28t11 31q0 17 -11.5 34.5t-25.5 31.5l22 54q-56 3 -110.5 27t-97 68t-68.5 107.5t-26 146.5q0 82 28.5 147t75.5 110t107 69t123 24q51 0 90 -11t59 -25l-28 -56q-14 8 -49 19.5t-83 11.5q-38 0 -83 -17.5t-83.5 -53.5t-64 -90.5t-25.5 -127.5 q0 -62 20 -115t54.5 -91.5t81.5 -60.5t100 -22q44 0 81 9.5t53 17.5l26 -54q-19 -11 -49.5 -20.5t-77.5 -12.5l-17 -40q17 -16 27.5 -37t10.5 -45q0 -36 -27.5 -61.5t-64.5 -37.5z" />
<glyph unicode="&#xc9;" d="M90 688h360v-61h-296v-243h274v-60h-274v-264h296v-60h-360v688zM195 750l142 125l42 -50l-156 -110z" />
<glyph unicode="&#xca;" d="M90 688h360v-61h-296v-243h274v-60h-274v-264h296v-60h-360v688zM135 758l136 105l136 -105l-36 -42l-100 83l-100 -83z" />
<glyph unicode="&#xcb;" d="M189 735q-19 0 -32 13t-13 32t13 32t32 13t32 -13t13 -32t-13 -32t-32 -13zM346 735q-19 0 -32.5 13t-13.5 32t13.5 32t32.5 13t32 -13t13 -32t-13 -32t-32 -13zM90 688h360v-61h-296v-243h274v-60h-274v-264h296v-60h-360v688z" />
<glyph unicode="&#xc8;" d="M90 688h360v-61h-296v-243h274v-60h-274v-264h296v-60h-360v688zM153 825l42 50l142 -125l-28 -35z" />
<glyph unicode="&#xcf;" horiz-adv-x="244" d="M43 735q-19 0 -32 13t-13 32t13 32t32 13t32 -13t13 -32t-13 -32t-32 -13zM200 735q-19 0 -32.5 13t-13.5 32t13.5 32t32.5 13t32 -13t13 -32t-13 -32t-32 -13zM90 688h64v-688h-64v688z" />
<glyph unicode="&#xd1;" horiz-adv-x="741" d="M90 688h78l418 -601v601h65v-688h-81l-415 598v-598h-65v688zM522 805q-4 -11 -11.5 -23.5t-18.5 -23.5t-25.5 -18.5t-32.5 -7.5q-15 0 -30.5 7t-29.5 15.5t-27.5 15.5t-24.5 7q-21 0 -33.5 -11.5t-22.5 -33.5l-38 21q11 30 36 51.5t56 21.5q12 0 27 -7t30 -15l28.5 -15 t23.5 -7q21 0 32 12t22 31z" />
<glyph unicode="&#xd6;" horiz-adv-x="770" d="M310 735q-19 0 -32 13t-13 32t13 32t32 13t32 -13t13 -32t-13 -32t-32 -13zM467 735q-19 0 -32.5 13t-13.5 32t13.5 32t32.5 13t32 -13t13 -32t-13 -32t-32 -13zM386 -6q-75 0 -136.5 26t-106 72.5t-69 110.5t-24.5 141q0 73 23.5 137t67.5 111t106.5 74.5t139.5 27.5 q74 0 135 -28t105 -75.5t68.5 -111t24.5 -134.5q0 -78 -25 -143t-69.5 -111t-105.5 -71.5t-134 -25.5zM383 55q63 0 113.5 23t86 63t54 92t18.5 111q0 58 -18 110.5t-52.5 92.5t-84.5 63t-114 23t-114 -23t-84.5 -63t-53 -92.5t-18.5 -110.5q0 -54 18 -106t52 -92.5 t83.5 -65.5t113.5 -25z" />
<glyph unicode="&#xd4;" horiz-adv-x="770" d="M251 758l136 105l136 -105l-36 -42l-100 83l-100 -83zM386 -6q-75 0 -136.5 26t-106 72.5t-69 110.5t-24.5 141q0 73 23.5 137t67.5 111t106.5 74.5t139.5 27.5q74 0 135 -28t105 -75.5t68.5 -111t24.5 -134.5q0 -78 -25 -143t-69.5 -111t-105.5 -71.5t-134 -25.5z M383 55q63 0 113.5 23t86 63t54 92t18.5 111q0 58 -18 110.5t-52.5 92.5t-84.5 63t-114 23t-114 -23t-84.5 -63t-53 -92.5t-18.5 -110.5q0 -54 18 -106t52 -92.5t83.5 -65.5t113.5 -25z" />
<glyph unicode="&#x152;" horiz-adv-x="847" d="M386 -6q-75 0 -136.5 26t-106 72.5t-69 110.5t-24.5 141q0 73 23.5 137t67.5 111t106.5 74.5t139.5 27.5q34 0 64 -6h349v-61h-296v-243h274v-60h-274v-264h296v-60h-346q-33 -6 -68 -6zM383 55q15 0 29 1.5t28 3.5v568q-28 5 -54 5q-64 0 -114 -23t-84.5 -63t-53 -92.5 t-18.5 -110.5q0 -54 18 -106t52 -92.5t83.5 -65.5t113.5 -25z" />
<glyph unicode="a" horiz-adv-x="439" d="M301 50l-24 -16.5t-32 -18.5t-39 -15t-44 -6q-30 0 -52 9t-37 24.5t-22.5 36.5t-7.5 44q0 37 15 62t42.5 43t65.5 31.5t84 25.5l44 12v44q0 46 -22.5 65.5t-62.5 19.5q-19 0 -38 -7.5t-34.5 -16.5t-26 -17.5t-12.5 -10.5l-35 43q7 5 19.5 16t30.5 21.5t42 18.5t54 8 t56 -7t46 -23t31.5 -40.5t11.5 -58.5v-255l55 -49l-41 -45zM257 221q-1 0 -2 -1q-29 -8 -56.5 -18t-48.5 -22.5t-33.5 -29t-12.5 -37.5q0 -38 20 -53t47 -15q13 0 29 5t32.5 13.5t32 18.5t29.5 20v129l-38 -11zM256 220h-1h1z" />
<glyph unicode="b" horiz-adv-x="516" d="M277 -6q-25 0 -46.5 7t-39 16.5t-30.5 20l-21 17.5v-55h-60v721h60v-316q6 4 19.5 14t32.5 20.5t43 18.5t51 8q52 0 88.5 -21.5t59 -55t32.5 -75.5t10 -83q0 -40 -12 -82t-36.5 -76.5t-62 -56.5t-88.5 -22zM275 50q29 0 55 12.5t45 36t30 56.5t11 75q0 81 -35 130t-98 49 q-28 0 -51.5 -8.5t-41.5 -20t-31 -23t-19 -17.5v-220l22 -20t29.5 -23t37.5 -19t46 -8z" />
<glyph unicode="c" horiz-adv-x="414" d="M258 -6q-50 0 -89.5 19t-67 51.5t-42 75.5t-14.5 90q0 57 18.5 101t48.5 74t69 45.5t80 15.5q43 0 77 -12t57 -28q-9 -14 -15 -25l-14 -26q-19 14 -46.5 24t-55.5 10q-34 0 -62.5 -13t-49.5 -36.5t-33 -57.5t-12 -76q0 -44 13 -77t34 -55t49 -33t58 -11q37 0 66.5 13 t46.5 25l30 -51q-9 -6 -23 -13t-32.5 -14t-41 -11.5t-49.5 -4.5z" />
<glyph unicode="d" horiz-adv-x="516" d="M239 -6q-51 0 -88.5 22t-62 56.5t-36.5 76.5t-12 82q0 41 10.5 83t33 75.5t58.5 55t88 21.5q27 0 51 -8t43.5 -18.5t33 -20.5t19.5 -14v316h59v-721h-59v55l-24 -17.5t-32 -20t-38.5 -16.5t-43.5 -7zM241 50q24 0 45 8t38 19.5t30.5 23l22.5 19.5v220l-19.5 17.5 t-30.5 23t-42 20t-52 8.5q-63 0 -97.5 -49t-34.5 -130q0 -42 11 -75t30 -56.5t44.5 -36t54.5 -12.5z" />
<glyph unicode="e" horiz-adv-x="442" d="M253 -6q-51 0 -90.5 18.5t-66.5 50t-40.5 73.5t-13.5 89q0 49 13 92.5t38.5 76.5t63.5 52.5t89 19.5q46 0 78 -16t52 -43t29 -63.5t9 -78.5v-36h-310q0 -35 9 -67.5t28 -57t48 -39t68 -14.5q36 0 66.5 11.5t47.5 23.5l14 -26q6 -11 15 -26q-19 -11 -56 -25.5t-91 -14.5z M351 283q0 24 -6.5 47t-19.5 40.5t-33 28t-47 10.5q-32 0 -55.5 -12.5t-40 -31t-26.5 -41t-13 -41.5h241z" />
<glyph unicode="f" horiz-adv-x="281" d="M111 404h-80v56h80v144q0 54 31.5 89t86.5 35q21 0 38 -3.5t29 -7.5q14 -4 25 -10l-24 -52q-8 4 -18 8q-8 3 -20.5 6t-26.5 3q-8 0 -18.5 -3t-20 -11t-16.5 -22.5t-7 -37.5v-138h111v-55h-110v-405h-60v404z" />
<glyph unicode="g" horiz-adv-x="457" d="M214 -239q-43 0 -79 14t-61.5 37t-39.5 52.5t-14 60.5q0 45 21 76.5t49 50.5t55.5 27.5t40.5 8.5v67q-28 5 -52.5 19t-42.5 34t-28.5 46t-10.5 55q0 33 13 61.5t35 49.5t51.5 33.5t61.5 12.5q23 0 45 -7t41 -19l148 25v-60h-107q16 -20 25 -44.5t9 -51.5q0 -30 -10.5 -56 t-29 -46.5t-43.5 -34t-53 -17.5v-67q15 0 44 -8.5t57.5 -27.5t50 -50t21.5 -77q0 -33 -15 -62.5t-41.5 -52t-62.5 -36t-78 -13.5zM214 -189q27 0 51.5 9t43 25t29.5 36.5t11 44.5t-11 45t-29 37t-42.5 25t-51.5 9t-51 -9t-42.5 -25t-29.5 -37t-11 -45t11 -44.5t29 -36.5 t42 -25t51 -9zM213 206q21 0 39.5 8t32 22t21.5 33t8 40t-8 40t-21.5 33.5t-32 22.5t-39.5 8t-39.5 -8t-32.5 -22.5t-22 -33.5t-8 -40t8 -40t22 -33t32.5 -22t39.5 -8z" />
<glyph unicode="h" d="M80 721h60v-324q14 13 33 25.5t40.5 22t43.5 15.5t42 6q28 0 51.5 -8.5t40.5 -24t26.5 -36t9.5 -44.5v-353h-59v325q0 47 -24 64.5t-56 17.5q-26 0 -51 -11.5t-45.5 -26t-34.5 -28l-17 -16.5v-325h-60v721z" />
<glyph unicode="i" horiz-adv-x="250" d="M125 563q-19 0 -32 13.5t-13 32.5t13 32t32 13t32 -13t13 -32t-13 -32.5t-32 -13.5zM94 460h61v-460h-61v460z" />
<glyph unicode="j" horiz-adv-x="250" d="M124 563q-19 0 -32 13.5t-13 32.5t13 32t32 13t32.5 -13t13.5 -32t-13.5 -32.5t-32.5 -13.5zM-12 -188q56 38 81 89t25 118v441h60v-456q0 -75 -34.5 -134t-97.5 -100z" />
<glyph unicode="k" horiz-adv-x="445" d="M145 260l226 206l44 -38l-196 -170l209 -232l-51 -33zM80 721h60v-721h-60v721z" />
<glyph unicode="l" horiz-adv-x="220" d="M80 721h60v-721h-60v721z" />
<glyph unicode="m" horiz-adv-x="754" d="M80 460h60v-63q42 38 84.5 53.5t69.5 15.5q49 0 76 -21t37 -50l21.5 18t34.5 23.5t45.5 20t55.5 8.5q32 0 55 -9.5t37.5 -25t21 -35t6.5 -38.5v-357h-60v344q0 19 -6.5 31.5t-16.5 20t-21.5 10t-20.5 2.5q-23 0 -46.5 -9.5t-43.5 -22.5t-34.5 -26.5t-20.5 -20.5v-329h-61 v344q0 19 -6.5 31.5t-16.5 20t-21 10t-20 2.5q-26 0 -51.5 -11t-46.5 -25t-35 -27t-16 -17v-328h-60v460z" />
<glyph unicode="n" d="M80 460h60v-64q13 12 30.5 24.5t37.5 22.5t41 16.5t42 6.5q36 0 62 -10t42.5 -26.5t24 -38t7.5 -44.5v-347h-60v325q0 46 -23.5 65t-55.5 19q-26 0 -51.5 -11t-46 -25t-34.5 -27t-16 -17v-329h-60v460z" />
<glyph unicode="o" horiz-adv-x="505" d="M255 -6q-59 0 -100.5 22t-68 56.5t-39 76t-12.5 80.5q0 37 13 79t39.5 77t68 58t98.5 23t98 -23t67.5 -57.5t38.5 -76.5t12 -79q0 -38 -12 -79.5t-38.5 -76t-67 -57.5t-97.5 -23zM253 50q23 0 50 9.5t50 30.5t38.5 55.5t15.5 84.5q0 48 -14.5 82t-37 55.5t-49.5 31.5 t-51 10q-23 0 -50.5 -9.5t-51 -30.5t-39.5 -55.5t-16 -84.5q0 -48 15 -82t38 -55.5t50.5 -31.5t51.5 -10z" />
<glyph unicode="p" horiz-adv-x="516" d="M80 460h60v-55q6 4 19.5 14t32.5 20.5t43 18.5t51 8q52 0 88.5 -21.5t59 -55t32.5 -75.5t10 -83q0 -40 -12 -82t-36.5 -76.5t-62 -56.5t-88.5 -22q-24 0 -46 7t-39.5 16t-31 18.5t-20.5 15.5v-290h-60v699zM275 50q29 0 55 12.5t45 36t30 56.5t11 75q0 81 -35 130t-98 49 q-28 0 -51.5 -8.5t-41.5 -20t-31 -23t-19 -17.5v-225q8 -8 21.5 -19t31 -21t38.5 -17.5t44 -7.5z" />
<glyph unicode="q" horiz-adv-x="516" d="M377 55l-24 -17.5t-32 -20t-38.5 -16.5t-43.5 -7q-51 0 -88.5 22t-62 56.5t-36.5 76.5t-12 82q0 41 10.5 83t33 75.5t58.5 55t88 21.5q27 0 51 -8t43.5 -18.5t33 -20.5t19.5 -14v55h59v-699h-59v294zM241 50q24 0 45 8t38 19.5t30.5 23l22.5 19.5v220l-19.5 17.5 t-30.5 23t-42 20t-52 8.5q-63 0 -97.5 -49t-34.5 -130q0 -42 11 -75t30 -56.5t44.5 -36t54.5 -12.5z" />
<glyph unicode="r" horiz-adv-x="332" d="M81 460h60v-65q4 5 15.5 16.5t27.5 23.5t35.5 21.5t39.5 9.5q32 0 47 -5.5t27 -10.5l-25 -59q-14 7 -26.5 10.5t-31.5 3.5q-15 0 -31 -7.5t-31 -18.5t-27.5 -25t-19.5 -26v-328h-60v460z" />
<glyph unicode="s" horiz-adv-x="350" d="M168 -6q-41 0 -70.5 9t-52.5 25l29 51q19 -14 41.5 -21.5t50.5 -7.5q33 0 56.5 19t23.5 52q0 18 -7.5 32.5t-21 26t-32 21.5l-39.5 21q-47 24 -72.5 51.5t-25.5 77.5q0 28 12.5 50t32 36t42.5 21.5t45 7.5q38 0 66.5 -9.5t47.5 -23.5l-28 -49q-13 10 -37 17.5t-48 7.5 q-29 0 -50.5 -15t-21.5 -42q0 -18 5.5 -29.5t15.5 -20.5t23 -16l27 -15l42.5 -23t41.5 -29t31.5 -40.5t12.5 -57.5q0 -32 -13 -55.5t-33 -39.5t-45 -24t-49 -8z" />
<glyph unicode="t" horiz-adv-x="311" d="M210 -6q-55 0 -80 29.5t-25 90.5v290h-80v56h79v86h60v-86h121v-56h-120v-280q0 -26 4.5 -40.5t12 -22t15.5 -9.5t16 -2q14 0 26.5 2.5t20.5 6.5q10 4 18 9l23 -50q-10 -7 -24 -12q-12 -5 -29 -8.5t-38 -3.5z" />
<glyph unicode="u" horiz-adv-x="492" d="M207 -6q-37 0 -63 10t-42.5 26.5t-24 38t-7.5 44.5v347h60v-325q0 -47 23.5 -65.5t56.5 -18.5q25 0 49 10.5t43.5 24.5t33 26.5t16.5 17.5v330h60v-460h-60v65l-30.5 -25t-35 -23t-38.5 -16.5t-41 -6.5z" />
<glyph unicode="v" horiz-adv-x="430" d="M15 445l55 21l147 -387l146 386l52 -20l-169 -445h-63z" />
<glyph unicode="w" horiz-adv-x="711" d="M15 446l55 19l129 -382l126 377h62l125 -377l130 382l54 -17l-153 -448h-62l-125 370l-127 -370h-61z" />
<glyph unicode="x" horiz-adv-x="440" d="M374 -6l-157 201l-153 -201l-49 29l169 214l-159 203l54 25l146 -185l140 186l53 -26l-160 -204l167 -214z" />
<glyph unicode="y" horiz-adv-x="451" d="M37 -238h-11t-11 1v53q5 -1 9 -1h9q38 0 69 21t45 56l54 132l-184 419l56 23l159 -366l150 366l54 -20l-230 -563q-23 -56 -66.5 -88.5t-102.5 -32.5z" />
<glyph unicode="z" horiz-adv-x="396" d="M25 42l256 363h-241v55h302l17 -45l-254 -359h240v-56h-296z" />
<glyph unicode="&#xe0;" horiz-adv-x="439" d="M301 50l-24 -16.5t-32 -18.5t-39 -15t-44 -6q-30 0 -52 9t-37 24.5t-22.5 36.5t-7.5 44q0 37 15 62t42.5 43t65.5 31.5t84 25.5l44 12v44q0 46 -22.5 65.5t-62.5 19.5q-19 0 -38 -7.5t-34.5 -16.5t-26 -17.5t-12.5 -10.5l-35 43q7 5 19.5 16t30.5 21.5t42 18.5t54 8 t56 -7t46 -23t31.5 -40.5t11.5 -58.5v-255l55 -49l-41 -45zM255 220q-29 -8 -56.5 -18t-48.5 -22.5t-33.5 -29t-12.5 -37.5q0 -38 20 -53t47 -15q13 0 29 5t32.5 13.5t32 18.5t29.5 20v129l-37 -10q-1 0 -1 -1v1zM110 647l45 47l132 -138l-32 -32z" />
<glyph unicode="&#xe6;" horiz-adv-x="685" d="M154 -6q-30 0 -52 9t-37 24.5t-22.5 36.5t-7.5 44q0 37 15 62t42.5 43t65.5 31.5t84 25.5l44 12v44q0 46 -22.5 64.5t-62.5 18.5q-19 0 -38 -7t-34.5 -16t-26 -17t-12.5 -10l-35 43q7 5 19.5 16t30.5 21.5t42 18.5t54 8q45 0 81 -16.5t53 -54.5q26 32 63.5 51.5 t88.5 19.5q46 0 78 -16t52 -43t29 -63.5t9 -78.5v-36h-309q0 -36 9 -68.5t27.5 -57.5t47 -40t67.5 -15q37 0 67 13t48 25l14 -26q6 -11 15 -26q-19 -11 -56 -25.5t-91 -14.5q-60 0 -101 23t-68 61l-33 -27.5t-39 -27t-46 -21t-53 -8.5zM249 221q-1 0 -2 -1q-29 -8 -56.5 -18 t-48.5 -22.5t-33.5 -29t-12.5 -37.5q0 -38 20 -51.5t47 -13.5q13 0 29 5t32.5 12.5t32 17t29.5 19.5v129l-38 -11zM592 283q0 24 -6.5 47t-19.5 40.5t-33 28t-47 10.5q-32 0 -55.5 -12.5t-40 -31t-26.5 -41t-13 -41.5h241zM248 220h-1h1z" />
<glyph unicode="&#xe7;" horiz-adv-x="414" d="M182 -184q33 15 44 28t11 31q0 17 -11.5 34.5t-25.5 31.5l23 56q-42 6 -75 27t-56 52.5t-35 71t-12 82.5q0 57 18.5 101t48.5 74t69 45.5t80 15.5q43 0 77 -12t57 -28q-9 -14 -15 -25l-14 -26q-19 14 -46.5 24t-55.5 10q-34 0 -62.5 -13t-49.5 -36.5t-33 -57.5t-12 -76 q0 -44 13 -77t34 -55t49 -33t58 -11q37 0 66.5 13t46.5 25l30 -51q-17 -11 -49.5 -25t-79.5 -17l-16 -40q17 -16 27.5 -37t10.5 -45q0 -36 -27.5 -61.5t-64.5 -37.5z" />
<glyph unicode="&#xe9;" horiz-adv-x="442" d="M166 556l131 138l46 -47l-145 -123zM253 -6q-51 0 -90.5 18.5t-66.5 50t-40.5 73.5t-13.5 89q0 49 13 92.5t38.5 76.5t63.5 52.5t89 19.5q46 0 78 -16t52 -43t29 -63.5t9 -78.5v-36h-310q0 -35 9 -67.5t28 -57t48 -39t68 -14.5q36 0 66.5 11.5t47.5 23.5l14 -26 q6 -11 15 -26q-19 -11 -56 -25.5t-91 -14.5zM351 283q0 24 -6.5 47t-19.5 40.5t-33 28t-47 10.5q-32 0 -55.5 -12.5t-40 -31t-26.5 -41t-13 -41.5h241z" />
<glyph unicode="&#xe8;" horiz-adv-x="442" d="M117 647l45 47l132 -138l-32 -32zM253 -6q-51 0 -90.5 18.5t-66.5 50t-40.5 73.5t-13.5 89q0 49 13 92.5t38.5 76.5t63.5 52.5t89 19.5q46 0 78 -16t52 -43t29 -63.5t9 -78.5v-36h-310q0 -35 9 -67.5t28 -57t48 -39t68 -14.5q36 0 66.5 11.5t47.5 23.5l14 -26 q6 -11 15 -26q-19 -11 -56 -25.5t-91 -14.5zM351 283q0 24 -6.5 47t-19.5 40.5t-33 28t-47 10.5q-32 0 -55.5 -12.5t-40 -31t-26.5 -41t-13 -41.5h241z" />
<glyph unicode="&#xea;" horiz-adv-x="442" d="M109 579l136 105l136 -105l-36 -43l-100 84l-100 -84zM253 -6q-51 0 -90.5 18.5t-66.5 50t-40.5 73.5t-13.5 89q0 49 13 92.5t38.5 76.5t63.5 52.5t89 19.5q46 0 78 -16t52 -43t29 -63.5t9 -78.5v-36h-310q0 -35 9 -67.5t28 -57t48 -39t68 -14.5q36 0 66.5 11.5 t47.5 23.5l14 -26q6 -11 15 -26q-19 -11 -56 -25.5t-91 -14.5zM351 283q0 24 -6.5 47t-19.5 40.5t-33 28t-47 10.5q-32 0 -55.5 -12.5t-40 -31t-26.5 -41t-13 -41.5h241z" />
<glyph unicode="&#xeb;" horiz-adv-x="442" d="M167 565q-19 0 -32 13t-13 32t13 32t32 13t32 -13t13 -32t-13 -32t-32 -13zM324 565q-19 0 -32.5 13t-13.5 32t13.5 32t32.5 13t32 -13t13 -32t-13 -32t-32 -13zM253 -6q-51 0 -90.5 18.5t-66.5 50t-40.5 73.5t-13.5 89q0 49 13 92.5t38.5 76.5t63.5 52.5t89 19.5 q46 0 78 -16t52 -43t29 -63.5t9 -78.5v-36h-310q0 -35 9 -67.5t28 -57t48 -39t68 -14.5q36 0 66.5 11.5t47.5 23.5l14 -26q6 -11 15 -26q-19 -11 -56 -25.5t-91 -14.5zM351 283q0 24 -6.5 47t-19.5 40.5t-33 28t-47 10.5q-32 0 -55.5 -12.5t-40 -31t-26.5 -41t-13 -41.5h241 z" />
<glyph unicode="&#xef;" horiz-adv-x="250" d="M95 460h60v-460h-60v460zM47 565q-19 0 -32 13t-13 32t13 32t32 13t32 -13t13 -32t-13 -32t-32 -13zM204 565q-19 0 -32.5 13t-13.5 32t13.5 32t32.5 13t32 -13t13 -32t-13 -32t-32 -13z" />
<glyph unicode="&#xf1;" d="M403 634q-4 -11 -12.5 -23.5t-20.5 -23.5t-27 -18.5t-33 -7.5q-15 0 -29.5 7t-28 15.5t-26 15.5t-23.5 7q-21 0 -33.5 -11.5t-22.5 -33.5l-38 21q10 29 35 52t56 23q16 0 30.5 -7t27.5 -16t26 -16t26 -7q21 0 32 12t22 31zM80 460h60v-64q13 12 30.5 24.5t37.5 22.5 t41 16.5t42 6.5q36 0 62 -10t42.5 -26.5t24 -38t7.5 -44.5v-347h-60v325q0 46 -23.5 65t-55.5 19q-26 0 -51.5 -11t-46 -25t-34.5 -27t-16 -17v-329h-60v460z" />
<glyph unicode="&#xf4;" horiz-adv-x="505" d="M119 579l136 105l136 -105l-36 -43l-100 84l-100 -84zM255 -6q-59 0 -100.5 22t-68 56.5t-39 76t-12.5 80.5q0 37 13 79t39.5 77t68 58t98.5 23t98 -23t67.5 -57.5t38.5 -76.5t12 -79q0 -38 -12 -79.5t-38.5 -76t-67 -57.5t-97.5 -23zM253 50q23 0 50 9.5t50 30.5 t38.5 55.5t15.5 84.5q0 48 -14.5 82t-37 55.5t-49.5 31.5t-51 10q-23 0 -50.5 -9.5t-51 -30.5t-39.5 -55.5t-16 -84.5q0 -48 15 -82t38 -55.5t50.5 -31.5t51.5 -10z" />
<glyph unicode="&#xf6;" horiz-adv-x="505" d="M176 565q-19 0 -32 13t-13 32t13 32t32 13t32 -13t13 -32t-13 -32t-32 -13zM333 565q-19 0 -32.5 13t-13.5 32t13.5 32t32.5 13t32 -13t13 -32t-13 -32t-32 -13zM255 -6q-59 0 -100.5 22t-68 56.5t-39 76t-12.5 80.5q0 37 13 79t39.5 77t68 58t98.5 23t98 -23t67.5 -57.5 t38.5 -76.5t12 -79q0 -38 -12 -79.5t-38.5 -76t-67 -57.5t-97.5 -23zM253 50q23 0 50 9.5t50 30.5t38.5 55.5t15.5 84.5q0 48 -14.5 82t-37 55.5t-49.5 31.5t-51 10q-23 0 -50.5 -9.5t-51 -30.5t-39.5 -55.5t-16 -84.5q0 -48 15 -82t38 -55.5t50.5 -31.5t51.5 -10z" />
<glyph unicode="&#x153;" horiz-adv-x="805" d="M761 34q-20 -11 -57 -25.5t-91 -14.5q-66 0 -111.5 29t-70.5 77q-25 -45 -69.5 -75.5t-111.5 -30.5q-59 0 -100.5 22t-68 56.5t-39 76t-12.5 80.5q0 37 13 79t39.5 77t68 58t98.5 23q68 0 113 -31t70 -76q24 48 67.5 77.5t106.5 29.5q46 0 78 -16t52.5 -43t29.5 -63.5 t9 -78.5v-36h-310q0 -36 9 -68t27.5 -56.5t47.5 -39t68 -14.5q37 0 67 11.5t47 23.5q1 -4 4 -8q2 -4 5 -8.5t6 -9.5q6 -11 15 -26zM248 50q23 0 50 9.5t50 30.5t38.5 55.5t15.5 84.5q0 48 -14.5 82t-37 55.5t-49.5 31.5t-51 10q-23 0 -50.5 -9.5t-51 -30.5t-39.5 -55.5 t-16 -84.5q0 -48 15 -82t38 -55.5t50.5 -31.5t51.5 -10zM712 283q0 24 -6.5 47t-20 40.5t-33.5 28t-47 10.5q-32 0 -55.5 -12.5t-40 -31t-26 -41t-12.5 -41.5h241z" />
<glyph unicode="," horiz-adv-x="200" d="M83 84h78l-84 -173h-44z" />
<glyph unicode="." horiz-adv-x="200" d="M100 -6q-20 0 -34 14t-14 34t14 34t34 14t34 -14t14 -34t-14 -34t-34 -14z" />
<glyph unicode=":" horiz-adv-x="200" d="M100 -6q-21 0 -35.5 14.5t-14.5 35.5t14.5 35.5t35.5 14.5t35.5 -14.5t14.5 -35.5t-14.5 -35.5t-35.5 -14.5zM100 359q-21 0 -35.5 15t-14.5 35q0 21 14.5 35.5t35.5 14.5t35.5 -14.5t14.5 -35.5q0 -20 -14.5 -35t-35.5 -15z" />
<glyph unicode=";" horiz-adv-x="200" d="M104 366q-20 0 -34.5 15t-14.5 35q0 21 14.5 35.5t34.5 14.5q21 0 35.5 -14.5t14.5 -35.5q0 -20 -14.5 -35t-35.5 -15zM80 84h78l-84 -173h-44z" />
<glyph unicode="?" horiz-adv-x="399" d="M115 347q70 0 113 34t43 106q0 37 -11.5 64.5t-32.5 45.5t-49.5 26.5t-62.5 8.5v61q49 0 90 -12.5t71 -38t46.5 -64.5t16.5 -91q0 -43 -11 -73.5t-28 -51.5t-37 -34t-38 -19.5t-31.5 -8.5t-17.5 -2v-137h-61v186zM190 39q0 -20 -14 -32.5t-31 -12.5q-19 0 -32 13t-13 32 t13 32t32 13t32 -13t13 -32z" />
<glyph unicode="&#xbf;" horiz-adv-x="399" d="M284 -5q-49 1 -90 13.5t-71 38t-46.5 63.5t-16.5 91q0 64 23.5 102t52.5 57t55 24.5t32 5.5v138h61v-187q-70 0 -113 -34t-43 -106q0 -37 11.5 -64.5t32.5 -45.5t49.5 -26.5t62.5 -8.5v-61zM254 603q-19 0 -32.5 13.5t-13.5 32.5t13.5 32t32.5 13t32 -13t13 -32 t-13 -32.5t-32 -13.5z" />
<glyph unicode="!" horiz-adv-x="290" d="M145 -6q-19 0 -32 13t-13 32t13 32t32 13t32 -13t13 -32t-13 -32t-32 -13zM113 688h64v-529h-64v529z" />
<glyph unicode="&#xa1;" horiz-adv-x="290" d="M145 604q-19 0 -32 13t-13 32t13 32t32 13t32 -13t13 -32t-13 -32t-32 -13zM114 528h64v-528h-64v528z" />
<glyph unicode="-" horiz-adv-x="300" d="M20 373h260v-60h-260v60z" />
<glyph unicode="&#x2013;" horiz-adv-x="500" d="M30 370h440v-53h-440v53z" />
<glyph unicode="&#x2014;" horiz-adv-x="750" d="M30 371h690v-53h-690v53z" />
<glyph unicode="_" horiz-adv-x="500" d="M0 -94h500v-56h-500v56z" />
<glyph unicode="@" horiz-adv-x="796" d="M400 -124q-64 0 -125 23.5t-109 69.5t-77 115t-29 159q0 88 30 155t80 111.5t114.5 67t132.5 22.5q65 0 123 -21.5t101.5 -61t69 -96.5t25.5 -128q0 -88 -19 -139.5t-46 -78.5t-58 -34.5t-55 -7.5q-27 0 -53.5 14.5t-38.5 30.5q-18 -14 -48 -29.5t-67 -15.5 q-53 0 -80 29.5t-27 70.5q0 33 14 55.5t38 38t57.5 27t72.5 21.5l36 9v33q0 38 -18.5 54t-51.5 16q-15 0 -30.5 -5.5t-29 -13t-23.5 -15t-14 -11.5l-32 40l22.5 17t30.5 19t37.5 15.5t43.5 6.5q53 0 87 -25t34 -88v-219q6 -7 16.5 -15t27.5 -8q14 0 33.5 6t37.5 27.5 t30.5 62t12.5 109.5q0 52 -19.5 98.5t-54 81.5t-81.5 55t-103 20q-66 0 -121 -22t-94 -61t-60.5 -93t-21.5 -119q0 -44 13 -98.5t44.5 -103.5t85 -82t134.5 -33q41 0 59.5 5.5t31.5 10.5l21 -50q-15 -6 -47.5 -14t-62.5 -8zM360 86q10 0 23 4.5t26.5 11t27 14.5t24.5 16v100 l-29 -7q-24 -6 -47.5 -14t-41.5 -18.5t-29 -23.5t-11 -29q0 -29 15.5 -41.5t41.5 -12.5z" />
<glyph unicode="/" horiz-adv-x="336" d="M0 -1l279 709l57 -20l-280 -709z" />
<glyph unicode="\" horiz-adv-x="335" d="M0 688l56 20l280 -709l-56 -20z" />
<glyph unicode="|" horiz-adv-x="231" d="M84 761h59v-939h-59v939z" />
<glyph unicode="(" horiz-adv-x="369" d="M271 -80q-41 31 -74 80t-56.5 107t-36.5 120.5t-13 121.5q0 66 15.5 132t41 123t58 102t67.5 70l39 -38q-71 -71 -114 -166t-43 -223q0 -42 11 -97.5t31.5 -110.5t49.5 -102t65 -73l-41 -46v0z" />
<glyph unicode=")" horiz-adv-x="369" d="M57 -34q36 26 65 73t49.5 102t31.5 110.5t11 97.5q0 128 -43 223t-114 166l39 38q34 -25 67 -70t58.5 -102t41 -123t15.5 -132q0 -59 -13 -121.5t-36.5 -120.5t-56.5 -107t-74 -80z" />
<glyph unicode="[" horiz-adv-x="272" d="M70 761h182v-54h-121v-717h121v-54h-182v825z" />
<glyph unicode="]" horiz-adv-x="272" d="M20 -10h120v717h-120v54h182v-825h-182v54z" />
<glyph unicode="{" horiz-adv-x="310" d="M280 -64h-28q-70 0 -99.5 30.5t-29.5 94.5v147q0 27 -3 48t-13 36t-28.5 23t-49.5 8v50q31 0 49.5 10t28.5 27t13 40t3 51v134q0 125 129 125h28v-58h-25q-26 0 -40.5 -8t-21.5 -21.5t-8.5 -31.5t-1.5 -38v-115q0 -26 -3 -48t-11.5 -40t-24.5 -31.5t-42 -21.5 q27 -5 43 -16.5t24.5 -28t11 -37t2.5 -44.5v-129q0 -20 2 -37.5t9.5 -31t22 -21.5t38.5 -8h25v-58z" />
<glyph unicode="}" horiz-adv-x="310" d="M32 -6h25q24 0 38 8t21.5 21.5t10 31t2.5 37.5v129q0 24 2.5 44.5t11 37t24.5 28t43 16.5q-26 8 -42 21.5t-24.5 31.5t-11.5 40t-3 48v115q0 20 -1.5 38t-8.5 31.5t-21.5 21.5t-40.5 8h-25v58h28q129 0 129 -125v-134q0 -28 3 -51t13 -40t28.5 -27t49.5 -10v-50 q-31 0 -49.5 -8t-28.5 -23t-13 -36t-3 -48v-147q0 -64 -29.5 -94.5t-99.5 -30.5h-28v58z" />
<glyph unicode="&#xa7;" horiz-adv-x="434" d="M218 -122q-35 0 -61 5t-46 13t-36 18.5t-30 22.5l37 49q24 -17 54.5 -32.5t82.5 -15.5q19 0 38.5 5t35.5 15.5t25.5 25.5t9.5 35q0 29 -21.5 48.5t-53.5 35.5t-69 31.5t-69 36t-53.5 49t-21.5 70.5q0 33 12.5 59.5t29 45t32 29.5t22.5 14l-21.5 13t-27 21.5t-23.5 34 t-10 49.5t11.5 54.5t33 44t52.5 29t71 10.5q28 0 49.5 -4t38.5 -10.5t30.5 -14.5l26.5 -15l-36 -51q-6 4 -15 9.5t-22.5 11t-30.5 9.5t-39 4q-21 0 -39.5 -4.5t-32.5 -13.5t-22.5 -23t-8.5 -33q0 -27 20 -45t50.5 -33.5t66 -30t66 -34t50.5 -47.5t20 -69q0 -30 -12 -53.5 t-29 -41t-35 -30t-31 -19.5q8 -5 25.5 -13.5t35.5 -24t32 -38t14 -54.5t-12 -59t-35 -47t-55.5 -31t-73.5 -11zM228 185q14 7 31 17.5t32.5 24.5t26 30.5t10.5 35.5q0 26 -15.5 44.5t-37.5 32t-45 22.5t-38 16q-8 -3 -22.5 -12t-29 -23.5t-25 -33.5t-10.5 -43 q0 -25 14.5 -43t35 -31t41 -22t32.5 -15z" />
<glyph unicode="&#x2022;" horiz-adv-x="486" d="M243 149q-30 0 -57 11.5t-47 31.5t-31.5 46.5t-11.5 56.5t11.5 57t31.5 47t47 31.5t57 11.5t57 -11.5t47 -31.5t31.5 -47t11.5 -57t-11.5 -56.5t-31.5 -46.5t-47 -31.5t-57 -11.5z" />
<glyph unicode="#" horiz-adv-x="643" d="M165 211h-95v57h104l21 158h-100v57h107l27 205h60l-28 -205h158l27 205h59l-28 -205h96v-57h-103l-20 -158h99v-57h-108l-28 -211h-61l28 211h-155l-29 -211h-59zM390 268l20 158h-157l-20 -158h157z" />
<glyph unicode="%" horiz-adv-x="739" d="M180 344q-32 0 -59 12t-47.5 35t-32 55t-11.5 73q0 40 11 72t31 55t47.5 35.5t60.5 12.5q32 0 59 -12t46.5 -35t30.5 -55.5t11 -72.5q0 -41 -11.5 -73t-31 -55t-46.5 -35t-58 -12zM179 396q35 0 60 33.5t25 90.5q0 59 -24.5 91t-59.5 32q-36 0 -61 -32t-25 -91 q0 -55 24.5 -89.5t60.5 -34.5zM556 -6q-32 0 -59 12t-47.5 35t-32 55t-11.5 73q0 40 11 72t31.5 55t48 35.5t60.5 12.5q31 0 58 -12t47 -35t31 -55.5t11 -73.5t-11.5 -73t-31.5 -54.5t-47 -34.5t-58 -12zM555 45q35 0 60 33.5t25 90.5q0 59 -24 91t-60 32q-35 0 -60.5 -32 t-25.5 -91q0 -27 6.5 -50t18 -39.5t27 -25.5t33.5 -9zM167 -6l339 727l51 -23l-340 -728z" />
<glyph unicode="&#x2030;" horiz-adv-x="1066" d="M180 344q-32 0 -59 12t-47.5 35t-32 55t-11.5 73q0 40 11 72t31 55t47.5 35.5t60.5 12.5q32 0 59 -12t46.5 -35t30.5 -55.5t11 -72.5q0 -41 -11.5 -73t-31 -55t-46.5 -35t-58 -12zM179 396q35 0 60 33.5t25 90.5q0 59 -24.5 91t-59.5 32q-36 0 -61 -32t-25 -91 q0 -55 24.5 -89.5t60.5 -34.5zM556 -6q-32 0 -59 12t-47.5 35t-32 55t-11.5 73q0 40 11 72t31.5 55t48 35.5t60.5 12.5q31 0 58 -12t47 -35t31 -55.5t11 -73.5t-11.5 -73t-31.5 -54.5t-47 -34.5t-58 -12zM555 45q35 0 60 33.5t25 90.5q0 59 -24 91t-60 32q-35 0 -60.5 -32 t-25.5 -91q0 -27 6.5 -50t18 -39.5t27 -25.5t33.5 -9zM889 -6q-32 0 -59 12t-47.5 35t-32 55t-11.5 73q0 40 11 72t31 55t47.5 35.5t60.5 12.5q31 0 58 -12t47 -35t31 -55.5t11 -73.5t-11.5 -73t-31 -54.5t-46.5 -34.5t-58 -12zM888 45q35 0 59.5 33.5t24.5 90.5 q0 59 -24 91t-59 32q-36 0 -61 -32t-25 -91q0 -55 24.5 -89.5t60.5 -34.5zM167 -6l339 727l51 -23l-340 -728z" />
<glyph unicode="&#x2020;" horiz-adv-x="510" d="M219 404h-186v55h185v235h66v-234h192v-55h-192v-519h-65v518z" />
<glyph unicode="'" horiz-adv-x="198" d="M65 721h68l-10 -170h-47z" />
<glyph unicode="&#x22;" horiz-adv-x="286" d="M50 721h68l-10 -170h-47zM167 721h69l-11 -170h-47z" />
<glyph unicode="&#x201c;" horiz-adv-x="332" d="M128 722h53l-72 -197h-64zM249 722h53l-72 -197h-64z" />
<glyph unicode="&#x201d;" horiz-adv-x="332" d="M118 723h64l-83 -197h-53zM239 723h64l-83 -197h-53z" />
<glyph unicode="&#x2018;" horiz-adv-x="206" d="M118 722h53l-72 -197h-64z" />
<glyph unicode="&#x2019;" horiz-adv-x="206" d="M112 721h64l-83 -197h-53z" />
<glyph unicode="&#x203a;" horiz-adv-x="330" d="M80 342l122 171l48 -31l-102 -140l102 -139l-48 -32z" />
<glyph unicode="&#x2039;" horiz-adv-x="330" d="M80 204l102 139l-102 140l48 31l122 -171l-122 -171z" />
<glyph unicode="&#xab;" horiz-adv-x="494" d="M80 342l122 171l48 -31l-102 -140l102 -139l-48 -32zM244 342l122 171l48 -31l-102 -140l102 -139l-48 -32z" />
<glyph unicode="&#xbb;" horiz-adv-x="494" d="M80 204l102 139l-102 140l48 31l122 -171l-122 -171zM244 204l102 139l-102 140l49 31l121 -171l-121 -171z" />
<glyph unicode="*" horiz-adv-x="392" d="M93 394l60 96l-113 -3v57l111 -4l-58 95l50 28l52 -99l54 100l50 -28l-60 -96l113 4v-57l-113 4l60 -98l-50 -29l-53 101l-53 -100zM195 470q18 0 31 13t13 31t-13 31t-31 13t-31 -13t-13 -31t13 -31t31 -13z" />
<glyph unicode="+" horiz-adv-x="489" d="M214 316h-195v60h195v192h61v-192h195v-60h-195v-200h-61v200z" />
<glyph unicode="&#x3c;" horiz-adv-x="478" d="M70 327l292 250l42 -41l-245 -208l249 -195l-45 -42z" />
<glyph unicode="=" horiz-adv-x="558" d="M70 289h418v-57h-418v57zM70 448h418v-57h-418v57z" />
<glyph unicode="&#x3e;" horiz-adv-x="478" d="M70 133l249 194l-245 208l42 42l292 -249l-294 -237z" />
<glyph unicode="&#x26;" horiz-adv-x="659" d="M263 -7q-50 0 -89.5 16t-67 44t-42 64.5t-14.5 77.5q0 45 16 77.5t36.5 54t40 33t27.5 13.5q-20 10 -38.5 24t-33 34t-23 46t-8.5 60q0 33 13 62t38 50t60 33t79 12t76.5 -12.5t62.5 -35.5l-28 -49q-24 15 -52 26.5t-68 11.5q-50 0 -80.5 -29t-30.5 -73q0 -38 15.5 -63 t38.5 -39.5t49.5 -20t48.5 -5.5h340v-60h-109v-345h-64v54q-12 -9 -28 -19.5t-38.5 -19.5t-53.5 -15.5t-73 -6.5zM269 55q41 0 73.5 9t56.5 21t38 23.5l19 15.5v221h-194q-22 -5 -46.5 -15t-45.5 -27t-34.5 -42t-13.5 -60q0 -36 13 -63t33.5 -45.5t47 -28t53.5 -9.5z" />
<glyph unicode="0" horiz-adv-x="540" d="M272 -6q-49 0 -90 23t-70 67t-45.5 109.5t-16.5 150.5q0 84 15.5 149t44.5 109.5t70.5 68t92.5 23.5q49 0 89 -23t68.5 -67t44 -110t15.5 -151t-16 -150t-44.5 -109.5t-69 -67t-88.5 -22.5zM270 54q42 0 71.5 23.5t48 63t26.5 92t8 111.5q0 58 -8 110.5t-26 92.5t-47 63 t-71 23t-71.5 -22t-48 -60.5t-27 -91.5t-8.5 -115q0 -57 8 -109.5t26.5 -92.5t47.5 -64t71 -24z" />
<glyph unicode="1" horiz-adv-x="328" d="M174 613l-135 -70l-29 52l178 93h50v-688h-64v613z" />
<glyph unicode="2" horiz-adv-x="446" d="M30 50q18 17 53 53t75 82t79 99t65 104q17 32 26 62t9 56q0 19 -5 41.5t-18.5 42t-37 32t-59.5 12.5q-25 0 -45.5 -7.5t-36 -18t-26 -22l-16.5 -18.5l-41 37q24 31 50 49t49 27t42 11t30 2q44 0 78 -14.5t57 -39t35 -58t12 -72.5q0 -38 -13.5 -78t-36.5 -80 q-23 -41 -53 -81.5t-61.5 -77.5l-62 -70l-54.5 -60h277v-63h-351z" />
<glyph unicode="3" horiz-adv-x="445" d="M183 -7q-56 0 -95.5 16.5t-62.5 33.5l28 56q24 -15 61.5 -29.5t76.5 -14.5q61 0 96.5 35t35.5 106q0 38 -16 64.5t-41.5 43t-57 23.5t-63.5 7h-27v60h28q27 0 55.5 7.5t52 23.5t38.5 41t15 59q0 22 -8 42t-22.5 35t-34.5 24t-45 9q-42 0 -72 -11.5t-52 -24.5l-24 47 q35 22 71 35t77 13q86 0 133.5 -45t47.5 -117q0 -59 -33.5 -103.5t-88.5 -58.5q23 -6 47.5 -18t45 -33.5t33.5 -53t13 -75.5q0 -39 -14.5 -74.5t-41.5 -63t-66.5 -43.5t-89.5 -16z" />
<glyph unicode="4" horiz-adv-x="481" d="M305 211h-271l-34 49l307 428h63v-416h84v-61h-84v-211h-65v211zM305 272v314l-222 -314h222z" />
<glyph unicode="5" horiz-adv-x="444" d="M187 -6q-56 0 -94.5 12.5t-72.5 32.5l31 59q23 -14 59.5 -29.5t74.5 -15.5q74 0 113 39.5t39 114.5q0 46 -12 75.5t-32.5 47t-48.5 24t-61 6.5q-24 0 -43.5 -2.5t-43.5 -6.5l-36 39l34 298h291v-64h-237l-22 -210l34 5t33 2q44 0 82.5 -10.5t67 -34.5t45 -64t16.5 -99 q0 -38 -12 -76.5t-38.5 -70.5t-67.5 -52t-99 -20z" />
<glyph unicode="6" horiz-adv-x="487" d="M247 -7q-56 0 -95.5 19.5t-64 53.5t-36 80t-11.5 100q0 80 25.5 150t70.5 128t106.5 102.5t133.5 72.5l23 -58q-49 -19 -88 -42.5t-71.5 -53.5t-58.5 -67.5t-49 -84.5q28 6 55.5 11t56.5 5q45 0 82 -15t64 -41.5t42 -63.5t15 -82q0 -48 -14 -87.5t-40 -67.5t-63 -43.5 t-83 -15.5zM248 51q33 0 57.5 12t41 32.5t24.5 48t8 58.5q0 28 -9.5 55t-27 47t-42 32.5t-54.5 12.5q-29 0 -65.5 -6t-63.5 -16q-5 -24 -7 -47t-2 -47q0 -33 8 -65.5t25 -58.5t43.5 -42t63.5 -16z" />
<glyph unicode="7" horiz-adv-x="397" d="M65 14l253 600h-308v67h360l27 -46l-269 -641z" />
<glyph unicode="8" horiz-adv-x="482" d="M241 -5q-41 0 -77 14t-64 38.5t-44 58.5t-16 74q0 71 36.5 114.5t91.5 67.5q-46 23 -78.5 59.5t-32.5 94.5q0 29 10.5 60.5t33 57.5t58 43t84.5 17q46 0 80 -16t57 -40.5t34.5 -55t11.5 -60.5q0 -31 -9.5 -57t-25.5 -46.5t-36.5 -35.5t-42.5 -25q22 -8 45.5 -22t42 -35 t30.5 -49.5t12 -66.5q0 -40 -15 -74.5t-41.5 -60t-63.5 -40.5t-81 -15zM241 52q29 0 54 9t43.5 26t29 40.5t10.5 52.5q0 34 -12.5 58.5t-32.5 41.5t-45.5 29t-52.5 22q-25 -8 -48.5 -21t-42 -31t-29.5 -41t-11 -51q0 -23 10 -47t28 -43.5t43.5 -32t55.5 -12.5zM252 386 q53 20 80.5 50t27.5 80q0 33 -11 56t-28.5 37.5t-38.5 21t-40 6.5q-21 0 -42 -7t-38.5 -21t-28.5 -35.5t-11 -51.5q0 -27 10 -48t28 -37.5t41.5 -28.5t50.5 -22z" />
<glyph unicode="9" horiz-adv-x="488" d="M88 46q49 19 88.5 42t71.5 53t58 68t49 85q-28 -6 -55.5 -11t-56.5 -5q-45 0 -82 15t-64 41.5t-42 63.5t-15 82q0 48 14 87.5t40 67.5t63 43t83 15q56 0 95.5 -19.5t64.5 -53t36.5 -79.5t11.5 -100q0 -80 -26 -150t-71 -128t-106.5 -103t-133.5 -73zM242 338q29 0 65 6 t63 16q5 24 7 47t2 47q0 33 -8 65t-25 58t-43.5 42t-63.5 16q-32 0 -56.5 -12t-41 -32t-25 -47.5t-8.5 -58.5q0 -29 9.5 -55.5t27.5 -46.5t42.5 -32.5t54.5 -12.5z" />
<glyph unicode="&#x2122;" horiz-adv-x="841" d="M373 688h61l130 -302l143 302h55l18 -400l-55 -3l-13 296l-123 -265h-52l-116 265l-17 -296l-56 3zM140 635h-130v53h314v-53h-127v-346h-57v346z" />
<glyph unicode="&#xae;" horiz-adv-x="542" d="M265 495h-16v-73h-39v201h50q15 0 29.5 -3t26 -9.5t19 -18t7.5 -28.5q0 -24 -9 -38t-27 -22q14 -20 24 -36.5t23 -34.5l-38 -17zM271 333q-38 0 -70.5 14t-57.5 38.5t-39 57.5t-14 70q0 38 14 71t39 58t57.5 39t70.5 14q37 0 70 -14t58 -39t39 -58t14 -71q0 -37 -14 -70 t-39 -57.5t-58 -38.5t-70 -14zM271 368q30 0 56 11.5t45.5 31t30.5 46t11 56.5q0 31 -11 57.5t-30.5 46.5t-45.5 31.5t-56 11.5t-56 -11.5t-45.5 -31.5t-30.5 -46.5t-11 -57.5q0 -30 11 -56.5t30.5 -46t45.5 -31t56 -11.5zM262 529q13 0 20.5 3.5t11.5 9t5 11t1 9.5 q0 12 -9.5 19.5t-21.5 7.5h-20v-60h13z" />
<glyph unicode="&#xa9;" horiz-adv-x="796" d="M421 131q-33 0 -68 13t-64 38.5t-47.5 63.5t-18.5 88q0 47 17.5 84.5t46 64t65.5 40.5t75 14q31 0 56 -7t44 -19l-26 -47q-14 8 -34 14t-46 6q-21 0 -45 -9t-45 -27.5t-35 -46.5t-14 -67q0 -33 11 -60.5t30 -47.5t44 -31t54 -11q24 0 45.5 5.5t36.5 13.5l24 -47 q-20 -11 -45 -18t-61 -7zM415 -29q-75 0 -141 28.5t-115 77.5t-77.5 114.5t-28.5 140.5t28.5 141t77.5 115t115 77.5t141 28.5t140.5 -28.5t114.5 -77.5t77.5 -115t28.5 -141t-28.5 -140.5t-77.5 -114.5t-114.5 -77.5t-140.5 -28.5zM415 25q62 0 116.5 24t95.5 66t64.5 98 t23.5 119q0 64 -23.5 120t-64.5 98t-95.5 66t-116.5 24t-117 -24t-96 -66t-64.5 -98t-23.5 -120q0 -63 23.5 -119t64.5 -98t96 -66t117 -24z" />
<glyph unicode="&#x20ac;" horiz-adv-x="473" d="M293 -6q-126 0 -184.5 88t-58.5 262q0 78 16 142t48 110.5t79.5 72t110.5 25.5q51 0 80.5 -13.5t49.5 -27.5l-28 -56q-7 4 -16.5 10t-23 12t-31.5 10t-42 4q-65 0 -111 -49t-60 -153h244v-50h-248q-1 -9 -1 -18v-19v-22t1 -22h248v-50h-243q14 -100 57 -148t113 -48 q22 0 41 4.5t35 11t28 13l20 10.5l26 -54l-24.5 -14t-31 -14.5t-41 -11.5t-53.5 -5z" />
<glyph unicode="$" horiz-adv-x="473" d="M212 -6q-17 1 -36 3.5t-40 10t-42.5 20.5t-43.5 35l40 46q29 -29 63.5 -41t58.5 -14v281q-35 16 -63 32.5t-47.5 38t-30 51t-10.5 72.5q0 31 12 58t32.5 48.5t48 36t58.5 19.5v61h49v-58q18 0 34.5 -2.5t34.5 -8t38 -15.5t44 -26l-36 -51q-22 14 -38 22.5t-29 13 t-24.5 5.5t-23.5 1v-252q33 -16 62.5 -32t51.5 -38.5t35 -53.5t13 -77q0 -35 -12.5 -66t-34 -55t-51.5 -40t-64 -22v-64h-49v61zM261 59q42 11 69.5 41.5t27.5 75.5q0 28 -7.5 49t-20.5 36.5t-31 27.5t-38 23v-253zM212 628q-15 -4 -30 -12t-27.5 -21t-20.5 -30.5t-8 -40.5 q0 -25 6.5 -43t18.5 -32t27.5 -25t33.5 -20v224z" />
<glyph unicode="&#xa2;" horiz-adv-x="414" d="M223 -3q-42 6 -75 27.5t-56 53t-35 70.5t-12 82q0 50 14.5 90.5t39 69.5t56.5 47.5t68 24.5v61h49v-58q39 -2 70 -13t53 -26q-9 -14 -15 -25l-14 -26q-17 13 -42.5 22.5t-51.5 11.5v-358q33 2 59.5 14t42.5 23l30 -51q-18 -11 -51 -25.5t-81 -17.5v-61h-49v64zM223 404 q-52 -14 -84 -60.5t-32 -117.5q0 -73 34 -116t82 -55v349z" />
<glyph unicode="&#xa3;" horiz-adv-x="470" d="M62 50q23 12 42 30.5t32.5 42.5t21 51.5t7.5 56.5q0 21 -1 44.5t-4 44.5h-100v61h90q-2 27 -7.5 55t-5.5 58q0 46 14 82.5t39 62.5t59 40t74 14q36 0 64 -7.5t43 -16.5l-24 -60q-14 8 -33.5 15t-47.5 7q-29 0 -51 -11t-37 -29.5t-23 -42.5t-8 -49q0 -32 5 -59.5t9 -58.5 h147v-61h-138q2 -34 3.5 -68.5t-5.5 -61.5q-8 -31 -21.5 -65.5t-44.5 -63.5h289v-61h-388v50z" />
<glyph unicode="&#xa5;" horiz-adv-x="540" d="M248 213h-192v53h192v74h-192v52h147l-183 270l53 31l208 -300l207 300l52 -33l-184 -268h141v-52h-185v-74h185v-53h-185v-213h-64v213z" />
<glyph unicode="&#xa4;" horiz-adv-x="496" d="M40 178l72 70q-14 18 -23.5 46t-9.5 58t8.5 58t23.5 46l-71 71l33 32l70 -70q21 14 49 24t56 10t55 -7.5t50 -24.5l69 70l34 -35l-70 -70q17 -18 24.5 -46t7.5 -58t-8.5 -59t-25.5 -47l70 -70l-31 -34l-70 70q-22 -13 -49.5 -21.5t-55.5 -8.5t-55 8t-48 24l-72 -70z M248 229q63 0 93 35.5t30 87.5q1 52 -30 88t-93 36q-61 0 -92.5 -36t-31.5 -88t32 -87.5t92 -35.5z" />
<glyph unicode="B" horiz-adv-x="528" d="M90 688h177q22 0 53 -5.5t59 -23t47.5 -50t19.5 -86.5q0 -40 -13 -67.5t-30 -45.5t-33 -27.5l-21 -12.5q10 -3 29 -13.5t38 -31t33 -50.5t14 -71q0 -59 -20.5 -98t-54.5 -62.5t-77 -33.5t-89 -10h-132v688zM222 60q37 0 69 6.5t55 22.5t36 44t13 71q0 60 -43.5 95.5 t-111.5 35.5h-86v-275h68zM221 396q43 0 73.5 10.5t49.5 28.5t27.5 41t8.5 48q0 31 -11 51.5t-30 31.5t-43 15.5t-51 4.5h-91v-231h67z" />
<glyph unicode="A" horiz-adv-x="618" d="M20 12l269 676h46l263 -674l-63 -20l-90 232h-274l-93 -234zM421 286l-113 290l-113 -290h226z" />
</font>
</defs>
</svg>
