<?xml version="1.0" standalone="no"?>
<!DOCTYPE svg PUBLIC "-//W3C//DTD SVG 1.1//EN" "http://www.w3.org/Graphics/SVG/1.1/DTD/svg11.dtd" >
<svg xmlns="http://www.w3.org/2000/svg">
<metadata>
This is a custom SVG webfont generated by Typotheque.
</metadata>
<defs>
<font id="typotheque_webfonts_service" horiz-adv-x="450" >
<font-face units-per-em="1000" ascent="710" descent="-290" />
<missing-glyph horiz-adv-x="191" />
<glyph horiz-adv-x="0" />
<glyph unicode=" "  horiz-adv-x="191" />
<glyph unicode="&#x09;" horiz-adv-x="191" />
<glyph unicode="&#xa0;" horiz-adv-x="191" />
<glyph unicode="C" horiz-adv-x="559" d="M378 -6q-66 0 -126 23t-106 67.5t-73 110t-27 149.5q0 81 28 145.5t74.5 110t108 70t128.5 24.5q50 0 91 -11t67 -28l-36 -68q-19 11 -53 20.5t-79 9.5q-41 0 -84.5 -18t-78.5 -52.5t-57.5 -85t-22.5 -116.5q0 -59 18.5 -109t51.5 -86.5t78 -57.5t98 -21q42 0 78.5 8.5 t56.5 18.5l34 -66q-28 -17 -69.5 -27.5t-99.5 -10.5z" />
<glyph unicode="D" horiz-adv-x="702" d="M84 688h240q91 0 154 -28.5t102.5 -75.5t57.5 -107t18 -123q0 -77 -26 -142t-71.5 -112t-108 -73.5t-135.5 -26.5h-231v688zM295 76q43 0 91.5 14t88.5 47t66.5 87.5t26.5 135.5q0 58 -14 99t-37 69t-52 44.5t-59.5 25t-59 11t-50.5 2.5h-127v-535h126z" />
<glyph unicode="E" horiz-adv-x="510" d="M84 688h381v-77h-296v-220h274v-76h-274v-238h296v-77h-381v688z" />
<glyph unicode="F" horiz-adv-x="489" d="M84 688h378v-77h-293v-220h271v-76h-271v-315h-85v688z" />
<glyph unicode="G" horiz-adv-x="665" d="M378 -6q-74 0 -135 27t-104.5 74t-68 109.5t-24.5 133.5q0 75 26.5 140t73 113t110 75.5t138.5 27.5t122 -16.5t71 -30.5l-39 -65q-26 15 -65.5 25t-87.5 10q-59 0 -107.5 -22t-83 -59.5t-53 -88.5t-18.5 -108q0 -54 17 -103t49 -85.5t77.5 -58t103.5 -21.5q49 0 85 10 t60 28v173h-170v73h253v-280q-45 -41 -106 -61t-124 -20z" />
<glyph unicode="H" horiz-adv-x="697" d="M84 688h86v-294h358v294h85v-688h-85v317h-358v-317h-86v688z" />
<glyph unicode="I" horiz-adv-x="253" d="M84 688h85v-688h-85v688z" />
<glyph unicode="J" horiz-adv-x="253" d="M-87 -137q34 0 65 9t55 30t38 56t14 88v642h84v-651q0 -125 -69.5 -187t-186.5 -62v75z" />
<glyph unicode="K" horiz-adv-x="595" d="M177 365l306 330l82 -32l-280 -293l296 -340l-83 -37zM84 688h86v-688h-86v688z" />
<glyph unicode="L" horiz-adv-x="481" d="M84 688h85v-611h304v-77h-389v688z" />
<glyph unicode="M" horiz-adv-x="874" d="M69 -1l48 689h105l214 -542l233 542h96l41 -689l-85 -4l-29 562l-214 -502l-90 -1l-201 506l-34 -565z" />
<glyph unicode="N" horiz-adv-x="748" d="M84 688h97l397 -559v559h85v-688h-96l-397 559v-559h-86v688z" />
<glyph unicode="O" horiz-adv-x="771" d="M387 -6q-76 0 -138.5 25.5t-107.5 72t-70 111t-25 141.5q0 73 24 136.5t68 111t107.5 75t142.5 27.5q76 0 138 -28t106 -76t68.5 -111.5t24.5 -133.5q0 -78 -24.5 -142.5t-69.5 -111t-107 -72t-137 -25.5zM383 71q60 0 108 22t81 59t50.5 86.5t17.5 105.5q0 55 -17 105 t-49.5 87t-79.5 59t-108 22q-60 0 -107.5 -22t-80 -59t-49.5 -87t-17 -105q0 -51 16.5 -100.5t48.5 -87.5t79 -61.5t107 -23.5z" />
<glyph unicode="P" horiz-adv-x="517" d="M84 688h181q39 0 78 -9t69.5 -30.5t49.5 -57t19 -89.5q0 -47 -17 -87t-48 -69t-75.5 -46t-99.5 -17h-72v-283h-85v688zM229 357q45 0 76.5 12.5t51 32.5t28.5 46t9 53q0 33 -11 54t-30.5 33.5t-45.5 17.5t-56 5h-82v-254h60z" />
<glyph unicode="Q" horiz-adv-x="775" d="M478 0q-3 0 -14.5 -1t-26.5 -2l-29 -2t-21 -1q-76 0 -139 26t-108 72.5t-69.5 110.5t-24.5 141q0 73 24 136.5t68 111t107.5 75t142.5 27.5q76 0 138 -28t106 -76t68.5 -111.5t24.5 -133.5q0 -88 -32 -160.5t-95 -117.5l161 2v-75zM384 71q60 0 107.5 21.5t80.5 58.5 t50.5 87t17.5 106q0 55 -17 105t-49 87t-79 59t-108 22q-60 0 -107.5 -21.5t-80.5 -58.5t-50 -87t-17 -106q0 -52 16.5 -101t49 -87.5t79.5 -61.5t107 -23z" />
<glyph unicode="R" horiz-adv-x="536" d="M239 297h-70v-297h-85v688h178q25 0 62 -5t71.5 -23t59 -54t24.5 -98q0 -41 -12.5 -73.5t-33.5 -57t-48.5 -41.5t-58.5 -27l195 -293l-88 -24zM226 373q48 0 80 12t51 30.5t26.5 42.5t7.5 48q0 36 -13.5 56.5t-35 31.5t-47.5 14t-50 3h-76v-238h57z" />
<glyph unicode="S" horiz-adv-x="482" d="M232 -6q-22 0 -45 2.5t-47 10t-49 21.5t-49 38l51 60q32 -30 69.5 -42.5t64.5 -12.5q25 0 48.5 7.5t40.5 22t27.5 34.5t10.5 45q0 33 -12 56t-31.5 39t-44.5 28l-52 24q-33 15 -61.5 31t-49.5 38t-33 52.5t-12 75.5q0 37 16.5 68.5t43.5 54t62 35t71 12.5q24 0 44.5 -2 t41.5 -7.5t43 -16t49 -27.5l-43 -65q-21 14 -38 22.5t-33 12.5t-31 5t-32 1q-16 0 -35 -5t-35.5 -17t-27.5 -30.5t-11 -45.5q0 -28 10 -47t26.5 -33t38.5 -25l46 -22l67 -32t56 -39t38.5 -56t14.5 -81q0 -41 -17 -75.5t-45.5 -60t-66 -40t-79.5 -14.5z" />
<glyph unicode="T" horiz-adv-x="503" d="M211 611h-215v77h511v-77h-211v-611h-85v611z" />
<glyph unicode="U" horiz-adv-x="672" d="M338 -7q-56 0 -104.5 15.5t-84.5 44.5t-56.5 72t-20.5 98v465h85v-456q0 -39 14 -69t39 -50.5t58.5 -31t72.5 -10.5q38 0 70 9t55 29.5t36 52.5t13 78v448h85v-464q0 -57 -21.5 -100t-57.5 -72.5t-83.5 -44t-99.5 -14.5z" />
<glyph unicode="V" horiz-adv-x="638" d="M13 675l86 19l220 -573l224 575l82 -19l-270 -677h-80z" />
<glyph unicode="W" horiz-adv-x="905" d="M14 678l88 16l158 -559l156 553h78l157 -558l159 564l81 -14l-203 -680h-78l-157 553l-157 -553h-79z" />
<glyph unicode="X" horiz-adv-x="586" d="M13 19l229 327l-226 322l86 26l193 -278l192 278l78 -28l-222 -317l230 -328l-86 -27l-196 284l-197 -284z" />
<glyph unicode="Y" horiz-adv-x="548" d="M231 313l-232 352l81 28l196 -299l195 299l78 -29l-233 -351v-313h-85v313z" />
<glyph unicode="Z" horiz-adv-x="568" d="M29 62l391 545h-373v77h458l31 -59l-394 -549h383v-76h-464z" />
<glyph unicode="&#xc0;" horiz-adv-x="639" d="M13 10l273 678h73l267 -677l-87 -16l-84 219h-274l-87 -221zM426 289l-107 279l-108 -279h215zM196 828l50 61l153 -127l-37 -46z" />
<glyph unicode="&#xc6;" horiz-adv-x="845" d="M-4 13l410 675h394v-77h-295v-220h273v-76h-273v-238h295v-77h-380v214h-212l-133 -221zM420 289v280l-169 -280h169z" />
<glyph unicode="&#xc7;" horiz-adv-x="559" d="M305 -182q32 14 43.5 27t11.5 31q0 20 -11.5 36t-25.5 29l22 55q-60 5 -114 30t-95.5 69.5t-65.5 106.5t-24 142q0 81 28 145.5t74.5 110t108 70t128.5 24.5q50 0 91 -11t67 -28l-36 -68q-19 11 -53 20.5t-79 9.5q-41 0 -84.5 -18t-78.5 -52.5t-57.5 -85t-22.5 -116.5 q0 -59 18.5 -109t51.5 -86.5t78 -57.5t98 -21q42 0 78.5 8.5t56.5 18.5l34 -66q-23 -14 -56.5 -24t-78.5 -13l-17 -39q17 -17 27.5 -38t10.5 -44q0 -37 -29 -65.5t-71 -39.5z" />
<glyph unicode="&#xc9;" horiz-adv-x="510" d="M84 688h381v-77h-296v-220h274v-76h-274v-238h296v-77h-381v688zM189 761l153 128l50 -62l-166 -111z" />
<glyph unicode="&#xca;" horiz-adv-x="510" d="M84 688h381v-77h-296v-220h274v-76h-274v-238h296v-77h-381v688zM127 768l149 113l149 -113l-48 -51l-101 83l-101 -83z" />
<glyph unicode="&#xcb;" horiz-adv-x="510" d="M184 732q-23 0 -38.5 15.5t-15.5 38.5q0 22 15.5 38t38.5 16t38.5 -16t15.5 -38q0 -23 -15.5 -38.5t-38.5 -15.5zM359 732q-23 0 -39 15.5t-16 38.5q0 22 16 38t39 16t38.5 -16t15.5 -38q0 -23 -15.5 -38.5t-38.5 -15.5zM84 688h381v-77h-296v-220h274v-76h-274v-238h296 v-77h-381v688z" />
<glyph unicode="&#xc8;" horiz-adv-x="510" d="M84 688h381v-77h-296v-220h274v-76h-274v-238h296v-77h-381v688zM149 828l50 61l153 -127l-37 -46z" />
<glyph unicode="&#xcf;" horiz-adv-x="253" d="M39 732q-23 0 -38.5 15.5t-15.5 38.5q0 22 15.5 38t38.5 16t38.5 -16t15.5 -38q0 -23 -15.5 -38.5t-38.5 -15.5zM214 732q-23 0 -39 15.5t-16 38.5q0 22 16 38t39 16t38.5 -16t15.5 -38q0 -23 -15.5 -38.5t-38.5 -15.5zM84 688h85v-688h-85v688z" />
<glyph unicode="&#xd1;" horiz-adv-x="748" d="M84 688h97l397 -559v559h85v-688h-96l-397 559v-559h-86v688zM528 802q-6 -12 -15 -25.5t-20.5 -24t-26 -17.5t-32.5 -7q-16 0 -31.5 6.5t-29.5 14l-27 14t-25 6.5q-20 0 -33 -10.5t-23 -29.5l-43 33q14 30 39.5 50.5t57.5 20.5q13 0 28 -6.5t30 -14l28 -13.5t24 -6 q21 0 32 11t21 28z" />
<glyph unicode="&#xd6;" horiz-adv-x="771" d="M301 732q-23 0 -38.5 15.5t-15.5 38.5q0 22 15.5 38t38.5 16t38.5 -16t15.5 -38q0 -23 -15.5 -38.5t-38.5 -15.5zM476 732q-23 0 -39 15.5t-16 38.5q0 22 16 38t39 16t38.5 -16t15.5 -38q0 -23 -15.5 -38.5t-38.5 -15.5zM387 -6q-76 0 -138.5 25.5t-107.5 72t-70 111 t-25 141.5q0 73 24 136.5t68 111t107.5 75t142.5 27.5q76 0 138 -28t106 -76t68.5 -111.5t24.5 -133.5q0 -78 -24.5 -142.5t-69.5 -111t-107 -72t-137 -25.5zM383 71q60 0 108 22t81 59t50.5 86.5t17.5 105.5q0 55 -17 105t-49.5 87t-79.5 59t-108 22q-60 0 -107.5 -22 t-80 -59t-49.5 -87t-17 -105q0 -51 16.5 -100.5t48.5 -87.5t79 -61.5t107 -23.5z" />
<glyph unicode="&#xd4;" horiz-adv-x="771" d="M238 768l149 113l149 -113l-48 -51l-101 83l-101 -83zM387 -6q-76 0 -138.5 25.5t-107.5 72t-70 111t-25 141.5q0 73 24 136.5t68 111t107.5 75t142.5 27.5q76 0 138 -28t106 -76t68.5 -111.5t24.5 -133.5q0 -78 -24.5 -142.5t-69.5 -111t-107 -72t-137 -25.5zM383 71 q60 0 108 22t81 59t50.5 86.5t17.5 105.5q0 55 -17 105t-49.5 87t-79.5 59t-108 22q-60 0 -107.5 -22t-80 -59t-49.5 -87t-17 -105q0 -51 16.5 -100.5t48.5 -87.5t79 -61.5t107 -23.5z" />
<glyph unicode="&#x152;" horiz-adv-x="869" d="M387 -6q-76 0 -138.5 25.5t-107.5 72t-70 111t-25 141.5q0 73 24 136.5t68 111t107.5 75t142.5 27.5q34 0 64 -6h372v-77h-296v-220h274v-76h-274v-238h296v-77h-368q-33 -6 -69 -6zM383 71q17 0 32 2l29 4v534l-28 4t-30 2q-60 0 -107.5 -22t-80 -59t-49.5 -87t-17 -105 q0 -51 16.5 -100.5t48.5 -87.5t79 -61.5t107 -23.5z" />
<glyph unicode="a" d="M304 47q-10 -7 -24 -16t-31.5 -17.5t-38.5 -14t-44 -5.5q-58 0 -92.5 32.5t-34.5 86.5q0 36 15 61.5t41.5 43.5t62.5 30.5t78 22.5l56 12v39q0 75 -79 75q-18 0 -36.5 -6t-34.5 -14.5t-28 -16.5t-17 -11l-38 56q8 6 22.5 16t34.5 20t45.5 17.5t54.5 7.5q30 0 57.5 -7 t49.5 -23t35 -41.5t13 -62.5v-243l51 -48l-53 -54zM178 58q12 0 27 4.5t30.5 11.5t30 15.5t26.5 16.5v118q-30 -8 -38 -9q-6 -2 -10 -2q-24 -6 -47 -14.5t-41 -20t-28.5 -26t-10.5 -33.5q0 -34 18.5 -47.5t42.5 -13.5z" />
<glyph unicode="b" horiz-adv-x="524" d="M285 -6q-24 0 -44 6t-36.5 14.5t-30 18.5t-22.5 18v-51h-78v721h79v-310q8 5 21.5 14.5t31.5 18.5t40 15.5t46 6.5q51 0 88 -20.5t60.5 -53.5t34.5 -75t11 -85q0 -42 -12.5 -84.5t-37 -76.5t-62.5 -55.5t-89 -21.5zM280 65q28 0 52 12.5t40.5 34.5t26 52t9.5 66t-8 66 t-23.5 51.5t-38 34t-52.5 12.5q-26 0 -48 -7.5t-39 -17t-28.5 -19.5l-17.5 -15v-207l23 -20t28.5 -20.5t34 -16t41.5 -6.5z" />
<glyph unicode="c" horiz-adv-x="417" d="M260 -6q-51 0 -91.5 18t-69 49.5t-43.5 74t-15 91.5q0 56 17.5 100.5t47.5 75t70 47t85 16.5q42 0 76.5 -11t60.5 -28l-37 -63q-19 12 -44.5 21t-51.5 9q-32 0 -58.5 -12t-45.5 -34t-29.5 -53t-10.5 -68q0 -39 11.5 -69t31 -50.5t45.5 -31t56 -10.5q32 0 59 10.5t44 21.5 l38 -62q-23 -14 -59.5 -28t-86.5 -14z" />
<glyph unicode="d" horiz-adv-x="524" d="M239 -6q-51 0 -89 20.5t-63 54t-37.5 75.5t-12.5 85t11.5 85t35 76t60 55t87.5 21q25 0 47 -6.5t40 -15t31.5 -17.5t22.5 -14v308h77v-721h-77v49l-25 -17.5t-31.5 -18t-36.5 -14t-40 -5.5zM244 65q22 0 41 6.5t35 16.5t29 21l23 19v207q-8 7 -21 17t-29.5 19.5t-37.5 16 t-45 6.5q-30 0 -53 -12.5t-38.5 -34t-23.5 -51.5t-8 -66t9.5 -66t26.5 -52t40.5 -34.5t51.5 -12.5z" />
<glyph unicode="e" d="M255 -6q-53 0 -93.5 17.5t-67.5 49t-41 73.5t-14 92q0 49 13.5 92.5t39.5 76.5t65.5 52t90.5 19q46 0 79 -16t54 -44t31 -65.5t10 -79.5v-44h-303q1 -31 10.5 -58.5t27 -48.5t43.5 -33t59 -12q34 0 64 9.5t51 20.5q1 -5 4 -10q2 -5 5 -10t6 -11q6 -14 15 -32 q-23 -14 -61 -26t-88 -12zM343 279q0 23 -6 44.5t-18 38t-30.5 26.5t-44.5 10q-29 0 -50 -11.5t-36 -29t-23.5 -38.5t-11.5 -40h220z" />
<glyph unicode="f" horiz-adv-x="306" d="M108 390h-83v70h83v136q0 56 33 93.5t96 37.5q48 0 73.5 -10l30.5 -12l-27 -64q-9 4 -20 8q-9 3 -21.5 5.5t-26.5 2.5q-8 0 -18.5 -2.5t-19.5 -10t-15.5 -20.5t-6.5 -34v-130h110v-69h-110v-391h-78v390z" />
<glyph unicode="g" horiz-adv-x="474" d="M221 -238q-42 0 -78.5 12.5t-63.5 35t-42.5 53.5t-15.5 68q0 43 18.5 73.5t44.5 50.5t53.5 30t45.5 12l2 49q-29 5 -54 19t-43.5 35t-29 47t-10.5 56q0 36 14 65.5t37.5 51.5t54.5 34t66 12q51 0 91 -25l154 27v-76h-103q14 -20 21.5 -41.5t7.5 -47.5q0 -31 -10.5 -57.5 t-29 -46.5t-43.5 -34t-54 -19l1 -49q20 -2 48.5 -12t55 -30t45.5 -50.5t19 -73.5q0 -36 -16 -67t-43.5 -53.5t-64.5 -35.5t-78 -13zM221 -174q25 0 47.5 8t39 22.5t26 33.5t9.5 42q0 22 -9.5 41.5t-26 34t-38.5 22.5t-47 8t-47 -8t-38.5 -22t-26.5 -33.5t-10 -42.5t9.5 -42 t26 -33.5t38.5 -22.5t47 -8zM220 208q19 0 36 7.5t29.5 20t20 30t7.5 37.5t-7.5 37.5t-20 30.5t-30 20.5t-36.5 7.5t-36 -7.5t-30 -20.5t-20.5 -30.5t-7.5 -37.5t7.5 -37.5t20.5 -30.5t30 -20t37 -7z" />
<glyph unicode="h" horiz-adv-x="507" d="M74 721h79v-319q14 13 32 24.5t38.5 20.5t41 14t40.5 5q29 0 54 -8.5t43.5 -24.5t29 -38.5t10.5 -49.5v-345h-78v318q0 42 -21 58t-52 16q-23 0 -45.5 -9.5t-41 -22t-32 -24.5l-19.5 -17v-319h-79v721z" />
<glyph unicode="i" horiz-adv-x="249" d="M124 557q-23 0 -38.5 15.5t-15.5 38.5t15.5 38.5t38.5 15.5t38.5 -15.5t15.5 -38.5t-15.5 -38.5t-38.5 -15.5zM84 460h79v-460h-79v460z" />
<glyph unicode="j" horiz-adv-x="249" d="M124 557q-23 0 -38.5 15.5t-15.5 38.5t15.5 38.5t38.5 15.5q22 0 38 -15.5t16 -38.5t-16 -38.5t-38 -15.5zM-24 -178q62 38 85.5 88t23.5 113v437h78v-448q0 -77 -35 -140t-107 -105z" />
<glyph unicode="k" horiz-adv-x="458" d="M156 258l206 207l74 -29l-187 -179l199 -236l-79 -28zM74 721h79v-721h-79v721z" />
<glyph unicode="l" horiz-adv-x="227" d="M74 721h79v-721h-79v721z" />
<glyph unicode="m" horiz-adv-x="757" d="M74 460h79v-57q38 34 78 48.5t69 14.5q45 0 73 -19t39 -48l21 17.5t34 22.5t45.5 19t55.5 8q32 0 55.5 -10t38.5 -27t22.5 -38.5t7.5 -44.5v-346h-78v335q0 17 -5.5 28.5t-14 18t-19 9t-20.5 2.5q-20 0 -40.5 -7.5t-38.5 -18t-32 -22t-20 -18.5v-327h-79v335 q0 17 -5.5 28.5t-14.5 18t-19.5 9t-19.5 2.5q-22 0 -44 -8.5t-40.5 -20t-31.5 -22.5t-17 -16v-326h-79v460z" />
<glyph unicode="n" horiz-adv-x="507" d="M74 460h79v-59q27 25 66 45t80 20q71 0 107 -36t36 -89v-341h-78v319q0 42 -21 58.5t-52 16.5q-23 0 -45.5 -9t-41.5 -21t-32.5 -24t-18.5 -17v-323h-79v460z" />
<glyph unicode="o" horiz-adv-x="511" d="M258 -6q-57 0 -99.5 20.5t-70 54t-41 75.5t-13.5 85q0 39 13 81t40 77t69 57.5t101 22.5t101 -22.5t68.5 -57.5t38.5 -76.5t12 -80.5t-12.5 -81t-39 -76.5t-68 -56.5t-99.5 -22zM256 65q24 0 48.5 9t45 29t33.5 51t13 76t-13.5 76t-33.5 50.5t-44.5 28.5t-46.5 9 q-21 0 -46 -8.5t-46.5 -27.5t-36 -51t-14.5 -78q0 -42 12.5 -73t33 -51t45.5 -30t50 -10z" />
<glyph unicode="p" horiz-adv-x="524" d="M74 460h79v-49q8 5 21.5 14.5t31.5 18.5t40 15.5t46 6.5q51 0 88 -20.5t60.5 -53.5t34.5 -75t11 -85q0 -42 -12.5 -84.5t-37 -76.5t-62.5 -55.5t-89 -21.5q-22 0 -42 5.5t-37.5 13.5t-30.5 17l-22 15v-284h-79v699zM280 65q28 0 51.5 12.5t40.5 34.5t26.5 52t9.5 66 t-8 66t-23.5 51.5t-38.5 34t-53 12.5q-24 0 -45 -7t-37.5 -16.5t-29 -19.5t-20.5 -17v-210q10 -9 22.5 -19t28.5 -19t35 -15t41 -6z" />
<glyph unicode="q" horiz-adv-x="523" d="M371 49l-25 -17.5t-31 -18t-36 -14t-40 -5.5q-51 0 -89 21t-63 55t-37.5 76t-12.5 84q0 43 11.5 85t35 75.5t60 54.5t87.5 21q25 0 46.5 -6.5t39.5 -15t32 -17.5l22 -14v47h78v-699h-78v288zM243 65q22 0 41 6.5t35 16.5t29 21l23 19v206q-8 7 -20.5 17t-29 19.5 t-37.5 16.5t-46 7q-30 0 -52.5 -12.5t-38 -34t-23.5 -51.5t-8 -66t9.5 -66t26 -52t40 -34.5t51.5 -12.5z" />
<glyph unicode="r" horiz-adv-x="342" d="M75 460h79v-62q7 7 18 19t26 23t33.5 19t38.5 8q28 0 44 -5.5t30 -11.5l-33 -74q-14 8 -27 11t-31 3q-14 0 -29 -7t-28 -18t-24 -24t-18 -25v-316h-79v460z" />
<glyph unicode="s" horiz-adv-x="363" d="M172 -6q-42 0 -76 10t-60 28l36 62q44 -30 98 -30q32 0 54 15.5t22 44.5q0 16 -7.5 28t-20.5 22.5t-30.5 19.5t-37.5 18q-24 12 -43 24t-33 27.5t-21.5 35.5t-7.5 47q0 30 13.5 52.5t34 37.5t45.5 22.5t49 7.5q46 0 77 -11.5t51 -25.5l-36 -60q-15 11 -40 19t-51 8 t-45.5 -12.5t-19.5 -35.5q0 -15 5.5 -25.5t15 -18.5t22 -14.5l26.5 -13.5l45 -23t43.5 -28.5t32.5 -40.5t13 -59q0 -32 -13.5 -56.5t-35.5 -41t-49.5 -25t-55.5 -8.5z" />
<glyph unicode="t" horiz-adv-x="326" d="M213 -6q-59 0 -86.5 31.5t-27.5 94.5v270h-78v70h77v93h79v-93h120v-69h-119v-261q0 -22 4.5 -35t11.5 -19.5t15.5 -8.5t16.5 -2q25 0 43 7.5l23 9.5l24 -64q-6 -3 -31 -13.5t-72 -10.5z" />
<glyph unicode="u" horiz-adv-x="504" d="M209 -6q-71 0 -107 36t-36 89v341h78v-319q0 -42 21 -58.5t53 -16.5q22 0 43.5 9t39.5 21t31.5 24t18.5 18v322h79v-460h-79v60q-28 -25 -64.5 -45.5t-77.5 -20.5z" />
<glyph unicode="v" horiz-adv-x="446" d="M9 448l79 18l136 -372l139 371l74 -17l-174 -448h-84z" />
<glyph unicode="w" horiz-adv-x="726" d="M9 448l76 18l123 -368l118 362h76l118 -362l123 368l74 -15l-159 -451h-80l-115 348l-117 -348h-80z" />
<glyph unicode="x" horiz-adv-x="448" d="M361 -7l-141 187l-136 -186l-76 24l170 218l-158 208l81 22l127 -172l127 172l78 -23l-164 -205l169 -220z" />
<glyph unicode="y" horiz-adv-x="461" d="M45 -238h-16.5t-17.5 1v70q7 -1 13.5 -1h13.5q39 0 68.5 21t43.5 56l43 106l-182 432l79 18l145 -355l142 355l74 -18l-226 -553q-25 -60 -69.5 -96t-110.5 -36z" />
<glyph unicode="z" horiz-adv-x="408" d="M24 53l247 336h-232v71h316l21 -57l-244 -331h232v-72h-312z" />
<glyph unicode="&#xe0;" d="M304 47q-10 -7 -24 -16t-31.5 -17.5t-38.5 -14t-44 -5.5q-58 0 -92.5 32.5t-34.5 86.5q0 36 15 61.5t41.5 43.5t62.5 30.5t78 22.5l56 12v39q0 75 -79 75q-18 0 -36.5 -6t-34.5 -14.5t-28 -16.5t-17 -11l-38 56q8 6 22.5 16t34.5 20t45.5 17.5t54.5 7.5q30 0 57.5 -7 t49.5 -23t35 -41.5t13 -62.5v-243l51 -48l-53 -54zM178 58q12 0 27 4.5t30.5 11.5t30 15.5t26.5 16.5v118q-30 -8 -38 -9q-6 -2 -10 -2q-24 -6 -47 -14.5t-41 -20t-28.5 -26t-10.5 -33.5q0 -34 18.5 -47.5t42.5 -13.5zM104 642l53 58l144 -141l-41 -42z" />
<glyph unicode="&#xe6;" horiz-adv-x="697" d="M160 -6q-57 0 -91.5 32.5t-34.5 86.5q0 36 15 61.5t41.5 43.5t62.5 30.5t78 22.5l56 12v40q0 38 -21 55.5t-59 17.5q-19 0 -37.5 -6t-34 -14t-27.5 -16t-17 -11l-38 56q8 6 22.5 16t34.5 20t45.5 17.5t55.5 7.5q42 0 78.5 -14.5t56.5 -48.5q26 29 62.5 46t84.5 17 q46 0 79.5 -16t54.5 -44t31 -65.5t10 -79.5v-44h-302q1 -31 10 -59t26.5 -49t43 -33.5t58.5 -12.5q35 0 64.5 10.5t50.5 21.5q1 -5 4 -10q2 -5 5 -10t6 -11l16 -32q-23 -14 -61.5 -26t-88.5 -12q-59 0 -101 21t-70 58q-15 -13 -33 -27t-39.5 -25.5t-45.5 -19t-51 -7.5z M172 60q12 0 27 4t30.5 10.5t30.5 15t27 16.5v118q-15 -4 -24.5 -6l-14.5 -3q-6 -2 -10 -2q-24 -6 -47 -14.5t-40.5 -20t-28 -26t-10.5 -33.5q0 -34 18 -46.5t42 -12.5zM588 279q0 23 -6 44.5t-18 38t-30.5 26.5t-43.5 10q-29 0 -50.5 -11.5t-36 -29t-23 -38.5t-11.5 -40 h219z" />
<glyph unicode="&#xe7;" horiz-adv-x="417" d="M177 -182q32 14 43.5 27t11.5 31q0 20 -11.5 36t-25.5 29l24 57q-42 6 -75 26.5t-56 51t-35 69t-12 82.5q0 56 17.5 100.5t47.5 75t70 47t85 16.5q42 0 76.5 -11t60.5 -28l-37 -63q-19 12 -44.5 21t-51.5 9q-32 0 -58.5 -12t-45.5 -34t-29.5 -53t-10.5 -68 q0 -39 11.5 -69t31 -50.5t45.5 -31t56 -10.5q32 0 59 10.5t44 21.5l38 -62q-20 -12 -50 -24.5t-72 -15.5l-16 -40q17 -17 27 -38t10 -44q0 -37 -29 -65.5t-71 -39.5z" />
<glyph unicode="&#xe9;" d="M163 559l143 141l54 -58l-156 -125zM255 -6q-53 0 -93.5 17.5t-67.5 49t-41 73.5t-14 92q0 49 13.5 92.5t39.5 76.5t65.5 52t90.5 19q46 0 79 -16t54 -44t31 -65.5t10 -79.5v-44h-303q1 -31 10.5 -58.5t27 -48.5t43.5 -33t59 -12q34 0 64 9.5t51 20.5q1 -5 4 -10 q2 -5 5 -10t6 -11q6 -14 15 -32q-23 -14 -61 -26t-88 -12zM343 279q0 23 -6 44.5t-18 38t-30.5 26.5t-44.5 10q-29 0 -50 -11.5t-36 -29t-23.5 -38.5t-11.5 -40h220z" />
<glyph unicode="&#xe8;" d="M255 -6q-53 0 -93.5 17.5t-67.5 49t-41 73.5t-14 92q0 49 13.5 92.5t39.5 76.5t65.5 52t90.5 19q46 0 79 -16t54 -44t31 -65.5t10 -79.5v-44h-303q1 -31 10.5 -58.5t27 -48.5t43.5 -33t59 -12q34 0 64 9.5t51 20.5q1 -5 4 -10q2 -5 5 -10t6 -11q6 -14 15 -32 q-23 -14 -61 -26t-88 -12zM343 279q0 23 -6 44.5t-18 38t-30.5 26.5t-44.5 10q-29 0 -50 -11.5t-36 -29t-23.5 -38.5t-11.5 -40h220zM112 642l53 58l144 -141l-41 -42z" />
<glyph unicode="&#xea;" d="M97 577l150 113l148 -113l-48 -52l-100 84l-102 -84zM255 -6q-53 0 -93.5 17.5t-67.5 49t-41 73.5t-14 92q0 49 13.5 92.5t39.5 76.5t65.5 52t90.5 19q46 0 79 -16t54 -44t31 -65.5t10 -79.5v-44h-303q1 -31 10.5 -58.5t27 -48.5t43.5 -33t59 -12q34 0 64 9.5t51 20.5 q1 -5 4 -10q2 -5 5 -10t6 -11q6 -14 15 -32q-23 -14 -61 -26t-88 -12zM343 279q0 23 -6 44.5t-18 38t-30.5 26.5t-44.5 10q-29 0 -50 -11.5t-36 -29t-23.5 -38.5t-11.5 -40h220z" />
<glyph unicode="&#xeb;" d="M158 555q-23 0 -38.5 15.5t-15.5 38.5q0 22 15.5 38t38.5 16t38.5 -16t15.5 -38q0 -23 -15.5 -38.5t-38.5 -15.5zM333 555q-23 0 -39 15.5t-16 38.5q0 22 16 38t39 16t38.5 -16t15.5 -38q0 -23 -15.5 -38.5t-38.5 -15.5zM255 -6q-53 0 -93.5 17.5t-67.5 49t-41 73.5 t-14 92q0 49 13.5 92.5t39.5 76.5t65.5 52t90.5 19q46 0 79 -16t54 -44t31 -65.5t10 -79.5v-44h-303q1 -31 10.5 -58.5t27 -48.5t43.5 -33t59 -12q34 0 64 9.5t51 20.5q1 -5 4 -10q2 -5 5 -10t6 -11q6 -14 15 -32q-23 -14 -61 -26t-88 -12zM343 279q0 23 -6 44.5t-18 38 t-30.5 26.5t-44.5 10q-29 0 -50 -11.5t-36 -29t-23.5 -38.5t-11.5 -40h220z" />
<glyph unicode="&#xef;" horiz-adv-x="249" d="M85 460h78v-460h-78v460zM38 555q-23 0 -38.5 15.5t-15.5 38.5q0 22 15.5 38t38.5 16t38.5 -16t15.5 -38q0 -23 -15.5 -38.5t-38.5 -15.5zM213 555q-23 0 -39 15.5t-16 38.5q0 22 16 38t39 16t38.5 -16t15.5 -38q0 -23 -15.5 -38.5t-38.5 -15.5z" />
<glyph unicode="&#xf1;" horiz-adv-x="507" d="M411 625q-6 -12 -15 -25.5t-21.5 -24t-28 -17.5t-33.5 -7q-16 0 -30.5 6t-28 13.5l-26 14t-24.5 6.5q-20 0 -33 -10t-23 -30l-43 33q13 30 38.5 51.5t57.5 21.5q16 0 30.5 -6.5t28 -14t26.5 -14t26 -6.5q20 0 31 11t22 28zM74 460h79v-59q27 25 66 45t80 20q71 0 107 -36 t36 -89v-341h-78v319q0 42 -21 58.5t-52 16.5q-23 0 -45.5 -9t-41.5 -21t-32.5 -24t-18.5 -17v-323h-79v460z" />
<glyph unicode="&#xf4;" horiz-adv-x="511" d="M108 577l150 113l148 -113l-48 -52l-100 84l-102 -84zM258 -6q-57 0 -99.5 20.5t-70 54t-41 75.5t-13.5 85q0 39 13 81t40 77t69 57.5t101 22.5t101 -22.5t68.5 -57.5t38.5 -76.5t12 -80.5t-12.5 -81t-39 -76.5t-68 -56.5t-99.5 -22zM256 65q24 0 48.5 9t45 29t33.5 51 t13 76t-13.5 76t-33.5 50.5t-44.5 28.5t-46.5 9q-21 0 -46 -8.5t-46.5 -27.5t-36 -51t-14.5 -78q0 -42 12.5 -73t33 -51t45.5 -30t50 -10z" />
<glyph unicode="&#xf6;" horiz-adv-x="511" d="M169 555q-23 0 -38.5 15.5t-15.5 38.5q0 22 15.5 38t38.5 16t38.5 -16t15.5 -38q0 -23 -15.5 -38.5t-38.5 -15.5zM344 555q-23 0 -39 15.5t-16 38.5q0 22 16 38t39 16t38.5 -16t15.5 -38q0 -23 -15.5 -38.5t-38.5 -15.5zM258 -6q-57 0 -99.5 20.5t-70 54t-41 75.5 t-13.5 85q0 39 13 81t40 77t69 57.5t101 22.5t101 -22.5t68.5 -57.5t38.5 -76.5t12 -80.5t-12.5 -81t-39 -76.5t-68 -56.5t-99.5 -22zM256 65q24 0 48.5 9t45 29t33.5 51t13 76t-13.5 76t-33.5 50.5t-44.5 28.5t-46.5 9q-21 0 -46 -8.5t-46.5 -27.5t-36 -51t-14.5 -78 q0 -42 12.5 -73t33 -51t45.5 -30t50 -10z" />
<glyph unicode="&#x153;" horiz-adv-x="806" d="M759 32q-25 -14 -63 -26t-88 -12q-63 0 -107.5 25.5t-70.5 67.5q-26 -39 -69.5 -66t-106.5 -27q-57 0 -99 20.5t-70 54t-41.5 75.5t-13.5 85q0 39 13 81t40.5 77t69.5 57.5t100 22.5q66 0 109.5 -27t69.5 -68q26 43 67.5 68.5t101.5 25.5q46 0 79.5 -16t55 -44 t31.5 -65.5t10 -79.5v-44h-303q1 -31 10 -58.5t26.5 -48.5t43 -33t58.5 -12q35 0 65 9.5t50 20.5l5 -10q2 -5 5 -10t6 -11zM252 65q22 0 46.5 8.5t45.5 27.5t34.5 50.5t13.5 78.5q0 45 -13 76t-33.5 50.5t-45 28.5t-46.5 9q-21 0 -46 -8.5t-46.5 -27.5t-35.5 -51t-14 -78 q0 -42 12.5 -73t32.5 -51t45 -30t50 -10zM697 279q0 23 -6 44.5t-18 38t-31 26.5t-44 10q-29 0 -50.5 -11.5t-36 -29t-23 -38.5t-11.5 -40h220z" />
<glyph unicode="," horiz-adv-x="228" d="M93 94h97l-95 -183h-60z" />
<glyph unicode="." horiz-adv-x="228" d="M114 -6q-23 0 -40 17t-17 40t17 40t40 17t40 -17t17 -40t-17 -40t-40 -17z" />
<glyph unicode=":" horiz-adv-x="228" d="M114 -6q-24 0 -41 17t-17 41q0 25 17 42t41 17t41 -17t17 -42q0 -24 -16.5 -41t-41.5 -17zM114 344q-24 0 -41 17.5t-17 41.5t17 41t41 17t41 -17t17 -41t-16.5 -41.5t-41.5 -17.5z" />
<glyph unicode=";" horiz-adv-x="228" d="M120 349q-24 0 -40.5 17.5t-16.5 41.5t16.5 41t40.5 17q25 0 42 -17t17 -41t-17 -41.5t-42 -17.5zM81 94h98l-95 -183h-61z" />
<glyph unicode="?" horiz-adv-x="409" d="M112 355q32 0 60 7.5t48.5 23.5t32.5 40.5t12 58.5t-12 59t-33 41t-49 24t-59 8v76q49 0 93 -12t77 -37.5t52 -65t19 -94.5q0 -50 -18.5 -85t-44 -57.5t-52.5 -33.5t-45 -13v-119h-81v179zM153 -6q-23 0 -39 16t-16 39t16 38.5t39 15.5t39 -15.5t16 -38.5t-16 -39 t-39 -16z" />
<glyph unicode="&#xbf;" horiz-adv-x="409" d="M299 -6q-50 1 -93.5 13t-76.5 37.5t-52 64.5t-19 94q0 50 18 85t43.5 57.5t53 33.5t45.5 13v120h81v-180q-32 0 -60 -7.5t-48.5 -23.5t-32.5 -40t-12 -58q0 -35 12 -59.5t33 -41t48.5 -24t59.5 -7.5v-77zM259 584q-23 0 -39 16t-16 39t16 39t39 16t39 -16t16 -39t-16 -39 t-39 -16z" />
<glyph unicode="!" horiz-adv-x="306" d="M153 -6q-23 0 -39 16t-16 39t16 38.5t39 15.5t39 -15.5t16 -38.5t-16 -39t-39 -16zM112 688h82v-514h-82v514z" />
<glyph unicode="&#xa1;" horiz-adv-x="306" d="M153 585q-23 0 -39 15.5t-16 38.5t16 39t39 16t39 -16t16 -39t-16 -38.5t-39 -15.5zM113 513h81v-513h-81v513z" />
<glyph unicode="-" horiz-adv-x="299" d="M18 380h263v-76h-263v76z" />
<glyph unicode="&#x2013;" horiz-adv-x="500" d="M30 376h440v-67h-440v67z" />
<glyph unicode="&#x2014;" horiz-adv-x="756" d="M30 377h696v-67h-696v67z" />
<glyph unicode="_" horiz-adv-x="500" d="M0 -84h500v-76h-500v76z" />
<glyph unicode="@" horiz-adv-x="799" d="M401 -122q-69 0 -131 23t-109.5 69t-75 114.5t-27.5 159.5q0 85 29.5 151.5t78.5 111.5t113 68.5t134 23.5q68 0 128 -21.5t104.5 -62t70 -98.5t25.5 -132q0 -78 -16.5 -127.5t-42.5 -77.5t-57.5 -38.5t-61.5 -10.5q-13 0 -27.5 3.5t-28 9.5t-24.5 14t-18 18 q-20 -15 -48.5 -30t-64.5 -15q-53 0 -82 29t-29 74q0 31 13 53.5t36 38t54.5 26.5t68.5 20l45 10v31q0 35 -17 48.5t-48 13.5q-15 0 -30 -5t-29 -11.5t-25 -14l-17 -11.5l-33 48q23 18 58.5 37.5t80.5 19.5q27 0 50.5 -6t40 -19.5t26 -35.5t9.5 -54v-214q7 -6 17.5 -12.5 t27.5 -6.5q18 0 37 9.5t34.5 31.5t25.5 59t10 93q0 55 -19.5 101.5t-54 81t-82.5 54t-105 19.5q-64 0 -117.5 -21.5t-91.5 -60t-59.5 -91.5t-21.5 -117q0 -51 14 -106t46.5 -100t84.5 -74t129 -29q37 0 58 6t38 12l23 -55q-20 -8 -53 -16.5t-64 -8.5zM362 93q20 0 47.5 13.5 t47.5 27.5v92l-37 -8q-21 -5 -41 -12t-35.5 -16.5t-25 -21t-9.5 -26.5q0 -26 15 -37.5t38 -11.5z" />
<glyph unicode="/" horiz-adv-x="338" d="M-3 4l272 706l71 -25l-272 -706z" />
<glyph unicode="\" horiz-adv-x="337" d="M-3 685l71 25l272 -706l-71 -25z" />
<glyph unicode="|" horiz-adv-x="236" d="M77 761h79v-939h-79v939z" />
<glyph unicode="(" horiz-adv-x="372" d="M268 -89q-41 33 -74 83t-57 108t-37 120t-13 121q0 66 15.5 131.5t41 123.5t58.5 103.5t68 72.5l50 -50q-68 -67 -110 -163.5t-42 -217.5q0 -41 10.5 -94.5t30.5 -107t48 -100t63 -73.5l-52 -57v0z" />
<glyph unicode=")" horiz-adv-x="372" d="M52 -32q35 27 63.5 73.5t48 100t30 107t10.5 94.5q0 121 -42 217.5t-110 163.5l50 50q35 -27 68 -72.5t58.5 -103.5t41 -123.5t15.5 -131.5q0 -59 -13 -121t-37 -120t-57.5 -108t-73.5 -83z" />
<glyph unicode="[" horiz-adv-x="287" d="M68 765h201v-70h-121v-699h121v-71h-201v840z" />
<glyph unicode="]" horiz-adv-x="287" d="M18 -4h121v699h-121v70h201v-840h-201v71z" />
<glyph unicode="{" horiz-adv-x="328" d="M260 -72q-73 0 -105.5 33t-32.5 99v149q0 26 -3 45.5t-12.5 32.5t-28.5 19.5t-50 6.5v67q31 0 50 8t28.5 22.5t12.5 35.5t3 47v144q0 132 138 132h38v-75h-35q-22 0 -34.5 -6.5t-18.5 -18t-7.5 -27.5t-1.5 -36v-126q0 -23 -2.5 -43.5t-10 -37.5t-21 -31t-36.5 -23 q23 -6 37 -18t21.5 -28t9.5 -35.5t2 -41.5v-130q0 -17 1.5 -33t7.5 -28.5t18.5 -20t34.5 -7.5h35v-75h-38v0z" />
<glyph unicode="}" horiz-adv-x="328" d="M31 2h35q22 0 34.5 7t18.5 19t7.5 28t1.5 33v136q0 22 2.5 41.5t10 35.5t21 28t36.5 18q-23 9 -36.5 23t-21 31t-10 37.5t-2.5 43.5v123q0 20 -1.5 36t-7.5 27.5t-18.5 18t-34.5 6.5h-35v75h38q71 0 104.5 -32.5t33.5 -99.5v-141q0 -26 3 -47t12.5 -35.5t28 -22.5 t50.5 -8v-67q-31 0 -49.5 -7t-28.5 -19.5t-13 -32t-3 -45.5v-153q0 -66 -32.5 -99t-105.5 -33h-38v75z" />
<glyph unicode="&#xa7;" horiz-adv-x="458" d="M228 -122q-68 0 -109.5 18.5t-74.5 46.5l47 60q13 -10 27 -19t30.5 -16t36 -11t44.5 -4q19 0 37 5t32.5 14t23 22t8.5 30q0 26 -21.5 44t-53.5 33t-69 30.5t-69 36.5t-53.5 50t-21.5 72q0 31 11 55.5t25.5 43t29.5 30t23 16.5q-10 6 -23 15.5t-24.5 23t-19.5 32.5t-8 45 q0 31 12 57t35 45t55.5 30t73.5 11q30 0 52 -4t40 -11t33.5 -15.5t31.5 -18.5l-45 -63q-17 12 -42 24t-68 12q-41 0 -67.5 -16t-26.5 -48q0 -24 20 -41t50.5 -31l65.5 -29t65.5 -35t50.5 -48.5t20 -69.5q0 -28 -10.5 -50.5t-25.5 -40t-32 -30t-30 -20.5l27 -16t32.5 -25.5 t27 -37t11.5 -49.5q0 -33 -13 -61.5t-37 -48.5t-58 -31.5t-76 -11.5zM238 196q13 6 29 16t30 22t23.5 27t9.5 32q0 23 -14.5 40t-35 29t-42.5 20.5t-36 14.5q-8 -3 -21 -11.5t-26 -21.5t-22 -30t-9 -38q0 -22 13.5 -38t31.5 -28t37.5 -20t31.5 -14z" />
<glyph unicode="&#x2022;" horiz-adv-x="486" d="M243 149q-30 0 -57 11.5t-47 31.5t-31.5 46.5t-11.5 56.5t11.5 57t31.5 47t47 31.5t57 11.5t57 -11.5t47 -31.5t31.5 -47t11.5 -57t-11.5 -56.5t-31.5 -46.5t-47 -31.5t-57 -11.5z" />
<glyph unicode="#" horiz-adv-x="662" d="M157 198h-89v71h100l21 156h-95v71h105l26 192h78l-27 -192h151l27 192h77l-27 -192h90v-71h-99l-21 -156h96v-71h-107l-27 -198h-80l28 198h-149l-28 -198h-78zM395 269l21 156h-150l-21 -156h150z" />
<glyph unicode="%" horiz-adv-x="771" d="M186 342q-33 0 -61.5 12t-49.5 34.5t-33 55.5t-12 74q0 40 12 73t33.5 55.5t50.5 35t63 12.5q33 0 61.5 -12t49 -35t32 -55.5t11.5 -73.5t-12.5 -74t-33.5 -55.5t-49.5 -34.5t-61.5 -12zM187 409q31 0 54 28t23 82q0 55 -23 82.5t-53 27.5q-31 0 -54.5 -27.5t-23.5 -82.5 q0 -52 22.5 -81t54.5 -29zM579 -6q-33 0 -61.5 12t-49.5 34.5t-33 55.5t-12 74q0 40 12 72.5t33.5 55t50.5 35t64 12.5q67 0 110.5 -46.5t43.5 -129.5q0 -41 -12.5 -73.5t-34 -55t-50 -34.5t-61.5 -12zM580 60q31 0 54 28t23 82q0 55 -22.5 82.5t-53.5 27.5q-30 0 -54 -27.5 t-24 -82.5q0 -52 23 -81t54 -29zM181 -3l338 725l62 -28l-339 -727z" />
<glyph unicode="&#x2030;" horiz-adv-x="1114" d="M186 342q-33 0 -61.5 12t-49.5 34.5t-33 55.5t-12 74q0 40 12 73t33.5 55.5t50.5 35t63 12.5q33 0 61.5 -12t49 -35t32 -55.5t11.5 -73.5t-12.5 -74t-33.5 -55.5t-49.5 -34.5t-61.5 -12zM187 409q31 0 54 28t23 82q0 55 -23 82.5t-53 27.5q-31 0 -54.5 -27.5t-23.5 -82.5 q0 -52 22.5 -81t54.5 -29zM579 -6q-33 0 -61.5 12t-49.5 34.5t-33 55.5t-12 74q0 40 12 72.5t33.5 55t50.5 35t64 12.5q67 0 110.5 -46.5t43.5 -129.5q0 -41 -12.5 -73.5t-34 -55t-50 -34.5t-61.5 -12zM580 60q31 0 54 28t23 82q0 55 -22.5 82.5t-53.5 27.5q-30 0 -54 -27.5 t-24 -82.5q0 -52 23 -81t54 -29zM927 -6q-33 0 -61.5 12t-49.5 34.5t-33 55.5t-12 74q0 40 12 72.5t33.5 55t50.5 35t63 12.5q67 0 110.5 -46.5t43.5 -129.5q0 -41 -12.5 -73.5t-33.5 -55t-49.5 -34.5t-61.5 -12zM928 60q31 0 53.5 28t22.5 82q0 55 -22.5 82.5t-52.5 27.5 q-31 0 -54.5 -27.5t-23.5 -82.5q0 -52 22.5 -81t54.5 -29zM177 -2l338 726l67 -31l-338 -726z" />
<glyph unicode="&#x2020;" horiz-adv-x="514" d="M213 394h-186v70h185v228h82v-228h192v-69h-192v-509h-81v508z" />
<glyph unicode="'" horiz-adv-x="208" d="M63 721h82l-12 -180h-59z" />
<glyph unicode="&#x22;" horiz-adv-x="314" d="M48 721h82l-12 -180h-59zM184 721h82l-13 -180h-58z" />
<glyph unicode="&#x201c;" horiz-adv-x="354" d="M124 723h67l-72 -200h-78zM257 723h67l-72 -200h-79z" />
<glyph unicode="&#x201d;" horiz-adv-x="354" d="M114 724h78l-83 -200h-67zM246 724h79l-84 -200h-67z" />
<glyph unicode="&#x2018;" horiz-adv-x="218" d="M124 723h67l-72 -200h-78z" />
<glyph unicode="&#x2019;" horiz-adv-x="218" d="M109 722h79l-84 -200h-67z" />
<glyph unicode="&#x203a;" horiz-adv-x="316" d="M66 342l126 176l58 -38l-100 -138l100 -137l-58 -39z" />
<glyph unicode="&#x2039;" horiz-adv-x="316" d="M66 205l101 137l-101 138l59 38l125 -176l-125 -176z" />
<glyph unicode="&#xab;" horiz-adv-x="491" d="M66 342l126 176l58 -38l-100 -138l100 -137l-58 -39zM240 342l126 176l59 -38l-101 -138l101 -137l-59 -39z" />
<glyph unicode="&#xbb;" horiz-adv-x="491" d="M66 205l101 137l-101 138l59 38l125 -176l-125 -176zM240 205l101 137l-101 138l60 38l125 -176l-125 -176z" />
<glyph unicode="*" horiz-adv-x="404" d="M89 395l62 90l-108 -8v75l107 -8l-61 89l66 37l46 -97l47 98l66 -38l-62 -89l109 8v-75l-108 9l61 -91l-66 -38l-46 99l-47 -98zM201 470q18 0 31 13t13 31t-13 31t-31 13t-31 -13t-13 -31t13 -31t31 -13z" />
<glyph unicode="+" horiz-adv-x="495" d="M207 308h-188v74h188v186h81v-186h188v-74h-188v-192h-81v192z" />
<glyph unicode="&#x3c;" horiz-adv-x="490" d="M68 332l298 252l53 -55l-235 -197l238 -186l-55 -56z" />
<glyph unicode="=" horiz-adv-x="572" d="M70 292h432v-72h-432v72zM70 462h432v-72h-432v72z" />
<glyph unicode="&#x3e;" horiz-adv-x="490" d="M68 146l239 186l-236 196l53 56l298 -252l-300 -242z" />
<glyph unicode="&#x26;" horiz-adv-x="667" d="M267 -7q-49 0 -89 14.5t-69 41.5t-45 64.5t-16 82.5q0 40 13.5 70.5t32 51.5t37 33t28.5 17q-19 10 -36.5 25t-30.5 35t-21 45t-8 57q0 37 14.5 67t41 51.5t62.5 33.5t79 12q49 0 83.5 -12t67.5 -37l-38 -62q-24 16 -51 25.5t-64 9.5q-45 0 -75.5 -25t-30.5 -67 q0 -35 14 -57.5t35 -35.5t45.5 -18t45.5 -5h347v-76h-107v-334h-85v50l-25.5 -18t-36 -18.5t-50.5 -14.5t-68 -6zM275 71q36 0 64.5 8t50.5 18.5t36.5 21.5t20.5 16v199h-193q-19 -6 -39.5 -16t-37 -25.5t-27.5 -37.5t-11 -53q0 -32 12 -56.5t31 -41t43.5 -25t49.5 -8.5z " />
<glyph unicode="0" horiz-adv-x="555" d="M280 -6q-56 0 -99.5 25t-73.5 71t-45.5 110.5t-15.5 143.5q0 82 16 147t46.5 110t74 69t98.5 24q52 0 94.5 -23.5t72.5 -68.5t46 -110t16 -149t-16.5 -149t-46.5 -109.5t-72.5 -67.5t-94.5 -23zM278 70q38 0 65.5 21.5t45.5 58.5t26.5 87t8.5 107t-8 107t-25.5 87t-45 58 t-65.5 21q-42 0 -70 -23t-45.5 -61t-24.5 -87.5t-7 -101.5q0 -49 7 -98t24 -88t45 -63.5t69 -24.5z" />
<glyph unicode="1" horiz-adv-x="356" d="M184 591l-136 -81l-41 63l190 115h72v-688h-85v591z" />
<glyph unicode="2" horiz-adv-x="472" d="M30 66q25 21 62 56t77 78.5t78 92.5t65 98q33 58 33 111q0 19 -6 39.5t-19.5 37.5t-35.5 27.5t-53 10.5q-24 0 -44.5 -7t-37 -16.5t-29 -21t-20.5 -20.5l-50 51q25 29 51 47t50.5 27.5t46.5 13t39 3.5q46 0 82.5 -14t62 -39t39 -60t13.5 -77q0 -38 -13.5 -77t-36.5 -77 q-23 -39 -52.5 -77t-61 -73t-62.5 -65.5l-56 -55.5h277v-79h-374z" />
<glyph unicode="3" horiz-adv-x="467" d="M196 -7q-57 0 -99.5 16t-72.5 37l35 69q26 -17 64 -31t77 -14q57 0 92.5 32.5t35.5 97.5q0 36 -14.5 60t-38 38.5t-53.5 20t-60 5.5h-34v73h35q25 0 51.5 7t48 22t35.5 38t14 54q0 42 -29 71t-76 29q-41 0 -71 -10.5t-55 -24.5l-32 63q37 23 76.5 35.5t83.5 12.5 q42 0 77.5 -11.5t61 -33t39.5 -52.5t14 -70q0 -60 -30.5 -101.5t-79.5 -58.5q23 -7 46 -19.5t41 -32.5t29.5 -49.5t11.5 -70.5q0 -43 -16 -80t-45.5 -64t-70.5 -42.5t-91 -15.5z" />
<glyph unicode="4" horiz-adv-x="503" d="M302 196h-264l-35 62l293 430h91v-415h82v-77h-82v-196h-85v196zM302 273v299l-199 -299h199z" />
<glyph unicode="5" horiz-adv-x="468" d="M198 -6q-57 0 -98.5 13.5t-76.5 35.5l39 72q12 -7 27.5 -15t33.5 -15t37 -11.5t39 -4.5q67 0 104 35.5t37 106.5q0 40 -11 66t-29.5 41.5t-44.5 22t-56 6.5q-26 0 -54 -3.5t-45 -6.5l-38 44l37 307h310v-79h-241l-21 -191q19 2 33.5 4t31.5 2q47 0 87 -11t69 -36 t45.5 -64.5t16.5 -97.5q0 -44 -15 -83.5t-44 -70.5t-72.5 -49t-100.5 -18z" />
<glyph unicode="6" horiz-adv-x="503" d="M257 -7q-56 0 -97 18t-67.5 51.5t-39.5 80t-13 103.5q0 80 25.5 150t70.5 128t106 102t132 72l35 -69q-88 -36 -148.5 -89.5t-103.5 -139.5q25 6 50.5 10t51.5 4q45 0 83 -14t65 -40t42.5 -63.5t15.5 -85.5q0 -49 -15 -89.5t-42 -69t-65.5 -44t-85.5 -15.5zM257 66 q30 0 52.5 11t38 29.5t23 44t7.5 55.5q0 27 -9 51t-25 42.5t-38.5 29.5t-49.5 11q-29 0 -61.5 -5.5t-59.5 -13.5q-5 -21 -6.5 -42.5t-1.5 -42.5q0 -32 7.5 -62.5t23 -54.5t40 -38.5t59.5 -14.5z" />
<glyph unicode="7" horiz-adv-x="428" d="M62 18l261 583h-310v82h379l33 -55l-282 -635z" />
<glyph unicode="8" horiz-adv-x="502" d="M251 -6q-42 0 -80.5 13.5t-67.5 38.5t-46 60t-17 77q0 36 9.5 63.5t26.5 49.5t40 37.5t50 27.5q-45 22 -77 59t-32 93q0 30 11 62t35 58.5t61 43.5t89 17q48 0 84.5 -15.5t60.5 -40.5t36 -56.5t12 -62.5t-9 -56t-24 -44.5t-35 -34.5t-41 -25q22 -9 44.5 -23t40.5 -35 t29 -49t11 -64q0 -42 -16 -77.5t-44 -61.5t-66.5 -40.5t-84.5 -14.5zM251 67q27 0 50 8.5t40.5 23.5t27 36.5t9.5 47.5q0 30 -11 52t-29.5 38.5t-42.5 28t-49 21.5q-24 -8 -46 -20t-39 -28.5t-27 -37.5t-10 -47q0 -22 9.5 -44t26.5 -39.5t40 -28.5t51 -11zM261 393 q48 18 73.5 45.5t25.5 73.5q0 30 -10 50.5t-26 33t-35 18.5t-37 6q-19 0 -38.5 -6t-35.5 -18.5t-26 -32t-10 -45.5q0 -25 9.5 -44t25.5 -34t37.5 -26.5t46.5 -20.5z" />
<glyph unicode="9" horiz-adv-x="503" d="M93 58q88 36 149 89.5t104 139.5l-51 -9.5t-51 -4.5q-45 0 -83 14t-65.5 40t-43 64t-15.5 86q0 49 15 88.5t42.5 68t66 44t85.5 15.5q56 0 97 -18t67.5 -51t39.5 -79.5t13 -103.5q0 -80 -26 -150t-71 -127.5t-106 -102t-131 -72.5zM248 348q28 0 60.5 5t58.5 13 q5 21 7 42.5t2 42.5q0 32 -7.5 62.5t-23 54t-40.5 38t-59 14.5q-30 0 -52.5 -10.5t-37.5 -29t-23 -44t-8 -54.5q0 -27 9 -51.5t25 -42.5t38.5 -29t50.5 -11z" />
<glyph unicode="&#x2122;" horiz-adv-x="857" d="M387 688h70l126 -287l140 287h63l19 -400l-66 -2l-12 271l-115 -242h-60l-107 242l-17 -271l-67 2zM146 626h-130v62h325v-62h-127v-337h-68v337z" />
<glyph unicode="&#xae;" horiz-adv-x="530" d="M259 495h-16v-73h-39v201h50q15 0 29.5 -3t26 -9.5t19 -18t7.5 -28.5q0 -24 -9 -38t-27 -22q14 -20 24 -36.5t23 -34.5l-38 -17zM265 330q-38 0 -71.5 14.5t-58 39.5t-39 58t-14.5 71t14.5 72t39 59t58 39.5t71.5 14.5t71.5 -14.5t58.5 -39.5t39.5 -59t14.5 -72 t-14.5 -71t-39.5 -58t-58.5 -39.5t-71.5 -14.5zM265 368q30 0 56 11.5t45.5 31t30.5 46t11 56.5q0 31 -11 57.5t-30.5 46.5t-45.5 31.5t-56 11.5t-56 -11.5t-45.5 -31.5t-30.5 -46.5t-11 -57.5q0 -30 11 -56.5t30.5 -46t45.5 -31t56 -11.5zM256 529q13 0 20.5 3.5t11.5 9 t5 11t1 9.5q0 12 -9.5 19.5t-21.5 7.5h-20v-60h13z" />
<glyph unicode="&#xa9;" horiz-adv-x="788" d="M413 134q-37 0 -73 13.5t-64 39t-45.5 63.5t-17.5 86q0 46 17 83.5t45 63.5t65 40.5t77 14.5q59 0 103 -27l-29 -52q-32 19 -79 19q-23 0 -46 -9t-42.5 -27t-31.5 -44.5t-12 -61.5q0 -31 10 -57t28 -45t42.5 -30t52.5 -11q23 0 44 5t38 13l28 -51q-23 -13 -49 -19.5 t-61 -6.5zM406 -23q-74 0 -139.5 28t-114.5 77t-77 114t-28 139t28 139.5t77 114t114.5 77t139.5 28.5t139.5 -28.5t114 -77t77 -114t28.5 -139.5t-28.5 -139t-77 -114t-114 -77t-139.5 -28zM406 36q61 0 114.5 23.5t93 64.5t62.5 95t23 116t-23 116.5t-62.5 95.5t-93 64.5 t-114.5 23.5t-114.5 -23.5t-93 -64.5t-62.5 -95.5t-23 -116.5t23 -116t62.5 -95t93 -64.5t114.5 -23.5z" />
<glyph unicode="&#x20ac;" horiz-adv-x="492" d="M298 -6q-65 0 -112.5 23.5t-78.5 68.5t-45.5 110t-14.5 148q0 79 17 144t49.5 110.5t81 70.5t111.5 25q53 0 87.5 -16t57.5 -36l-50 -61q-14 11 -38 23.5t-65 12.5q-61 0 -101.5 -44t-54.5 -132h230v-60h-237q-1 -9 -1 -18v-19q0 -11 0.5 -22t1.5 -22h236v-60h-229 q14 -84 52.5 -127t101.5 -43q38 0 69 14t47 27l47 -57q-25 -22 -62.5 -41t-99.5 -19z" />
<glyph unicode="$" horiz-adv-x="494" d="M222 -6q-20 1 -41.5 4.5t-43.5 12t-44.5 22t-44.5 35.5l51 57q29 -27 62.5 -39.5t60.5 -14.5v256q-34 15 -62.5 31t-49.5 38t-33 52.5t-12 75.5q0 32 12.5 60t34.5 50t50 36.5t60 20.5v61h58v-58q38 -2 73.5 -12.5t82.5 -40.5l-43 -65q-20 12 -35.5 20t-28.5 12t-24.5 6 t-24.5 2v-228q34 -16 64.5 -32.5t53 -39.5t35.5 -54.5t13 -77.5q0 -36 -13 -67t-35.5 -55.5t-53 -41t-64.5 -22.5v-65h-58v61zM280 79q35 10 57.5 36.5t22.5 64.5q0 47 -23 73t-57 45v-219zM222 610q-13 -4 -26 -11.5t-23.5 -18.5t-17 -26.5t-6.5 -34.5q0 -42 20.5 -64.5 t52.5 -39.5v195z" />
<glyph unicode="&#xa2;" horiz-adv-x="417" d="M222 -3q-42 6 -76 26.5t-57 51t-35.5 69.5t-12.5 83q0 50 14 90.5t38.5 70.5t57.5 49t71 26v60h58v-58q36 -2 65.5 -12.5t52.5 -25.5l-37 -63q-16 11 -37 19t-44 10v-326q28 2 51 11.5t37 19.5l38 -62q-20 -12 -52 -25t-74 -16v-62h-58v64zM222 387q-47 -14 -74 -56 t-27 -104q0 -63 29 -102t72 -52v314z" />
<glyph unicode="&#xa3;" horiz-adv-x="490" d="M62 61q46 23 74.5 69.5t28.5 103.5q0 19 -1 39.5t-3 39.5h-101v75h89q-2 25 -7 50.5t-5 52.5q0 46 14.5 83.5t40.5 63.5t61.5 40.5t77.5 14.5q38 0 68 -8t50 -20l-30 -70q-17 9 -37 15.5t-49 6.5q-26 0 -46.5 -10t-34.5 -27t-21.5 -39t-7.5 -45q0 -29 4.5 -54.5 t8.5 -53.5h148v-75h-138q2 -26 3 -53.5t-4 -49.5q-6 -33 -18 -68.5t-41 -66.5h281v-75h-405v61z" />
<glyph unicode="&#xa5;" horiz-adv-x="570" d="M249 193h-191v67h191v72h-191v65h138l-178 265l79 31l197 -294l196 294l76 -32l-179 -264h133v-65h-186v-72h186v-67h-186v-193h-85v193z" />
<glyph unicode="&#xa4;" horiz-adv-x="502" d="M37 179l68 66q-17 20 -26.5 48t-9.5 59t9 59t26 48l-67 67l40 39l70 -69q21 13 48.5 21.5t55.5 8.5t54.5 -6.5t49.5 -22.5l69 70l41 -42l-66 -67q17 -19 25.5 -47t8.5 -59t-9.5 -59.5t-26.5 -48.5l67 -66l-40 -42l-69 70q-23 -12 -49.5 -19.5t-54.5 -7.5q-58 0 -103 28 l-71 -69zM251 240q58 0 85 32.5t27 79.5q1 46 -27 79.5t-85 33.5t-85 -33t-28 -80q0 -46 28.5 -79t84.5 -33z" />
<glyph unicode="B" horiz-adv-x="545" d="M84 688h188q29 0 63 -6.5t63.5 -25.5t49.5 -52t20 -87q0 -35 -10.5 -60.5t-25 -43.5t-29.5 -29t-25 -17q14 -4 33 -16t36.5 -32.5t29.5 -49.5t12 -67q0 -57 -21 -95.5t-55 -62t-77.5 -34t-89.5 -10.5h-162v688zM242 77q33 0 62 5.5t50.5 19.5t34 39.5t12.5 64.5 q0 56 -41 86.5t-102 30.5h-89v-247zM241 399q73 0 106.5 34t33.5 82q0 28 -10 46.5t-27.5 29.5t-40 15.5t-46.5 4.5h-88v-212h72z" />
<glyph unicode="A" horiz-adv-x="639" d="M13 10l273 678h73l267 -677l-87 -16l-84 219h-274l-87 -221zM426 289l-107 279l-108 -279h215z" />
</font>
</defs>
</svg>
