<svg width="144" height="144" viewBox="0 0 144 144" fill="none" xmlns="http://www.w3.org/2000/svg">
<path d="M95.2751 111.288H56.7822C48.1975 111.288 43.9052 111.288 40.662 109.502C38.1568 108.123 36.1017 106.026 34.7499 103.47C33 100.161 33 95.7812 33 87.022V60.0617C33 52.918 36.0027 46.1174 41.2467 41.3842C41.4244 45.01 44.3574 47.8567 47.9154 47.8567H89.1473C97.732 47.8567 102.024 47.8567 105.268 49.6422C107.773 51.0214 109.828 53.1183 111.18 55.6745C112.463 58.1011 112.805 61.1034 112.896 65.9864C112.346 65.9798 111.728 65.9798 111.026 65.9798H95.8018C88.4445 65.9798 82.4802 72.0653 82.4802 79.5721C82.4802 87.079 88.4445 93.1645 95.8018 93.1645H111.026C111.742 93.1645 112.371 93.1645 112.93 93.1575V93.2744C112.93 96.179 112.93 97.6312 112.731 98.8451C111.708 105.122 106.887 110.041 100.735 111.086C99.5452 111.288 98.1218 111.288 95.2751 111.288Z" fill="#222222"/>
<path fill-rule="evenodd" clip-rule="evenodd" d="M96.4361 69.8634C91.1809 69.8634 86.9207 74.2101 86.9207 79.5722C86.9207 84.9342 91.1809 89.281 96.4361 89.281H110.709C112.183 89.281 112.92 89.281 113.533 89.1566C116.049 88.6459 118.016 86.6387 118.517 84.0712C118.639 83.4459 118.639 82.694 118.639 81.1903V77.954C118.639 76.4503 118.639 75.6984 118.517 75.0732C118.016 72.5056 116.049 70.4985 113.533 69.9877C112.92 69.8634 112.183 69.8634 110.709 69.8634H96.4361ZM96.4361 82.8084C98.1878 82.8084 99.6079 81.3595 99.6079 79.5722C99.6079 77.7848 98.1878 76.3359 96.4361 76.3359C94.6843 76.3359 93.2643 77.7848 93.2643 79.5722C93.2643 81.3595 94.6843 82.8084 96.4361 82.8084Z" fill="#222222"/>
<path fill-rule="evenodd" clip-rule="evenodd" d="M55 35.5594C47.6728 35.5653 43.8318 35.6623 40.8645 37.235C38.1997 38.6474 36.0269 40.8644 34.6427 43.5833C33 46.8099 33 51.0488 33 59.5267V75.022C33 83.4999 33 87.7389 34.6427 90.9654C35.7702 93.1801 37.4209 95.0617 39.4344 96.4467C39.3436 94.9914 39.3436 93.193 39.3436 90.8732V56.6206C39.3436 51.4601 39.3436 48.8799 40.3435 46.9159C41.1861 45.2609 42.5087 43.9114 44.1307 43.0517C46.0556 42.0315 48.5844 42.0315 53.6421 42.0315H55V35.5594ZM90 42.0315H98.631C102.682 42.0315 105.11 42.0315 106.905 42.5555C105.527 40.3051 103.579 38.465 101.259 37.235C98.7065 35.8822 95.5078 35.6213 90 35.571V42.0315Z" fill="#222222"/>
<mask id="mask0_122_693" style="mask-type:alpha" maskUnits="userSpaceOnUse" x="47" y="5" width="50" height="40">
<rect x="47.5903" y="5.78528" width="48.8458" height="38.8352" fill="#C4C4C4"/>
</mask>
<g mask="url(#mask0_122_693)">
<path fill-rule="evenodd" clip-rule="evenodd" d="M71.8546 59.1837C84.6248 59.1837 94.9771 48.621 94.9771 35.5913C94.9771 22.5616 84.6248 11.9989 71.8546 11.9989C59.0845 11.9989 48.7322 22.5616 48.7322 35.5913C48.7322 48.621 59.0845 59.1837 71.8546 59.1837ZM74.5822 18.5751H68.8545V23.3964H63.2126V49.9872H68.8545V55.8313H74.5822V49.9786C79.0383 49.7977 82.5724 46.7664 82.5724 42.1999C82.5724 39.5028 81.3065 37.4515 79.3706 36.198C80.7853 34.9444 81.6416 33.197 81.6416 30.9938C81.6416 26.7987 78.5715 23.9327 74.5822 23.4641V18.5751ZM75.6848 31.4496C75.6848 30.0821 74.7912 29.0944 73.4137 29.0944H69.1695V33.8048H73.4137C74.754 33.8048 75.6848 32.8171 75.6848 31.4496ZM69.1695 44.2892H74.1583C75.6475 44.2892 76.6155 43.2255 76.6155 41.744C76.6155 40.2626 75.6475 39.1989 74.1583 39.1989H69.1695V44.2892Z" fill="#222222"/>
</g>
</svg>
