<svg xmlns="http://www.w3.org/2000/svg" fill="none" viewBox="0 0 160 160">
  <path fill="url(#accelerate_svg__a)" fill-rule="evenodd" d="M135.037 63.793c0 22.448-17.401 40.121-38.24 40.121-20.838 0-38.24-17.672-38.24-40.122 0-22.448 17.402-40.12 38.24-40.12 20.839 0 38.24 17.672 38.24 40.121Zm-38.24 47.643a44.9 44.9 0 0 0 3.513-.138c1.16.091 2.332.138 3.515.138 25.276 0 45.763-21.329 45.763-47.643s-20.487-47.644-45.763-47.644c-1.181 0-2.352.047-3.511.139a44.6 44.6 0 0 0-3.517-.139c-25.276 0-45.762 21.331-45.762 47.644s20.486 47.643 45.762 47.643ZM76.13 42.186c11.425-11.894 29.91-11.896 41.329-.009 11.458 11.927 11.455 31.293-.007 43.224a1.754 1.754 0 1 0 2.531 2.432c12.767-13.289 12.771-34.802.008-48.088-12.802-13.326-33.588-13.322-46.393.007a1.755 1.755 0 1 0 2.532 2.433Zm-33.691 25.77a3.449 3.449 0 1 0-4.877-4.877L21.7 78.942a3.449 3.449 0 1 0 4.877 4.876l15.861-15.863Zm-8.276 33.102a3.448 3.448 0 1 0-4.878-4.876l-6.207 6.208a3.449 3.449 0 1 0 4.878 4.876l6.207-6.208Zm22.069 4.139a3.447 3.447 0 1 0-4.877-4.876l-19.31 19.31a3.447 3.447 0 1 0 4.877 4.876l19.31-19.31Zm17.24 13.793a3.449 3.449 0 1 0-4.876-4.876l-14.483 14.483a3.449 3.449 0 1 0 4.877 4.876l14.482-14.483Zm21.38 7.586a3.447 3.447 0 1 0-4.877-4.876l-5.516 5.517a3.447 3.447 0 1 0 4.876 4.876l5.518-5.517Zm-65.517 5.517a3.449 3.449 0 0 0-4.878-4.876l-2.068 2.069a3.449 3.449 0 0 0 4.878 4.876l2.068-2.069Z" clip-rule="evenodd"/>
  <defs>
    <linearGradient id="accelerate_svg__a" x1="30.5" x2="153.5" y1="20" y2="139" gradientUnits="userSpaceOnUse">
      <stop stop-color="#FFA842"/>
      <stop offset=".307" stop-color="#60BB49"/>
      <stop offset=".998" stop-color="#4CAB89"/>
    </linearGradient>
  </defs>
</svg>
