<svg xmlns="http://www.w3.org/2000/svg" fill="none" viewBox="0 0 500 500">
  <g clip-path="url(#bitnovo_svg__a)">
    <path fill="#1E2E53" fill-rule="evenodd" d="M355.459 383.44a71.462 71.462 0 0 0-1.64 66A224.837 224.837 0 0 1 68.72 382.992 224.842 224.842 0 0 1 232.71 25.826a224.842 224.842 0 0 1 236.219 172.909 224.837 224.837 0 0 1-19.37 154.865 71.679 71.679 0 0 0-94.1 29.84Zm-102.7 42.78 9.86-53.68c50.28 9.26 90.46 2.5 103.54-45.7 10.78-38.54-4.5-59.28-32.52-71.74 19.54-5.86 33.56-19.88 35.78-47.12 3.06-36.98-25.26-57.68-64.96-64.96l9.26-51.22-30.3-5.56-9.42 51.16-24.78-4.56 9.32-51.1-30.54-5.02-9.2 50.28-63.26-11-6 35.3 20.96 4a19.081 19.081 0 0 1 15.16 21.34l-22.46 123.48a18.458 18.458 0 0 1-20.48 14.86l-22.4-4.32-6.22 34.64 40.14 7.32 22.42 4.32-9.7 54 30.32 5.5 9.88-53.78 12 2.1c4.34.74 8.6 1.48 12.72 2.22l-10 53.82 30.88 5.42Zm-10.3-259-11.16 62 5.04.96c20.98 4.14 66.82 13.18 72.74-18.8 6-32.92-38.46-39.74-60.2-43.08-2.48-.42-4.64-.76-6.42-1.08Zm-16.8 92.98-12.24 68c1.72.3 3.74.7 6 1.14 25.22 4.92 80.46 15.72 86.76-19.5 6.54-36.14-47.34-44.44-73.24-48.42-2.78-.48-5.26-.86-7.28-1.22Z" clip-rule="evenodd"/>
    <path fill="#53C0DA" d="M418.001 361.32a56.736 56.736 0 0 0-36.031 12.825 56.732 56.732 0 0 0-14.137 70.614 56.736 56.736 0 0 0 66.515 27.604 56.743 56.743 0 0 0 40.016-59.875 56.745 56.745 0 0 0-16.363-34.568 56.881 56.881 0 0 0-40-16.6Z"/>
  </g>
  <defs>
    <clipPath id="bitnovo_svg__a">
      <path fill="#fff" d="M0 0h500v500H0z"/>
    </clipPath>
  </defs>
</svg>
