<svg xmlns="http://www.w3.org/2000/svg" fill="none" viewBox="0 0 40 40">
  <path fill="#EAFCEF" d="M39.942 19.97C39.942 31 31 39.943 19.97 39.943 8.94 39.942 0 31 0 19.97S8.941 0 19.97 0C31 0 39.943 8.941 39.943 19.97Z"/>
  <path stroke="#68C481" stroke-linecap="round" stroke-linejoin="round" stroke-width="1.65" d="M14.446 22.54a3.469 3.469 0 1 1 0 6.938 3.469 3.469 0 0 1 0-6.938Zm11.563 0a3.469 3.469 0 1 1 0 6.938 3.469 3.469 0 0 1 0-6.938Zm-5.782-11.563a3.469 3.469 0 1 1 0 6.938 3.469 3.469 0 0 1 0-6.938Z" clip-rule="evenodd"/>
</svg>
