<svg xmlns="http://www.w3.org/2000/svg" fill="none" viewBox="0 0 44 45">
  <g fill="#0086FB" clip-path="url(#btcDirect_svg__a)">
    <path d="M33.286 7.725 35.24.5h-5.665l-1.172 4.494c-1.042-.39-2.149-.65-3.253-.846L26.123.5H20.46l-.912 3.515c-4.883.65-9.376 3.19-12.37 7.16-6.251 8.136-4.689 19.852 3.45 26.1l-1.953 7.222h5.602l1.172-4.49c1.042.39 2.15.65 3.254.846l-.978 3.644h5.6l.976-3.514c4.884-.65 9.38-3.187 12.371-7.158 6.316-8.201 4.753-19.852-3.386-26.1ZM21.957 26.86a4.428 4.428 0 0 1-4.343-5.29 4.427 4.427 0 0 1 8.024-1.596c.487.728.747 1.584.747 2.46a4.39 4.39 0 0 1-4.428 4.426Zm14.977 14.385c0-.586-.391-.912-1.042-.912h-1.108v2.539h.651v-.716h.521l.39.717h.717l-.586-.782c.326-.13.52-.456.457-.846Zm-.586 0c0 .26-.13.455-.39.455h-.522v-.846h.456c.195-.065.39.13.456.326v.065Z"/>
    <path d="M35.826 39.032a2.734 2.734 0 1 0 2.734 2.734c-.065-1.497-1.237-2.734-2.734-2.734Zm0 4.817a2.086 2.086 0 0 1-2.045-2.49 2.083 2.083 0 0 1 4.128.407 2.056 2.056 0 0 1-2.083 2.08v.003Z"/>
  </g>
  <defs>
    <clipPath id="btcDirect_svg__a">
      <path fill="#fff" d="M0 .5h44v44H0z"/>
    </clipPath>
  </defs>
</svg>
