<svg xmlns="http://www.w3.org/2000/svg" fill="none" viewBox="0 0 24 24">
  <path stroke="#222" stroke-linecap="round" stroke-linejoin="round" stroke-width="1.5" d="m2.75 3.25 2.08.36.963 11.473a1.8 1.8 0 0 0 1.8 1.653h10.91a1.8 1.8 0 0 0 1.784-1.546l.95-6.558a1.341 1.341 0 0 0-1.136-1.52C20.037 7.105 5.164 7.1 5.164 7.1m8.961 3.695h2.773"/>
  <path fill="#222" fill-rule="evenodd" stroke="#222" stroke-linecap="round" stroke-linejoin="round" stroke-width="1.5" d="M7.154 20.203a.544.544 0 1 1 0 1.087.544.544 0 0 1 0-1.087Zm11.281 0a.545.545 0 1 1 0 1.09.545.545 0 0 1 0-1.09Z" clip-rule="evenodd"/>
</svg>
