<svg xmlns="http://www.w3.org/2000/svg" fill="none" viewBox="0 0 21 19">
  <path fill="#68C481" d="M9.945 16.154a3.441 3.441 0 0 1-.475.396 7.6 7.6 0 0 1-1.044.66 8.803 8.803 0 0 1-2.299.807 8.8 8.8 0 0 1-.594.105l-.304.04-.145.013-.145.013-.304.027-.304.013c-.198.013-.41.013-.608.026-.594 0-1.189-.026-1.783-.079.066-.092.132-.198.198-.304.185-.29.357-.607.515-.924.29-.634.515-1.295.7-1.955.172-.648.383-1.269.621-1.903a15.31 15.31 0 0 1 .832-1.836 6.265 6.265 0 0 0-.607.82c-.185.277-.37.58-.529.871-.33.594-.62 1.228-.845 1.863-.238.62-.489 1.241-.793 1.81a9.276 9.276 0 0 1-1.096 1.598l-.436.528.687.093c.845.119 1.704.185 2.563.158.211-.013.436-.013.647-.04l.317-.026.317-.04c.211-.026.423-.079.634-.105.211-.053.423-.093.634-.159.212-.052.41-.132.621-.198.198-.08.41-.158.608-.25.396-.173.78-.397 1.136-.635a5.91 5.91 0 0 0 .99-.832c.291-.317.555-.648.74-1.03-.145.184-.29.343-.449.475Zm4.73-11.4c.237-.238.554-.37.898-.37.33 0 .647.119.898.37a1.284 1.284 0 0 1 0 1.796 1.284 1.284 0 0 1-1.797 0 1.258 1.258 0 0 1-.37-.898c0-.343.133-.66.37-.898Zm.898 2.932c.528 0 1.043-.198 1.44-.594a2.057 2.057 0 0 0 0-2.893 2.041 2.041 0 0 0-2.88 0 2.029 2.029 0 0 0-.595 1.44c0 .541.212 1.057.595 1.44.383.396.898.607 1.44.607Zm.594 2.933c-2.92 2.576-4.135 2.814-5.35 2.259l1.321-1.665c.198-.237.33-.528.41-.832l.528-2.232-2.22.528c-.303.08-.594.211-.832.41l-1.664 1.32c-.568-1.215-.317-2.43 2.246-5.35 2.43-2.76 7.556-3.394 9.075-3.527-.119 1.52-.753 6.658-3.514 9.089Zm-1.942 3.99a.478.478 0 0 1-.198.303c-.304.212-.78.502-1.202.766l.026-.079c.198-.806.198-1.427 0-1.85.555-.17 1.15-.475 1.823-.937a36.57 36.57 0 0 0-.449 1.796Zm-4.61-1.44a.865.865 0 0 1-.727.33h-.673l2.298-2.774-2.774 2.298v-.673a.865.865 0 0 1 .33-.727L10.5 9.694c.159-.119.344-.211.528-.264l.991-.238-.238.991a1.384 1.384 0 0 1-.264.542l-1.902 2.444ZM5.652 8.386l-.08.026c.252-.423.542-.898.754-1.202a.478.478 0 0 1 .303-.198 55.018 55.018 0 0 0 1.797-.436c-.462.673-.766 1.281-.938 1.836-.41-.238-1.03-.238-1.836-.026ZM20.09.725c-.277.013-6.988.317-10.066 3.817-.29.33-.568.674-.845 1.018-.45.118-2.008.541-2.695.686a1.26 1.26 0 0 0-.792.529c-.476.687-1.295 2.1-1.321 2.153l-.595 1.017L4.86 9.47c.714-.304 1.903-.621 2.325-.37.066.04.146.119.159.317a3.4 3.4 0 0 0 .396 1.48l-.145.118c-.41.33-.647.832-.621 1.36v1.89h1.889a1.647 1.647 0 0 0 1.36-.62l.12-.146c.488.25.977.396 1.479.396.198.013.264.08.317.159.264.422-.053 1.624-.37 2.338l-.475 1.083 1.017-.594c.066-.04 1.466-.86 2.153-1.335a1.26 1.26 0 0 0 .515-.792c.146-.687.568-2.26.687-2.708.317-.251.647-.542 1.004-.859 3.488-3.078 3.805-9.802 3.818-10.08L20.5.686l-.41.04Z"/>
</svg>
