<svg xmlns="http://www.w3.org/2000/svg" fill="none" viewBox="0 0 44 45">
  <path fill="#ADFF86" d="M31.65.5h-19.3C5.53.5 0 6.03 0 12.85v19.3C0 38.97 5.53 44.5 12.35 44.5h19.3C38.47 44.5 44 38.97 44 32.15v-19.3C44 6.03 38.47.5 31.65.5Z"/>
  <path fill="#1F1F1F" d="M10.613 33.346c.275-1.38 1.377-4.69 2.539-7.062-1.64 1.642-2.545 2.878-3.642 4.855-.561 1.012-.992 2.906-1.653 3.855 1.868 0 3.7.322 5.567 0 2.329-.333 5.043-1.578 6.006-3.855-1.102 1.38-6.106 2.47-8.817 2.207Z"/>
  <path fill="#1F1F1F" fill-rule="evenodd" d="M29.049 9.893c3.274-.78 5.907-.899 6.026-.899l1.043-.047-.047 1.017v.014c-.033.619-.57 10.975-6.026 15.78-.246.211-.49.46-.727.705-.268.274-.529.542-.78.742-.054.204-.132.486-.22.81-.264.957-.628 2.28-.787 3.039a2.245 2.245 0 0 1-.95 1.442c-1.067.733-3.25 2.01-3.344 2.057l-2.515 1.466 1.162-2.648c.522-1.159.878-2.79.593-3.263 0-.024-.023-.047-.142-.07a5.426 5.426 0 0 1-2.23-.545c-.593.71-1.47 1.135-2.396 1.088h-3.274v-3.263a2.835 2.835 0 0 1 1.092-2.388c-.356-.733-.546-1.466-.546-2.222-.02-.122-.04-.14-.061-.157a.167.167 0 0 1-.01-.009c-.475-.284-2.111.071-3.274.591l-2.68 1.159 1.47-2.506c.048-.095 1.329-2.27 2.064-3.334a2.316 2.316 0 0 1 1.447-.946c.751-.14 2.052-.502 3.008-.769.343-.096.641-.179.854-.235.2-.25.47-.51.745-.777.245-.237.495-.48.707-.725 2.04-2.34 5.362-4.067 9.798-5.107Zm-.826 9.758a2.838 2.838 0 0 0 2.843-2.833 2.838 2.838 0 0 0-2.843-2.834 2.838 2.838 0 0 0-2.842 2.834 2.838 2.838 0 0 0 2.842 2.833Z" clip-rule="evenodd"/>
</svg>
