<svg xmlns="http://www.w3.org/2000/svg" fill="none" viewBox="0 0 44 45">
  <g clip-path="url(#changenow_svg__a)">
    <path fill="#2B2B36" d="M0 8.671A8.171 8.171 0 0 1 8.171.5H35.83A8.171 8.171 0 0 1 44 8.671V36.33a8.171 8.171 0 0 1-8.171 8.171H8.17A8.171 8.171 0 0 1 0 36.329V8.67Z"/>
    <path fill="#fff" d="M10.917 17.128a1.803 1.803 0 0 0-.64-.491 1.915 1.915 0 0 0-.746-.17 2.112 2.112 0 0 0-.834.143 1.787 1.787 0 0 0-1.037 1.05 2.394 2.394 0 0 0 0 1.601 1.788 1.788 0 0 0 1.038 1.056c.266.103.55.152.834.142.258-.005.511-.063.746-.169.248-.113.466-.28.64-.49l-.437-.34c-.1.148-.231.27-.385.358-.171.099-.366.15-.564.146a1.398 1.398 0 0 1-1.048-.409 1.366 1.366 0 0 1-.284-.483 1.933 1.933 0 0 1 0-1.21 1.306 1.306 0 0 1 .733-.799c.188-.079.392-.114.596-.106.197-.003.392.047.563.146.155.088.286.21.385.357l.438-.338.003.005Zm1.28 3.241h.534v-1.95a1.69 1.69 0 0 1 .17-.812 1.29 1.29 0 0 1 .367-.439.988.988 0 0 1 .387-.184 2.06 2.06 0 0 1 .23-.027c.393 0 .663.113.81.338.163.297.24.634.219.972v2.102h.535v-2.414a1.589 1.589 0 0 0-.348-1.1c-.235-.253-.596-.379-1.082-.379-.127 0-.254.018-.376.053a1.676 1.676 0 0 0-.361.145 1.49 1.49 0 0 0-.307.224 1.247 1.247 0 0 0-.227.284h-.017v-2.955h-.535v6.142Zm7.51-1.892v.276c.001.16-.022.321-.069.475a1.036 1.036 0 0 1-.575.653c-.16.07-.333.103-.507.099a1.38 1.38 0 0 1-.32-.038.88.88 0 0 1-.287-.121.64.64 0 0 1-.206-.22.633.633 0 0 1-.078-.322.548.548 0 0 1 .2-.447c.14-.113.303-.195.477-.24a2.92 2.92 0 0 1 .584-.098c.203-.014.371-.02.506-.02l.276.003Zm-.266-.439c-.225 0-.475.011-.75.032a2.952 2.952 0 0 0-.77.17c-.229.08-.434.215-.599.394a1.045 1.045 0 0 0-.24.728 1.018 1.018 0 0 0 .402.833c.125.096.266.168.417.211.158.047.322.07.487.07.27.007.538-.051.781-.17a1.44 1.44 0 0 0 .555-.548h.017c0 .103.004.208.012.317.008.108.02.206.039.294h.506a5.998 5.998 0 0 1-.044-.394 3.906 3.906 0 0 1-.013-.452V17.83a1.459 1.459 0 0 0-.113-.6 1.231 1.231 0 0 0-.3-.419 1.201 1.201 0 0 0-.443-.247 1.745 1.745 0 0 0-.53-.081c-.713 0-1.248.184-1.603.552l.324.382a1.672 1.672 0 0 1 1.158-.447c.648 0 .972.328.972.984v.098l-.265-.014Zm2.576-1.47a15.123 15.123 0 0 1 .04.836v2.965h.535v-1.95c-.012-.28.046-.56.169-.812a1.29 1.29 0 0 1 .368-.439.986.986 0 0 1 .386-.184c.075-.015.15-.026.227-.032.393 0 .664.112.81.338a1.8 1.8 0 0 1 .22.972v2.107h.534v-2.414a1.589 1.589 0 0 0-.347-1.1c-.233-.253-.593-.379-1.079-.379-.127 0-.254.018-.376.053a1.677 1.677 0 0 0-.674.363 1.247 1.247 0 0 0-.226.285h-.017v-.305c0-.1-.007-.202-.02-.305h-.55Zm5.619 1.287a1.455 1.455 0 0 1 .746-.78c.174-.08.364-.12.555-.118.206-.003.41.037.6.118a1.355 1.355 0 0 1 .738.78c.065.182.098.373.097.566.008.205-.026.41-.102.6-.07.174-.176.331-.312.46a1.483 1.483 0 0 1-1.012.402 1.306 1.306 0 0 1-.556-.118 1.45 1.45 0 0 1-.746-.78 1.512 1.512 0 0 1 0-1.13h-.008Zm-.605 3.699c.226.248.503.445.81.577.322.13.667.192 1.013.186.356.014.71-.052 1.037-.195a1.71 1.71 0 0 0 .62-.487c.145-.189.248-.408.3-.641.05-.216.075-.437.077-.659v-3.768h-.535v.633h-.017a1.756 1.756 0 0 0-.726-.585 1.705 1.705 0 0 0-.381-.113 2.193 2.193 0 0 0-.361-.033 1.953 1.953 0 0 0-.773.15c-.23.097-.436.24-.608.419a1.983 1.983 0 0 0-.402.626 2.025 2.025 0 0 0-.145.772c-.002.265.05.528.154.772.098.23.241.44.422.613a2.026 2.026 0 0 0 1.401.548c.27 0 .539-.059.786-.17.26-.117.48-.31.632-.551h.017v.677c0 .196-.026.392-.078.58-.047.177-.133.34-.25.48a1.195 1.195 0 0 1-.457.321 1.8 1.8 0 0 1-.689.119 1.83 1.83 0 0 1-.844-.192 1.708 1.708 0 0 1-.611-.507l-.392.428Zm6.02-3.385a.99.99 0 0 1 .11-.456c.072-.146.171-.278.291-.389.125-.116.269-.208.425-.273.16-.067.333-.102.507-.101a1.197 1.197 0 0 1 .908.338 1.215 1.215 0 0 1 .319.88h-2.56Zm3.142.438v-.237c.002-.25-.04-.498-.121-.735a1.709 1.709 0 0 0-.92-1.012 1.855 1.855 0 0 0-.77-.154 1.881 1.881 0 0 0-1.36.569 1.925 1.925 0 0 0-.405.633 2.127 2.127 0 0 0-.145.796c-.003.272.048.542.15.795.094.235.233.45.408.633.176.18.387.323.62.418.248.102.513.153.781.15.303.003.603-.06.88-.185.295-.143.552-.355.749-.618l-.413-.339a1.485 1.485 0 0 1-.475.459c-.222.137-.48.206-.74.2a1.302 1.302 0 0 1-.527-.105 1.4 1.4 0 0 1-.73-.723 1.63 1.63 0 0 1-.138-.537l3.156-.008Z"/>
    <path fill="#00C26F" d="M7.987 30.525h1.36v-5.882h.022l3.781 5.882h1.728v-7.67h-1.362v5.698h-.02l-3.713-5.698H7.987v7.67Zm9.064-2.167a3.655 3.655 0 0 0 2.111 2.075c.52.197 1.07.294 1.626.288.561 0 1.118-.105 1.642-.308a3.748 3.748 0 0 0 2.13-2.097 4.263 4.263 0 0 0 .296-1.637 4.41 4.41 0 0 0-.302-1.669 3.592 3.592 0 0 0-2.13-2.085 4.536 4.536 0 0 0-1.643-.266 4.46 4.46 0 0 0-1.625.288 3.672 3.672 0 0 0-2.119 2.1 4.455 4.455 0 0 0-.283 1.676c-.008.56.095 1.115.302 1.635h-.005Zm1.313-2.794a2.65 2.65 0 0 1 .535-.872c.232-.25.514-.45.827-.586a2.646 2.646 0 0 1 1.079-.211 2.69 2.69 0 0 1 1.08.211c.315.135.599.334.832.586.233.253.415.55.535.872.125.342.187.703.183 1.068a3.31 3.31 0 0 1-.19 1.137 2.659 2.659 0 0 1-.535.899 2.471 2.471 0 0 1-.832.596 2.62 2.62 0 0 1-1.08.216 2.584 2.584 0 0 1-1.075-.216 2.486 2.486 0 0 1-.827-.596 2.67 2.67 0 0 1-.535-.899 3.306 3.306 0 0 1-.188-1.137 3 3 0 0 1 .19-1.073v.005Zm9.768 4.96h1.252l1.773-5.839h.022l1.779 5.84h1.296l2.225-7.67h-1.383l-1.502 5.525h-.022l-1.688-5.524h-1.34l-1.72 5.524h-.022l-1.436-5.524h-1.497l2.263 7.669Z"/>
  </g>
  <defs>
    <clipPath id="changenow_svg__a">
      <path fill="#fff" d="M0 .5h44v44H0z"/>
    </clipPath>
  </defs>
</svg>
