<svg xmlns="http://www.w3.org/2000/svg" fill="none" viewBox="0 0 24 24">
  <path stroke="#DD230E" stroke-linecap="round" stroke-linejoin="round" stroke-width="1.5" d="M19.325 9.469s-.543 6.735-.858 9.572c-.15 1.355-.987 2.149-2.358 2.174-2.61.047-5.221.05-7.83-.005-1.318-.027-2.141-.831-2.288-2.162-.317-2.862-.857-9.58-.857-9.58M20.708 6.24H3.75m13.69 0a1.648 1.648 0 0 1-1.614-1.324L15.583 3.7a1.28 1.28 0 0 0-1.237-.949h-4.233a1.28 1.28 0 0 0-1.237.949l-.243 1.216A1.648 1.648 0 0 1 7.018 6.24"/>
</svg>
