<svg xmlns="http://www.w3.org/2000/svg" fill="none" viewBox="0 0 36 36">
  <path stroke="#222" stroke-linecap="round" stroke-width="2.5" d="M34 8.545V5.75A3.75 3.75 0 0 0 30.25 2h-2.795M2 8.545V5.75A3.75 3.75 0 0 1 5.75 2h2.795M34 27.454v2.796A3.75 3.75 0 0 1 30.25 34h-2.795M2 27.454v2.796A3.75 3.75 0 0 0 5.75 34h2.795"/>
  <path stroke="#222" stroke-linecap="round" stroke-linejoin="round" stroke-width="2.5" d="M11.6 13.91v-2.213m12.703 2.213v-2.213"/>
  <path stroke="#222" stroke-linecap="round" stroke-width="2.5" d="m24.642 24.013-.04.073a3.25 3.25 0 0 1-2.842 1.672h-7.42a3.28 3.28 0 0 1-2.74-1.503v0m4.727-4.412.02-.015A4 4 0 0 0 18 16.59v-4.892"/>
</svg>
