<svg xmlns="http://www.w3.org/2000/svg" fill="none" viewBox="0 0 24 24">
  <path stroke="#222" stroke-linecap="round" stroke-linejoin="round" stroke-width="1.5" d="M10.3 17.052H4m9.14-9.707h6.301"/>
  <path stroke="#222" stroke-linecap="round" stroke-linejoin="round" stroke-width="1.5" d="M9.731 7.345A2.856 2.856 0 0 0 6.865 4.5 2.856 2.856 0 0 0 4 7.345a2.856 2.856 0 0 0 2.865 2.845 2.856 2.856 0 0 0 2.866-2.845Zm9.71 9.707a2.855 2.855 0 0 0-2.864-2.845 2.856 2.856 0 0 0-2.867 2.845 2.856 2.856 0 0 0 2.867 2.846 2.855 2.855 0 0 0 2.864-2.846Z" clip-rule="evenodd"/>
</svg>
