<svg xmlns="http://www.w3.org/2000/svg" fill="none" viewBox="0 0 24 24">
  <path fill="#222" fill-rule="evenodd" d="m15.893 17.92.098.113Zm-3.402 3.147 3.5-3.034.005-.005.011-.01.038-.033.137-.125a17.9 17.9 0 0 0 1.912-2.099c1.022-1.325 2.156-3.22 2.156-5.198 0-4.585-3.688-8.313-8.25-8.313-4.563 0-8.25 3.728-8.25 8.313 0 3.402 1.828 5.146 3.59 6.827.214.204.426.406.634.61a.703.703 0 0 0 .035.033l3.5 3.034a.75.75 0 0 0 .982 0ZM12 8.25a1.75 1.75 0 1 0-.001 3.5 1.75 1.75 0 0 0 0-3.5Z" clip-rule="evenodd"/>
</svg>
