<svg xmlns="http://www.w3.org/2000/svg" fill="none" viewBox="0 0 147 121">
  <path fill="#68C481" d="M85.086 59H62.163c-5.112 0-7.669 0-9.6-1.05a8.724 8.724 0 0 1-3.52-3.55C48 52.455 48 49.878 48 44.725v-15.86c0-4.203 1.788-8.204 4.911-10.989.106 2.133 1.853 3.808 3.971 3.808h24.555c5.112 0 7.669 0 9.6 1.05a8.724 8.724 0 0 1 3.52 3.55c.765 1.427.969 3.193 1.023 6.066-.328-.004-.696-.004-1.113-.004H85.4c-4.382 0-7.933 3.58-7.933 7.997 0 4.416 3.552 7.996 7.933 7.996h9.067c.426 0 .8 0 1.133-.004v.069c0 1.709 0 2.563-.118 3.277-.61 3.693-3.48 6.587-7.144 7.201-.709.12-1.556.12-3.252.12Z"/>
  <path fill="#68C481" fill-rule="evenodd" d="M85.778 34.63c-3.13 0-5.667 2.557-5.667 5.712 0 3.154 2.537 5.711 5.667 5.711h8.5c.877 0 1.316 0 1.681-.073a3.793 3.793 0 0 0 2.968-2.991c.073-.368.073-.81.073-1.695V39.39c0-.885 0-1.327-.073-1.695a3.793 3.793 0 0 0-2.968-2.992c-.365-.073-.803-.073-1.681-.073h-8.5Zm0 7.616a1.896 1.896 0 0 0 1.889-1.904 1.896 1.896 0 0 0-1.89-1.904 1.896 1.896 0 0 0-1.888 1.904c0 1.051.846 1.904 1.889 1.904ZM61.33 14.448c-4.513.002-6.849.045-8.646.986a8.724 8.724 0 0 0-3.706 3.735C48 21.067 48 23.561 48 28.549v9.116c0 4.987 0 7.481.978 9.38a8.734 8.734 0 0 0 2.854 3.224c-.054-.856-.054-1.914-.054-3.279V26.84c0-3.036 0-4.554.595-5.71a5.31 5.31 0 0 1 2.256-2.273c1.146-.6 2.652-.6 5.664-.6h1.037v-3.808Zm19.704 3.808h6.05c2.413 0 3.86 0 4.928.308a8.715 8.715 0 0 0-3.362-3.13c-1.656-.867-3.768-.971-7.616-.984v3.806Z" clip-rule="evenodd"/>
  <mask id="logo_svg__a" width="30" height="24" x="56" y="-4" maskUnits="userSpaceOnUse" style="mask-type:alpha">
    <path fill="#C4C4C4" d="M56.689-3.068h29.089v22.847H56.689z"/>
  </mask>
  <g mask="url(#logo_svg__a)">
    <path fill="#FFC700" fill-rule="evenodd" d="M71.139 28.347c7.605 0 13.77-6.214 13.77-13.88 0-7.665-6.165-13.88-13.77-13.88-7.605 0-13.77 6.215-13.77 13.88 0 7.666 6.165 13.88 13.77 13.88Zm1.624-23.89h-3.41v2.836h-3.36v15.643h3.36v3.439h3.41V22.93c2.654-.106 4.759-1.89 4.759-4.576 0-1.587-.754-2.793-1.907-3.53.842-.738 1.352-1.766 1.352-3.063 0-2.468-1.828-4.154-4.204-4.43V4.457Zm.657 7.574c0-.805-.532-1.386-1.353-1.386H69.54v2.771h2.527c.799 0 1.353-.58 1.353-1.385Zm-3.88 7.553h2.97c.888 0 1.464-.625 1.464-1.497 0-.872-.576-1.497-1.463-1.497H69.54v2.994Z" clip-rule="evenodd"/>
  </g>
  <path fill="#FFF" d="M19.017 117.147c-1.017 1.255-2.216 2.216-3.597 2.882-1.38.647-2.925.971-4.631.971-1.535 0-2.964-.284-4.287-.853a10.658 10.658 0 0 1-3.395-2.323 10.928 10.928 0 0 1-2.273-3.471C.278 113 0 111.549 0 110s.278-2.99.834-4.324c.557-1.352 1.314-2.519 2.273-3.5a10.66 10.66 0 0 1 3.395-2.323C7.825 99.284 9.254 99 10.789 99c1.649 0 3.097.294 4.344.882 1.265.589 2.387 1.442 3.366 2.559l-2.733 2.706a7.266 7.266 0 0 0-2.13-1.735c-.786-.432-1.725-.647-2.819-.647-.959 0-1.86.176-2.704.529a6.508 6.508 0 0 0-2.215 1.441c-.614.628-1.103 1.392-1.468 2.294-.364.883-.546 1.873-.546 2.971s.182 2.098.546 3a7.05 7.05 0 0 0 1.468 2.265 6.894 6.894 0 0 0 2.215 1.47 7.28 7.28 0 0 0 2.704.5c1.151 0 2.168-.235 3.05-.706.901-.49 1.697-1.176 2.388-2.058l2.762 2.676Zm8.77-11.5c1.093 0 2.09.196 2.992.588a6.65 6.65 0 0 1 2.359 1.589 6.814 6.814 0 0 1 1.553 2.411c.384.941.576 1.971.576 3.089 0 1.117-.192 2.147-.576 3.088a7.125 7.125 0 0 1-1.553 2.441 7.199 7.199 0 0 1-2.36 1.588c-.9.373-1.898.559-2.991.559-1.094 0-2.1-.186-3.021-.559a7.625 7.625 0 0 1-2.36-1.588 7.744 7.744 0 0 1-1.553-2.441c-.364-.941-.546-1.971-.546-3.088 0-1.118.182-2.148.546-3.089.384-.941.902-1.745 1.554-2.411a7.006 7.006 0 0 1 2.359-1.589c.92-.392 1.927-.588 3.02-.588Zm0 11.794c.48 0 .94-.088 1.38-.265.46-.196.864-.47 1.209-.823a3.66 3.66 0 0 0 .805-1.294c.211-.51.317-1.088.317-1.735 0-.648-.106-1.226-.317-1.736a3.669 3.669 0 0 0-.805-1.294 3.34 3.34 0 0 0-1.209-.794 3.365 3.365 0 0 0-1.38-.294c-.5 0-.969.098-1.41.294a3.4 3.4 0 0 0-1.18.794 4.026 4.026 0 0 0-.834 1.294c-.192.51-.288 1.088-.288 1.736 0 .647.096 1.225.288 1.735.211.51.49.941.834 1.294a3.79 3.79 0 0 0 1.18.823 3.75 3.75 0 0 0 1.41.265Zm11.72-13.412c-.326 0-.642-.058-.949-.176a3.059 3.059 0 0 1-.777-.529 3.126 3.126 0 0 1-.518-.795 2.638 2.638 0 0 1-.172-.97c0-.353.057-.677.172-.971a2.66 2.66 0 0 1 .518-.764c.23-.236.49-.412.777-.53.307-.137.623-.206.95-.206.67 0 1.246.245 1.725.736.48.47.72 1.049.72 1.735 0 .686-.24 1.274-.72 1.765a2.376 2.376 0 0 1-1.726.705Zm-1.87 16.5v-14.411h3.77v14.411h-3.77ZM48.391 108h.23a4.716 4.716 0 0 1 1.784-1.706c.748-.431 1.601-.647 2.56-.647.882 0 1.66.147 2.33.441a4.102 4.102 0 0 1 1.64 1.265c.442.529.768 1.176.979 1.941.23.745.345 1.579.345 2.5v8.735H54.49v-8.264c0-1.04-.23-1.804-.69-2.294-.441-.51-1.094-.765-1.957-.765-.518 0-.978.118-1.38.353a3.18 3.18 0 0 0-1.008.912 4.392 4.392 0 0 0-.633 1.353 6.443 6.443 0 0 0-.2 1.647v7.058h-3.77v-14.411h3.539V108Zm16.999-8.53h4.115l3.193 12.295.46 2.264h.23l.605-2.264 2.963-9.471h3.625l2.992 9.471.575 2.235h.23l.432-2.235 2.992-12.294h4.114l-5.466 21.058h-3.74l-3.222-10.147-.604-2.323h-.23l-.605 2.323-3.222 10.147h-3.74l-5.696-21.058ZM101.527 119h-.23a6.293 6.293 0 0 1-1.611 1.412c-.614.392-1.41.588-2.388.588-.729 0-1.42-.127-2.072-.382a5.17 5.17 0 0 1-1.668-1 4.538 4.538 0 0 1-1.122-1.559 4.897 4.897 0 0 1-.403-2c0-.745.144-1.412.432-2a4.52 4.52 0 0 1 1.208-1.559 5.249 5.249 0 0 1 1.812-.971 7.28 7.28 0 0 1 2.302-.353c.92 0 1.678.079 2.273.236a9.75 9.75 0 0 1 1.467.441v-.441c0-.765-.297-1.392-.892-1.883-.595-.509-1.333-.764-2.215-.764-1.304 0-2.407.559-3.309 1.676l-2.733-1.912c1.496-1.921 3.539-2.882 6.128-2.882 2.187 0 3.855.529 5.006 1.588 1.151 1.04 1.726 2.589 1.726 4.647v8.647h-3.711V119Zm0-4.324a6.924 6.924 0 0 0-1.381-.5 5.332 5.332 0 0 0-1.525-.205c-.901 0-1.601.205-2.1.617-.48.392-.72.883-.72 1.471 0 .588.23 1.059.691 1.412.48.353 1.026.529 1.64.529.499 0 .96-.088 1.381-.265a3.568 3.568 0 0 0 1.064-.735c.307-.314.537-.667.691-1.059.173-.412.259-.833.259-1.265Zm6.708 5.853V99.471h3.768v21.058h-3.768Zm6.995 0V99.471h3.769v21.058h-3.769Zm20.204-3.47a7.966 7.966 0 0 1-2.646 2.853c-1.094.725-2.436 1.088-4.028 1.088-1.074 0-2.072-.186-2.992-.559a7.377 7.377 0 0 1-2.359-1.617 7.601 7.601 0 0 1-1.583-2.412c-.364-.941-.546-1.971-.546-3.088 0-1.04.182-2.02.546-2.942a7.364 7.364 0 0 1 1.525-2.441 7.3 7.3 0 0 1 2.302-1.676c.901-.412 1.889-.618 2.963-.618 1.132 0 2.139.196 3.021.588.882.373 1.62.902 2.215 1.589.595.666 1.045 1.46 1.352 2.382.307.921.46 1.921.46 3v.353a2.025 2.025 0 0 0-.028.323 1.704 1.704 0 0 0-.029.324h-10.616c.077.588.23 1.098.46 1.529.25.412.547.765.892 1.059.365.275.758.481 1.18.618a4.82 4.82 0 0 0 1.294.176c.863 0 1.573-.196 2.129-.588a4.447 4.447 0 0 0 1.352-1.529l3.136 1.588Zm-3.423-5.588c-.019-.255-.106-.54-.259-.853a2.684 2.684 0 0 0-.633-.883 3.104 3.104 0 0 0-1.036-.676c-.403-.177-.892-.265-1.467-.265-.806 0-1.515.235-2.129.706-.614.471-1.045 1.127-1.295 1.971h6.819Zm7.193-2.059h-2.475v-3.294h2.475v-4.412h3.768v4.412h3.453v3.294h-3.453V115c0 .333.029.647.087.941.076.275.211.51.402.706.269.314.652.471 1.151.471.326 0 .585-.03.777-.089.192-.078.374-.176.547-.294l1.064 3.383a5.682 5.682 0 0 1-1.438.47 7.262 7.262 0 0 1-1.669.177c-.71 0-1.352-.108-1.928-.324a4.262 4.262 0 0 1-1.409-.941c-.902-.882-1.352-2.137-1.352-3.765v-6.323Z"/>
</svg>
