<svg xmlns="http://www.w3.org/2000/svg" fill="none" viewBox="0 0 44 45">
  <path stroke="url(#onramper_svg__a)" stroke-linecap="round" stroke-miterlimit="10" stroke-width="3.106" d="M42.316 22.455H20.502m3.137 7.095h6.35a3.948 3.948 0 0 0 3.182-1.611l2.849-3.874m0 0a3.952 3.952 0 0 1 3.181-1.612h2.589m-5.77 1.612-8.067 10.969a3.947 3.947 0 0 1-3.189 1.61h-9.8M36.02 24.065a3.948 3.948 0 0 1 3.181-1.61h1.536M2.785 15.36h-.887m9.016 0h-.887M8.232 36.644h-.887M40.73 22.455h-1.535m0 0a3.95 3.95 0 0 1-3.182-1.61l-8.06-10.97a3.949 3.949 0 0 0-3.182-1.61h-9.808m24.231 14.19h3.118m-3.117 0a3.945 3.945 0 0 1-3.182-1.611l-2.85-3.874a3.948 3.948 0 0 0-3.18-1.61H17.445M8.234 8.265h-.889m7.7 14.19h-.887m4.018 7.095h-.887m-6.375 0h-.887m-2.243-7.095h-.882M3.658 29.55h-.897"/>
  <defs>
    <linearGradient id="onramper_svg__a" x1=".345" x2="43.869" y1="22.455" y2="22.455" gradientUnits="userSpaceOnUse">
      <stop stop-color="#CCC"/>
      <stop offset=".18" stop-color="#989898"/>
      <stop offset=".38" stop-color="#626262"/>
      <stop offset=".58" stop-color="#383838"/>
      <stop offset=".75" stop-color="#191919"/>
      <stop offset=".9" stop-color="#070707"/>
      <stop offset="1"/>
    </linearGradient>
  </defs>
</svg>
