<svg xmlns="http://www.w3.org/2000/svg" fill="none" viewBox="0 0 24 24">
  <path stroke="#222" stroke-width="1.5" d="M13.5 2.75h-3a1.75 1.75 0 1 0 0 3.5h3a1.75 1.75 0 1 0 0-3.5Z"/>
  <path fill="#222" fill-rule="evenodd" d="M8.046 4.033a2.661 2.661 0 0 0 .149 1.495c-.532.02-.986.052-1.384.105-.923.124-1.318.339-1.579.6-.26.26-.475.655-.599 1.578-.13.966-.133 2.261-.133 4.189v2c0 1.928.003 3.223.133 4.19.124.922.339 1.317.6 1.578.26.26.655.475 1.578.599.966.13 2.261.133 4.189.133h2c1.928 0 3.223-.003 4.19-.133.922-.124 1.317-.339 1.578-.6.26-.26.475-.655.599-1.578.13-.966.133-2.261.133-4.189v-2c0-1.928-.003-3.223-.133-4.19-.124-.922-.339-1.317-.6-1.578-.26-.26-.655-.475-1.578-.599a14.41 14.41 0 0 0-1.384-.105 2.64 2.64 0 0 0 .149-1.495c1.9.076 3.06.324 3.874 1.139C21 6.343 21 8.229 21 12v2c0 3.771 0 5.657-1.172 6.828C18.657 22 16.771 22 13 22h-2c-3.771 0-5.657 0-6.828-1.172C3 19.657 3 17.771 3 14v-2c0-3.771 0-5.657 1.172-6.828.814-.815 1.975-1.063 3.874-1.139Z" clip-rule="evenodd"/>
  <path stroke="#222" d="M7 12.5c0-1.886 0-2.828.586-3.414C8.172 8.5 9.114 8.5 11 8.5h2c1.886 0 2.828 0 3.414.586C17 9.672 17 10.614 17 12.5v2c0 1.886 0 2.828-.586 3.414-.586.586-1.528.586-3.414.586h-2c-1.886 0-2.828 0-3.414-.586C7 17.328 7 16.386 7 14.5v-2Z"/>
</svg>
