<svg xmlns="http://www.w3.org/2000/svg" fill="none" viewBox="0 0 24 24">
  <path fill="#222" d="M11.182 3h1.636v1.636h-1.636zm4.909 9.818h1.636v1.636h-1.636zm1.636-1.636H21v1.636h-3.273zm-6.545 8.182h1.636V21h-1.636zm0-3.273h1.636v1.636h-1.636zm3.273 0h1.636v1.636h-1.636zm1.636 1.636h1.636v1.636h-1.636zm-4.909-3.273h1.636v1.636h-1.636zm5.727 4.91H21V21h-4.091zm-4.091 0h1.636V21h-1.636zm1.637-6.546h1.636v1.636h-1.636zm-1.637 4.909h1.636v1.636h-1.636zm4.909-1.636h1.636v1.636h-1.636zm1.637-1.637H21v1.636h-1.636zm0 1.637H21v1.636h-1.636zM7.909 11.182h1.636v1.636H7.909zm-1.636 0h1.636v1.636H6.273zm-3.273 0h1.636v1.636H3zm8.182-3.273h1.636v1.636h-1.636zm0 3.273h1.636v1.636h-1.636zm1.636 0h1.636v1.636h-1.636z"/>
  <path stroke="#222" stroke-width="1.5" d="M3.5 17.915c0-.854 0-1.281.169-1.607a1.5 1.5 0 0 1 .64-.64c.325-.168.752-.168 1.606-.168h.17c.854 0 1.281 0 1.606.169a1.5 1.5 0 0 1 .64.64c.169.325.169.752.169 1.606v.17c0 .854 0 1.281-.169 1.607a1.5 1.5 0 0 1-.64.64c-.325.168-.752.168-1.606.168h-.17c-.854 0-1.281 0-1.606-.169a1.5 1.5 0 0 1-.64-.64c-.169-.325-.169-.752-.169-1.606v-.17Zm0-12c0-.854 0-1.281.169-1.606a1.5 1.5 0 0 1 .64-.64C4.634 3.5 5.06 3.5 5.915 3.5h.17c.854 0 1.281 0 1.606.169a1.5 1.5 0 0 1 .64.64c.169.325.169.752.169 1.606v.17c0 .854 0 1.281-.169 1.606a1.5 1.5 0 0 1-.64.64c-.325.169-.752.169-1.606.169h-.17c-.854 0-1.281 0-1.606-.169a1.5 1.5 0 0 1-.64-.64C3.5 7.366 3.5 6.94 3.5 6.085v-.17Zm12 0c0-.854 0-1.281.169-1.606a1.5 1.5 0 0 1 .64-.64c.325-.169.752-.169 1.606-.169h.17c.854 0 1.281 0 1.607.169a1.5 1.5 0 0 1 .64.64c.168.325.168.752.168 1.606v.17c0 .854 0 1.281-.169 1.606a1.5 1.5 0 0 1-.64.64c-.325.169-.752.169-1.606.169h-.17c-.854 0-1.281 0-1.607-.169a1.5 1.5 0 0 1-.64-.64c-.168-.325-.168-.752-.168-1.606v-.17Z"/>
</svg>
