<svg xmlns="http://www.w3.org/2000/svg" fill="none" viewBox="0 0 44 44">
  <path fill="#EAFCEF" d="M43.936 21.968c0 12.132-9.836 21.968-21.968 21.968C9.835 43.936 0 34.1 0 21.968 0 9.835 9.835 0 21.968 0 34.1 0 43.936 9.835 43.936 21.968Z"/>
  <path stroke="#68C481" stroke-linecap="round" stroke-linejoin="round" stroke-width="1.5" d="M30.376 22c0 5.315-4.13 9.57-9.163 9.57S12.05 27.316 12.05 22s4.13-9.57 9.163-9.57 9.163 4.255 9.163 9.57Z"/>
  <path fill="#68C481" fill-rule="evenodd" d="M21.567 32.25c4.924-.602 8.745-4.961 8.745-10.25s-3.82-9.648-8.745-10.25a9.616 9.616 0 0 1 1.168-.07c5.476 0 9.914 4.62 9.914 10.32s-4.438 10.32-9.914 10.32a9.59 9.59 0 0 1-1.168-.07Z" clip-rule="evenodd"/>
  <path stroke="#68C481" stroke-linecap="round" stroke-linejoin="round" stroke-width="1.5" d="M25.996 26.551c2.416-2.514 2.416-6.59.001-9.104-2.415-2.513-6.33-2.513-8.745.002"/>
</svg>
