<svg xmlns="http://www.w3.org/2000/svg" fill="none" viewBox="0 0 128 168">
  <path fill="url(#touchId_svg__a)" fill-rule="evenodd" d="M64 9.292c-8.595 0-16.667 2.177-23.71 6.006a4.296 4.296 0 1 1-4.104-7.55c8.27-4.496 17.75-7.05 27.813-7.05 18.263 0 36.709 7.51 47.565 21.277a4.295 4.295 0 0 1-.758 5.977 4.297 4.297 0 0 1-5.989-.657C95.893 15.978 80.163 9.291 63.999 9.291H64ZM24.935 21.855a4.296 4.296 0 0 1-.145 6.074c-9.502 9.06-15.414 21.83-15.414 35.987v39.575c0 16.92 5.057 34.797 19.986 45.144a4.296 4.296 0 0 1-4.895 7.062C6.222 143.053.783 121.742.783 103.491V63.916c0-16.604 6.945-31.591 18.077-42.206a4.297 4.297 0 0 1 6.075.145Zm93.709 10.703a4.291 4.291 0 0 1 4.613 1.227c.373.423.658.916.841 1.45a58.145 58.145 0 0 1 3.086 16.897h.033v31.424a4.3 4.3 0 0 1-4.297 4.296 4.298 4.298 0 0 1-4.296-4.296V54.103a49.722 49.722 0 0 0-2.657-16.09 4.302 4.302 0 0 1 .208-3.282 4.296 4.296 0 0 1 2.469-2.173Zm4.277 66.636a4.296 4.296 0 0 1 4.296 4.297c0 14.032-3.195 29.767-12.912 42.082-9.861 12.497-25.938 20.84-50.305 20.84-7.751 0-14.678-.841-20.849-2.408a4.294 4.294 0 0 1-3.043-5.204 4.295 4.295 0 0 1 5.156-3.124c5.396 1.369 11.604 2.144 18.736 2.144 22.225 0 35.608-7.494 43.559-17.571 8.096-10.26 11.065-23.837 11.065-36.759a4.298 4.298 0 0 1 4.297-4.297Z" clip-rule="evenodd"/>
  <path fill="url(#touchId_svg__b)" fill-rule="evenodd" d="M64 28.932c-19.32 0-34.984 15.662-34.984 34.984v47.809a43.409 43.409 0 0 0 4.468 19.18 4.297 4.297 0 0 1-7.709 3.797 51.997 51.997 0 0 1-5.351-22.977v-47.81c0-24.066 19.508-43.577 43.576-43.577 24.067 0 43.577 19.51 43.577 43.577v39.575a4.297 4.297 0 0 1-8.593 0V63.916c0-19.321-15.662-34.984-34.984-34.984Z" clip-rule="evenodd"/>
  <path fill="url(#touchId_svg__c)" fill-rule="evenodd" d="M64 48.572c-8.475 0-15.344 6.869-15.344 15.344v49.394c0 5.684 1.43 10.484 4.178 14.565 2.768 4.112 7.04 7.735 13.087 10.759a4.294 4.294 0 0 1-.563 7.918 4.291 4.291 0 0 1-3.28-.233c-7.046-3.523-12.594-8.034-16.372-13.644-3.798-5.641-5.643-12.15-5.643-19.365V63.915c0-13.219 10.717-23.936 23.937-23.936s23.936 10.717 23.936 23.937v39.575c0 2.61.65 3.78 1.197 4.327.547.547 1.716 1.196 4.327 1.196 2.611 0 3.78-.649 4.328-1.196.546-.547 1.196-1.717 1.196-4.328a4.293 4.293 0 0 1 4.296-4.296c1.14 0 2.233.453 3.038 1.259a4.291 4.291 0 0 1 1.259 3.037c0 3.935-.988 7.677-3.714 10.403-2.726 2.727-6.467 3.714-10.403 3.714-3.936 0-7.676-.987-10.403-3.714-2.726-2.726-3.713-6.467-3.713-10.402V63.916c0-8.475-6.87-15.344-15.344-15.344Z" clip-rule="evenodd"/>
  <path fill="url(#touchId_svg__d)" fill-rule="evenodd" d="M64 59.619a4.297 4.297 0 0 1 4.296 4.297v39.575c0 9.048 2.28 15.048 6.092 18.82 3.818 3.782 9.904 6.049 19.072 6.049a4.299 4.299 0 0 1 4.296 4.296 4.298 4.298 0 0 1-4.296 4.296c-10.47 0-19.116-2.593-25.118-8.534-6.009-5.949-8.639-14.533-8.639-24.927V63.916A4.297 4.297 0 0 1 64 59.619Z" clip-rule="evenodd"/>
  <defs>
    <linearGradient id="touchId_svg__a" x1="-16.5" x2="143.5" y1="-23" y2="181.5" gradientUnits="userSpaceOnUse">
      <stop stop-color="#FFA842"/>
      <stop offset=".409" stop-color="#60BB49"/>
      <stop offset="1" stop-color="#4CAB89"/>
    </linearGradient>
    <linearGradient id="touchId_svg__b" x1="-16.5" x2="143.5" y1="-23" y2="181.5" gradientUnits="userSpaceOnUse">
      <stop stop-color="#FFA842"/>
      <stop offset=".409" stop-color="#60BB49"/>
      <stop offset="1" stop-color="#4CAB89"/>
    </linearGradient>
    <linearGradient id="touchId_svg__c" x1="-16.5" x2="143.5" y1="-23" y2="181.5" gradientUnits="userSpaceOnUse">
      <stop stop-color="#FFA842"/>
      <stop offset=".409" stop-color="#60BB49"/>
      <stop offset="1" stop-color="#4CAB89"/>
    </linearGradient>
    <linearGradient id="touchId_svg__d" x1="-16.5" x2="143.5" y1="-23" y2="181.5" gradientUnits="userSpaceOnUse">
      <stop stop-color="#FFA842"/>
      <stop offset=".409" stop-color="#60BB49"/>
      <stop offset="1" stop-color="#4CAB89"/>
    </linearGradient>
  </defs>
</svg>
