<svg xmlns="http://www.w3.org/2000/svg" fill="none" viewBox="0 0 26 32">
  <path fill="#222" fill-rule="evenodd" d="M13 1.66c-1.66 0-3.218.42-4.578 1.16a.83.83 0 1 1-.793-1.459A11.213 11.213 0 0 1 13 0c3.527 0 7.088 1.45 9.185 4.109a.83.83 0 0 1-1.303 1.027C19.159 2.95 16.122 1.659 13 1.659ZM5.456 4.084a.83.83 0 0 1-.028 1.173 9.57 9.57 0 0 0-2.976 6.95v7.641c0 3.268.976 6.72 3.86 8.718a.83.83 0 1 1-.946 1.364C1.843 27.489.793 23.374.793 19.849v-7.642c0-3.206 1.34-6.1 3.49-8.15a.83.83 0 0 1 1.173.028Zm18.096 2.067a.83.83 0 0 1 1.053.517 11.23 11.23 0 0 1 .596 3.263h.006V16a.83.83 0 0 1-1.659 0v-5.687c0-1.089-.18-2.134-.513-3.107a.83.83 0 0 1 .517-1.054Zm.826 12.868a.83.83 0 0 1 .83.83c0 2.71-.617 5.748-2.494 8.126C20.81 30.389 17.705 32 13 32c-1.497 0-2.834-.162-4.026-.465a.83.83 0 1 1 .408-1.608c1.042.264 2.24.414 3.618.414 4.292 0 6.876-1.447 8.412-3.393 1.563-1.981 2.136-4.603 2.136-7.099a.83.83 0 0 1 .83-.83Z" clip-rule="evenodd"/>
  <path fill="#222" fill-rule="evenodd" d="M13 5.452a6.756 6.756 0 0 0-6.756 6.755v9.233c0 1.284.296 2.551.863 3.703a.83.83 0 0 1-1.488.734 10.04 10.04 0 0 1-1.034-4.437v-9.233a8.415 8.415 0 1 1 16.83 0v7.643a.83.83 0 0 1-1.66 0v-7.643A6.756 6.756 0 0 0 13 5.452Z" clip-rule="evenodd"/>
  <path fill="#222" fill-rule="evenodd" d="M13 9.245a2.963 2.963 0 0 0-2.963 2.963v9.538c0 1.097.276 2.024.807 2.812.534.794 1.36 1.494 2.527 2.078a.83.83 0 1 1-.742 1.484c-1.36-.68-2.432-1.551-3.162-2.635-.733-1.09-1.09-2.346-1.09-3.74v-9.538a4.622 4.622 0 0 1 9.245 0v7.643c0 .504.126.73.231.835.106.106.332.231.836.231s.73-.125.835-.23c.106-.106.232-.332.232-.836a.83.83 0 0 1 1.659 0c0 .76-.19 1.482-.717 2.008-.527.527-1.25.718-2.01.718-.76 0-1.482-.191-2.008-.718-.526-.526-.717-1.248-.717-2.008v-7.643A2.963 2.963 0 0 0 13 9.245Z" clip-rule="evenodd"/>
  <path fill="#222" fill-rule="evenodd" d="M13 11.378a.83.83 0 0 1 .83.83v7.641c0 1.748.44 2.906 1.176 3.635.737.73 1.912 1.168 3.683 1.168a.83.83 0 1 1 0 1.659c-2.022 0-3.692-.5-4.85-1.648-1.16-1.149-1.669-2.806-1.669-4.814v-7.642a.83.83 0 0 1 .83-.83Z" clip-rule="evenodd"/>
</svg>
