<svg xmlns="http://www.w3.org/2000/svg" fill="none" viewBox="0 0 129 111">
  <g clip-path="url(#walletGradient_svg__a)">
    <path fill="url(#walletGradient_svg__b)" d="M103.351 13.96a4.296 4.296 0 0 0 3.414-7.884l-3.414 7.884Zm.015-4.675-1.708 3.941h.001l1.707-3.94Zm-8.08-3.212 1.213-4.12-1.213 4.12Zm-5.634-1.168.526-4.263-.526 4.263ZM15.114 6.7l1.95 3.827-1.95-3.827Zm-8.259 8.26-3.827-1.95 3.827 1.95Zm0 81.08-3.827 1.95 3.827-1.95Zm8.26 8.26 1.95-3.827-1.95 3.827Zm87.339 1.581-.96-4.186.96 4.186Zm14.196-14.197-4.186-.96h-.001l4.187.96Zm4.774-9.648a4.295 4.295 0 1 0-8.591 0h8.591ZM13.858 18.133l-2.281 3.64 2.281-3.64Zm10.904 3.948-.577 4.256.577-4.256Zm78.366.896-1.115 4.148h.001l1.114-4.148Zm13.355 13.355-4.149 1.113 4.149-1.113Zm5.145 11.65v4.295-4.296ZM106.765 6.075l-1.693-.733-3.413 7.884 1.692.732 3.414-7.883Zm-1.692-.732c-3.912-1.695-6.189-2.69-8.574-3.391l-2.426 8.24c1.764.52 3.49 1.26 7.585 3.033l3.415-7.882Zm-8.574-3.391a39.517 39.517 0 0 0-6.32-1.311l-1.052 8.526c1.674.206 3.328.55 4.946 1.026l2.427-8.24ZM90.178.642C87.71.337 85.224.345 80.96.345v8.59c4.464 0 6.34.008 8.166.233l1.05-8.526ZM80.96.345H35.034v8.59h45.927V.345Zm-45.927 0c-5.221 0-9.396-.004-12.763.272-3.417.279-6.379.866-9.107 2.256l3.9 7.654c1.315-.67 3.02-1.113 5.907-1.348 2.936-.24 6.7-.244 12.063-.244V.345Zm-21.87 2.528A23.195 23.195 0 0 0 3.028 13.009l7.654 3.9a14.604 14.604 0 0 1 6.382-6.382l-3.9-7.654ZM3.028 13.009c-1.39 2.728-1.977 5.69-2.256 9.107C.497 25.483.5 29.658.5 34.88h8.59c0-5.363.004-9.127.244-12.063.236-2.886.678-4.591 1.349-5.907l-7.655-3.9ZM.5 34.88v41.242h8.59V34.879H.5Zm0 41.242c0 5.221-.003 9.395.272 12.762.279 3.418.866 6.38 2.256 9.108l7.655-3.9c-.67-1.316-1.113-3.021-1.35-5.907-.24-2.936-.242-6.7-.242-12.063H.5Zm2.528 21.87a23.196 23.196 0 0 0 10.136 10.136l3.9-7.654a14.607 14.607 0 0 1-6.382-6.382l-7.654 3.9Zm10.136 10.136c2.728 1.39 5.69 1.977 9.107 2.256 3.367.275 7.542.272 12.763.272v-8.591c-5.363 0-9.127-.003-12.063-.243-2.886-.236-4.592-.678-5.907-1.348l-3.9 7.654Zm21.87 2.528h57.77v-8.591h-57.77v8.591Zm57.77 0c4.806 0 7.931.027 10.611-.587l-1.921-8.373c-1.493.342-3.41.369-8.69.369v8.591Zm10.61-.587a23.193 23.193 0 0 0 11.217-6.207l-6.075-6.074a14.61 14.61 0 0 1-7.062 3.908l1.92 8.373Zm11.217-6.207a23.2 23.2 0 0 0 6.206-11.217l-8.374-1.92a14.601 14.601 0 0 1-3.907 7.063l6.075 6.074Zm6.206-11.216c.614-2.678.587-5.804.587-10.61h-8.591c0 5.28-.027 7.198-.369 8.689l8.373 1.921ZM5.142 16.785c2.841 2.368 4.56 3.812 6.435 4.988l4.563-7.279c-1.27-.796-2.482-1.794-5.5-4.308l-5.498 6.6Zm6.435 4.988a31.782 31.782 0 0 0 12.608 4.564l1.155-8.513a23.193 23.193 0 0 1-9.2-3.33l-4.563 7.279Zm12.609 4.564c2.192.297 4.436.288 8.136.288v-8.59c-3.928 0-5.498-.01-6.983-.21l-1.153 8.512Zm8.136.288H91.92v-8.59H32.322v8.59Zm59.598 0c6.145 0 8.372.037 10.093.5l2.23-8.296c-3.092-.832-6.733-.794-12.323-.794v8.59Zm10.094.5a14.61 14.61 0 0 1 6.542 3.779l6.074-6.075a23.196 23.196 0 0 0-10.389-6l-2.227 8.296Zm6.542 3.779a14.607 14.607 0 0 1 3.778 6.541l8.297-2.227a23.189 23.189 0 0 0-6.001-10.389l-6.074 6.075Zm3.778 6.542c.462 1.72.499 3.949.499 10.093h8.591c0-5.59.037-9.23-.793-12.321l-8.297 2.227Zm-26.29 26.457c0-6.421 5.204-11.626 11.625-11.626v-8.59c-11.166 0-20.216 9.051-20.216 20.216h8.59Zm11.625-11.626h23.959v-8.59H97.669v8.59Zm23.959 0c-.456 0-.893-.181-1.215-.504l6.074-6.074a6.872 6.872 0 0 0-4.859-2.013v8.59Zm-1.215-.504a1.716 1.716 0 0 1-.504-1.214h8.591a6.873 6.873 0 0 0-2.013-4.86l-6.074 6.075Zm-.504-1.214v26.688h8.591V50.56h-8.591Zm0 26.688c0-.456.181-.893.504-1.215l6.074 6.075a6.872 6.872 0 0 0 2.013-4.86h-8.591Zm.504-1.215a1.718 1.718 0 0 1 1.215-.503v8.59c1.822 0 3.57-.724 4.859-2.012l-6.074-6.075Zm1.215-.503H97.669v8.59h23.959v-8.59Zm-23.959 0c-6.42 0-11.626-5.205-11.626-11.626h-8.59c0 11.165 9.05 20.217 20.216 20.217v-8.591Z"/>
    <path fill="#4CAB89" d="M96.784 68.326a4.423 4.423 0 1 0 0-8.846 4.423 4.423 0 0 0 0 8.846Z"/>
  </g>
  <defs>
    <linearGradient id="walletGradient_svg__b" x1="-24.5" x2="124" y1="-27" y2="123.5" gradientUnits="userSpaceOnUse">
      <stop stop-color="#FFA842"/>
      <stop offset=".481" stop-color="#60BB49"/>
      <stop offset="1" stop-color="#4CAB89"/>
    </linearGradient>
    <clipPath id="walletGradient_svg__a">
      <path fill="#fff" d="M.5.09h128v110.82H.5z"/>
    </clipPath>
  </defs>
</svg>
