<svg xmlns="http://www.w3.org/2000/svg" fill="none" viewBox="0 0 86 101">
  <path fill="#68C481" d="M62.359 100.288H23.866c-8.585 0-12.877 0-16.12-1.786a14.742 14.742 0 0 1-5.912-6.032C.084 89.16.084 84.78.084 76.022v-26.96c0-7.144 3.002-13.944 8.246-18.678.178 3.626 3.111 6.473 6.67 6.473h41.23c8.585 0 12.877 0 16.12 1.785a14.743 14.743 0 0 1 5.912 6.032c1.283 2.427 1.626 5.43 1.717 10.313-.55-.007-1.169-.007-1.87-.007H62.885c-7.357 0-13.321 6.085-13.321 13.592 0 7.507 5.964 13.593 13.321 13.593H78.11c.716 0 1.344 0 1.903-.007v.117c0 2.904 0 4.356-.198 5.57-1.024 6.277-5.845 11.196-11.996 12.241-1.19.202-2.614.202-5.46.202Z"/>
  <path fill="#68C481" fill-rule="evenodd" d="M63.52 58.864c-5.255 0-9.516 4.346-9.516 9.708s4.26 9.71 9.516 9.71h14.273c1.474 0 2.21 0 2.823-.125 2.517-.511 4.484-2.518 4.985-5.086.121-.625.121-1.377.121-2.88v-3.237c0-1.504 0-2.255-.121-2.88-.501-2.568-2.468-4.575-4.985-5.086-.612-.124-1.35-.124-2.823-.124H63.52Zm0 12.945c1.752 0 3.172-1.45 3.172-3.237 0-1.787-1.42-3.236-3.172-3.236-1.752 0-3.172 1.449-3.172 3.236 0 1.788 1.42 3.237 3.172 3.237Zm-40.436-47.25c-7.984 0-12.036.033-15.136 1.676a14.742 14.742 0 0 0-6.222 6.348C.084 35.81.084 40.05.084 48.527v15.495c0 8.478 0 12.717 1.642 15.943a14.791 14.791 0 0 0 4.792 5.482c-.09-1.456-.09-3.254-.09-5.574V45.621c0-5.16 0-7.741 1-9.705a8.973 8.973 0 0 1 3.786-3.864c1.925-1.02 4.454-1.02 9.512-1.02h2.358v-6.473Zm34 6.473h8.63c4.051 0 6.48 0 8.275.523a14.708 14.708 0 0 0-5.647-5.32c-2.552-1.353-5.75-1.614-11.258-1.664v6.46Z" clip-rule="evenodd"/>
  <mask id="wallet_svg__a" width="50" height="40" x="14" y="-6" maskUnits="userSpaceOnUse" style="mask-type:alpha">
    <path fill="#C4C4C4" d="M14.674-5.215H63.52V33.62H14.674z"/>
  </mask>
  <g mask="url(#wallet_svg__a)">
    <path fill="#FFC700" fill-rule="evenodd" d="M38.938 48.184c12.77 0 23.123-10.563 23.123-23.593S51.709 1 38.938 1c-12.77 0-23.122 10.562-23.122 23.592s10.352 23.593 23.122 23.593Zm2.728-40.609h-5.728v4.821h-5.642v26.591h5.642v5.844h5.728v-5.853c4.456-.18 7.99-3.212 7.99-7.778 0-2.697-1.266-4.749-3.202-6.002 1.415-1.254 2.271-3.001 2.271-5.204 0-4.195-3.07-7.061-7.06-7.53V7.575Zm1.102 12.875c0-1.368-.893-2.356-2.27-2.356h-4.245v4.71h4.244c1.34 0 2.271-.987 2.271-2.354Zm-6.515 12.84h4.989c1.49 0 2.457-1.065 2.457-2.546 0-1.482-.968-2.545-2.457-2.545h-4.989v5.09Z" clip-rule="evenodd"/>
  </g>
</svg>
