<svg xmlns="http://www.w3.org/2000/svg" fill="none" viewBox="0 0 128 111">
  <g clip-path="url(#walletGradient_svg__a)">
    <path fill="url(#walletGradient_svg__b)" d="M100.744 63.807a4.5 4.5 0 1 1-9 0 4.5 4.5 0 0 1 9 0Z"/>
    <path fill="url(#walletGradient_svg__c)" fill-rule="evenodd" d="M35.09.205C26.026-.17 19.631.296 14.78 1.988 9.595 3.796 6.546 6.863 3.918 10.607l-.046.066-.044.067C1.336 14.59.563 19.648.286 23.913.08 27.1.134 30.412.176 33.02c.015.928.029 1.767.029 2.48V76c0 1.516-.023 3.02-.046 4.482-.044 2.803-.085 5.453.046 7.744.207 3.641.855 7.183 2.865 10.533 2.155 4.052 5.69 7.711 10.711 9.771 2.366 1.086 5.038 1.6 8.388 1.852 3.376.253 7.754.257 13.634.15h57.536c5.714.125 10.006-.441 13.511-1.802 3.613-1.402 6.019-3.507 8.117-5.739l.106-.113.098-.121c2.891-3.558 4.402-6.527 5.095-9.869.462-2.23.533-4.681.605-7.167.017-.562.033-1.126.054-1.69h.575c1.663 0 3.305-.59 4.542-1.913 1.092-1.167 1.522-2.54 1.721-3.49.314-1.494.295-3.337.282-4.552-.002-.213-.004-.407-.004-.576V62.856h-4.295 4.295V51c0-1.908-.478-3.943-2.003-5.47-1.526-1.531-3.375-1.825-4.538-1.825h-.475c.072-7.155-1.778-13.388-5.912-18.035-4.947-5.562-12.432-8.028-21.312-7.847l-61.293-.118H32.5c-8.022.002-11.94-.303-17.219-3.526l-1.906-1.546c1.19-1.13 2.502-1.93 4.234-2.534 3.262-1.137 8.32-1.68 17.212-1.308l.09.004h46.226c5.003 0 8.18 0 12.877 1.412.781.31 1.462.578 2.07.817 2.8 1.102 4.048 1.594 6.496 2.818a4.296 4.296 0 0 0 3.842-7.684c-2.809-1.404-4.417-2.036-7.283-3.164-.636-.25-1.334-.524-2.121-.837l-.164-.065-.168-.051C90.665.203 86.377.204 81.377.205H35.089Zm77.347 43.5c.076-5.674-1.394-9.686-3.742-12.325-2.761-3.104-7.464-5.125-14.76-4.968l-.05.001-61.384-.118h-.005c-8.44.002-14.431-.27-21.973-4.958l-.23-.142-.966-.785a36.954 36.954 0 0 0-.469 4.06c-.182 2.81-.138 5.533-.096 8.051.017 1.03.033 2.026.033 2.979V76c0 1.895-.027 3.566-.052 5.082-.042 2.545-.076 4.654.038 6.656.17 2.992.664 4.98 1.694 6.666l.074.12.065.126c1.338 2.553 3.479 4.74 6.492 5.959l.107.043.105.05c1.046.49 2.573.895 5.494 1.114 2.938.22 6.963.235 12.873.127l.04-.001h57.71l.049.001c5.155.116 8.205-.424 10.257-1.22 1.912-.742 3.267-1.823 4.861-3.503 2.198-2.73 2.914-4.446 3.253-6.076.297-1.437.338-2.822.402-4.969.019-.64.04-1.347.07-2.143H98c-13.727 0-20.84-10.722-20.995-19.942-.077-4.55 1.379-9.627 4.857-13.628 3.572-4.108 8.997-6.757 16.138-6.757h14.437Zm11.309 19.151h-4.295V73.5c0 .326.002.613.004.879.003.378.005.715.001 1.063H98c-8.273 0-12.317-6.16-12.406-11.496-.046-2.728.849-5.66 2.751-7.848 1.81-2.082 4.796-3.803 9.655-3.803h21.451v10.561h4.295Zm-4.407 14.075.009-.03a.167.167 0 0 1-.009.03Z" clip-rule="evenodd"/>
  </g>
  <defs>
    <linearGradient id="walletGradient_svg__b" x1="-31.27" x2="130.084" y1="-34.292" y2="126.967" gradientUnits="userSpaceOnUse">
      <stop stop-color="#FFA842"/>
      <stop offset=".481" stop-color="#60BB49"/>
      <stop offset="1" stop-color="#4CAB89"/>
    </linearGradient>
    <linearGradient id="walletGradient_svg__c" x1="-31.27" x2="130.084" y1="-34.292" y2="126.967" gradientUnits="userSpaceOnUse">
      <stop stop-color="#FFA842"/>
      <stop offset=".481" stop-color="#60BB49"/>
      <stop offset="1" stop-color="#4CAB89"/>
    </linearGradient>
    <clipPath id="walletGradient_svg__a">
      <path fill="#fff" d="M0 0h128v110.819H0z"/>
    </clipPath>
  </defs>
</svg>
