<?xml version="1.0" encoding="UTF-8" standalone="no"?>
<svg width="30px" height="30px" viewBox="0 0 30 30" version="1.1" xmlns="http://www.w3.org/2000/svg" xmlns:xlink="http://www.w3.org/1999/xlink" xmlns:sketch="http://www.bohemiancoding.com/sketch/ns">
    <!-- Generator: ${EXECUTABLE_NAME} ${SKETCH_TOOL_VERSION} (101) - http://www.bohemiancoding.com/sketch -->
    <title>close</title>
    <description>Created with ${EXECUTABLE_NAME}.</description>
    <defs></defs>
    <g id="interface" stroke="none" stroke-width="1" fill="none" fill-rule="evenodd" sketch:type="MSPage">
        <g id="close" sketch:type="MSArtboardGroup" fill="#FFFFFF">
            <path d="M25.1827485,21.0818713 C25.2720927,21.2069532 25.3167641,21.3230989 25.3167641,21.4303119 C25.3167641,21.5375249 25.2720927,21.6536706 25.1827485,21.7787524 L21.7787524,25.1827485 C21.6536706,25.2720927 21.5375249,25.3167641 21.4303119,25.3167641 C21.3230989,25.3167641 21.2069532,25.2720927 21.0818713,25.1827485 L15.1583821,19.2592593 L9.23489279,25.1827485 C9.10981094,25.2720927 8.99366525,25.3167641 8.88645224,25.3167641 C8.77923923,25.3167641 8.66309354,25.2720927 8.5380117,25.1827485 L5.13401559,21.7787524 C5.04467142,21.6536706 5,21.5375249 5,21.4303119 C5,21.3230989 5.04467142,21.2069532 5.13401559,21.0818713 L11.0575049,15.1583821 L5.13401559,9.23489279 C5.04467142,9.10981094 5,8.99366525 5,8.88645224 C5,8.77923923 5.04467142,8.66309354 5.13401559,8.5380117 L8.5380117,5.13401559 C8.66309354,5.04467142 8.77923923,5 8.88645224,5 C8.99366525,5 9.10981094,5.04467142 9.23489279,5.13401559 L15.1583821,11.0575049 L21.0818713,5.13401559 C21.2069532,5.04467142 21.3230989,5 21.4303119,5 C21.5375249,5 21.6536706,5.04467142 21.7787524,5.13401559 L25.1827485,8.5380117 C25.2720927,8.66309354 25.3167641,8.77923923 25.3167641,8.88645224 C25.3167641,8.99366525 25.2720927,9.10981094 25.1827485,9.23489279 L19.2592593,15.1583821 L25.1827485,21.0818713 Z" sketch:type="MSShapeGroup"></path>
        </g>
    </g>
</svg>