<?xml version="1.0" encoding="UTF-8" standalone="no"?>
<svg width="30px" height="30px" viewBox="0 0 30 30" version="1.1" xmlns="http://www.w3.org/2000/svg" xmlns:xlink="http://www.w3.org/1999/xlink" xmlns:sketch="http://www.bohemiancoding.com/sketch/ns">
    <!-- Generator: Sketch Beta 3.0.4 (8039) - http://www.bohemiancoding.com/sketch -->
    <title>email</title>
    <desc>Created with Sketch Beta.</desc>
    <defs></defs>
    <g id="interface" stroke="none" stroke-width="1" fill="none" fill-rule="evenodd" sketch:type="MSPage">
        <g id="email" sketch:type="MSArtboardGroup" fill="#FFFFFF">
            <path d="M15,15.5 L5,8.21428571 C5,7.88447807 5.12345556,7.59964847 5.37037037,7.35978836 C5.61728519,7.11992825 5.91049213,7 6.25,7 L23.75,7 C24.0895079,7 24.3827148,7.11992825 24.6296296,7.35978836 C24.8765444,7.59964847 25,7.88447807 25,8.21428571 L15,15.5 Z M15,17.6812169 L25,10.3955026 L25,20.3571429 C25,20.6869505 24.8765444,20.9717801 24.6296296,21.2116402 C24.3827148,21.4515003 24.0895079,21.5714286 23.75,21.5714286 L6.25,21.5714286 C5.91049213,21.5714286 5.61728519,21.4515003 5.37037037,21.2116402 C5.12345556,20.9717801 5,20.6869505 5,20.3571429 L5,10.3955026 L15,17.6812169 Z" sketch:type="MSShapeGroup"></path>
        </g>
    </g>
</svg>