<?xml version="1.0" encoding="UTF-8" standalone="no"?>
<svg width="30px" height="30px" viewBox="0 0 30 30" version="1.1" xmlns="http://www.w3.org/2000/svg" xmlns:xlink="http://www.w3.org/1999/xlink" xmlns:sketch="http://www.bohemiancoding.com/sketch/ns">
    <!-- Generator: ${EXECUTABLE_NAME} ${SKETCH_TOOL_VERSION} (101) - http://www.bohemiancoding.com/sketch -->
    <title>history</title>
    <description>Created with ${EXECUTABLE_NAME}.</description>
    <defs></defs>
    <g id="interface" stroke="none" stroke-width="1" fill="none" fill-rule="evenodd" sketch:type="MSPage">
        <g id="history" sketch:type="MSArtboardGroup" fill="#FFFFFF">
            <path d="M15,4 C18.0385954,4 20.6315479,5.07367753 22.7789352,7.22106481 C24.9263225,9.36845209 26,11.9614046 26,15 C26,18.0385954 24.9263225,20.6315479 22.7789352,22.7789352 C20.6315479,24.9263225 18.0385954,26 15,26 C11.9614046,26 9.36845209,24.9263225 7.22106481,22.7789352 C5.07367753,20.6315479 4,18.0385954 4,15 C4,11.9614046 5.07367753,9.36845209 7.22106481,7.22106481 C9.36845209,5.07367753 11.9614046,4 15,4 Z M19.8634259,19.8634259 L21.162037,18.5648148 L16.6805556,14.0833333 L15,6.75 L13.1666667,6.75 L13.1666667,15 C13.1666667,15.5092618 13.3449056,15.9421278 13.7013889,16.2986111 C13.7692905,16.3665127 13.8711413,16.4513884 14.0069444,16.5532407 L19.8634259,19.8634259 Z" id="time" sketch:type="MSShapeGroup"></path>
        </g>
    </g>
</svg>