<?xml version="1.0" encoding="utf-8"?>
<!-- Generator: Adobe Illustrator 16.0.3, SVG Export Plug-In . SVG Version: 6.00 Build 0)  -->
<!DOCTYPE svg PUBLIC "-//W3C//DTD SVG 1.1//EN" "http://www.w3.org/Graphics/SVG/1.1/DTD/svg11.dtd">
<svg version="1.1" id="Layer_1" xmlns:sketch="http://www.bohemiancoding.com/sketch/ns"
	 xmlns="http://www.w3.org/2000/svg" xmlns:xlink="http://www.w3.org/1999/xlink" x="0px" y="0px" width="156.5px" height="38px"
	 viewBox="0 0 156.5 38" enable-background="new 0 0 156.5 38" xml:space="preserve">
<title>logo</title>
<desc>Created with Sketch Beta.</desc>
<path fill="#282626" d="M35.5,23.284c0.706,0.964,1.704,1.444,2.991,1.444c0.595,0,1.141-0.085,1.637-0.259
	c0.494-0.173,0.877-0.41,1.146-0.706l0.312-2.017h2.253v2.991c-0.607,0.708-1.387,1.269-2.332,1.688
	c-0.944,0.419-2.003,0.628-3.172,0.628c-2.029,0-3.69-0.703-4.986-2.107c-1.294-1.406-1.942-3.207-1.942-5.409v-0.51
	c0-2.195,0.645-4,1.933-5.412c1.287-1.413,2.953-2.119,4.996-2.119c1.169,0,2.226,0.212,3.168,0.638
	c0.941,0.427,1.72,0.989,2.336,1.688v2.99h-2.253L41.274,14.8c-0.298-0.299-0.674-0.535-1.127-0.709
	c-0.453-0.173-0.989-0.259-1.604-0.259c-1.316,0-2.329,0.478-3.038,1.433c-0.711,0.956-1.065,2.202-1.065,3.739v0.529
	C34.441,21.072,34.794,22.323,35.5,23.284L35.5,23.284z M57.155,24.884c-1.266,1.448-2.924,2.171-4.974,2.171
	c-2.043,0-3.692-0.723-4.95-2.171c-1.256-1.446-1.885-3.276-1.885-5.492v-0.23c0-2.202,0.627-4.029,1.881-5.483
	c1.253-1.456,2.9-2.181,4.943-2.181c2.05,0,3.71,0.726,4.981,2.181c1.271,1.454,1.905,3.282,1.905,5.483v0.23
	C59.057,21.607,58.424,23.438,57.155,24.884L57.155,24.884z M56.033,19.141c0-1.564-0.323-2.834-0.975-3.812
	c-0.651-0.975-1.614-1.464-2.889-1.464c-1.273,0-2.224,0.483-2.85,1.454c-0.627,0.971-0.94,2.244-0.94,3.822v0.251
	c0,1.59,0.316,2.874,0.95,3.847c0.635,0.974,1.585,1.458,2.852,1.458c1.28,0,2.243-0.485,2.888-1.458s0.966-2.256,0.966-3.847
	L56.033,19.141L56.033,19.141z M66.525,25.02v1.816h-6.264V25.02l1.62-0.311V13.854l-1.62-0.312v-1.828h6.264v1.828l-1.62,0.312
	v10.854L66.525,25.02L66.525,25.02z M81.513,13.854v12.982h-3.023l-6.106-10.178l-0.062,0.011v8.04l1.62,0.311v1.816h-6.264V25.02
	l1.61-0.311V13.854l-1.61-0.312v-1.828h1.61h3.033l6.108,10.18l0.061-0.011v-8.029l-1.62-0.312v-1.828h4.644h1.619v1.828
	L81.513,13.854L81.513,13.854z M84.866,26.836v-2.657h3.023v2.657H84.866L84.866,26.836z M98.348,14.467
	c-0.262-0.167-0.646-0.312-1.152-0.435c-0.506-0.125-1.041-0.187-1.61-0.187c-0.832,0-1.475,0.174-1.928,0.526
	c-0.454,0.349-0.682,0.802-0.682,1.354c0,0.512,0.238,0.933,0.714,1.262c0.474,0.331,1.295,0.678,2.455,1.045
	c1.669,0.464,2.934,1.075,3.796,1.838c0.861,0.761,1.294,1.761,1.294,3.001c0,1.294-0.512,2.318-1.536,3.064
	c-1.026,0.748-2.377,1.121-4.051,1.121c-1.199,0-2.281-0.189-3.248-0.571c-0.965-0.381-1.77-0.908-2.413-1.579v-3.159h2.349
	l0.32,2.149c0.304,0.251,0.72,0.456,1.241,0.62c0.523,0.163,1.106,0.244,1.751,0.244c0.83,0,1.462-0.171,1.896-0.51
	c0.432-0.338,0.649-0.794,0.649-1.359c0-0.582-0.206-1.05-0.617-1.401c-0.413-0.354-1.136-0.688-2.166-0.999
	c-1.793-0.521-3.15-1.134-4.071-1.847c-0.921-0.715-1.383-1.692-1.383-2.929c0-1.226,0.521-2.227,1.559-3.006
	c1.039-0.781,2.343-1.179,3.915-1.199c1.163,0,2.223,0.176,3.178,0.529c0.958,0.352,1.76,0.823,2.411,1.413v3.095h-2.274
	L98.348,14.467L98.348,14.467z M113.725,20.034c-1,0.878-2.365,1.319-4.096,1.319h-2.556v3.354l1.618,0.312v1.816h-6.261V25.02
	l1.61-0.312V13.854l-1.61-0.312v-1.828h1.61h5.588c1.73,0,3.096,0.445,4.096,1.335c1.001,0.889,1.503,2.056,1.503,3.495
	C115.228,17.992,114.726,19.155,113.725,20.034L113.725,20.034z M111.545,14.762c-0.433-0.472-1.07-0.71-1.916-0.71h-2.556v4.964
	h2.556c0.846,0,1.483-0.229,1.916-0.689c0.432-0.461,0.65-1.047,0.65-1.761C112.192,15.838,111.977,15.237,111.545,14.762
	L111.545,14.762z M122.869,26.836V25.02l1.051-0.186l-0.665-2.078h-4.902l-0.665,2.078l1.05,0.186v1.816h-5.151V25.02l1.079-0.155
	l4.6-13.15h3.106l4.57,13.15l1.08,0.155v1.816H122.869L122.869,26.836z M120.835,15.194h-0.062l-1.703,5.329h3.469L120.835,15.194
	L120.835,15.194z M132.448,23.284c0.706,0.964,1.702,1.444,2.99,1.444c0.595,0,1.139-0.085,1.635-0.259
	c0.496-0.173,0.879-0.41,1.149-0.706l0.311-2.017h2.254v2.991c-0.609,0.708-1.386,1.269-2.331,1.688
	c-0.943,0.419-2.003,0.628-3.173,0.628c-2.029,0-3.692-0.703-4.985-2.107c-1.295-1.407-1.941-3.21-1.941-5.412v-0.508
	c0-2.195,0.643-4.001,1.933-5.414c1.287-1.413,2.953-2.119,4.995-2.119c1.169,0,2.225,0.212,3.169,0.638
	c0.941,0.426,1.72,0.989,2.336,1.688v2.99h-2.253l-0.312-2.013c-0.299-0.298-0.675-0.533-1.13-0.708
	c-0.451-0.173-0.986-0.259-1.604-0.259c-1.313,0-2.327,0.478-3.038,1.432c-0.71,0.956-1.064,2.203-1.064,3.741v0.528
	C131.388,21.072,131.741,22.323,132.448,23.284L132.448,23.284z M151.704,24.512l0.136-1.808h2.305v4.133H142.18v-1.815l1.61-0.312
	V13.854l-1.61-0.312v-1.828h1.61h10.333v4.145h-2.325l-0.135-1.807h-4.841v3.802h5.12v2.336h-5.12v4.322H151.704L151.704,24.512z"/>
<path fill="#278553" d="M19.231,21v-1.398c0-0.793-0.641-1.435-1.435-1.435H7.96c-0.792,0-1.435,0.642-1.435,1.435l0.012,1.488
	l-0.8,0.004l-0.019-2.232c0-0.893,0.723-1.403,1.617-1.403h11.085c0.894,0,1.617,0.51,1.617,1.403v2.131L19.231,21L19.231,21z"/>
<path fill="#278553" d="M12.924,17.8c-0.816,0-1.479-0.663-1.479-1.479c0-0.816,0.663-1.477,1.479-1.477
	c0.817,0,1.477,0.661,1.477,1.477S13.742,17.8,12.924,17.8L12.924,17.8z M12.926,15.569c-0.417,0-0.753,0.337-0.753,0.752
	c0,0.417,0.336,0.753,0.753,0.753c0.416,0,0.753-0.336,0.753-0.753C13.679,15.906,13.342,15.569,12.926,15.569L12.926,15.569z"/>
<path fill="#278553" d="M17.622,26.75h-9.74c-1.452,0-2.479-1.22-2.479-2.672c0-1.153,0.656-2.044,1.653-2.363v-2.872h11.591v2.934
	c0.917,0.373,1.538,1.241,1.538,2.324C20.184,25.553,19.071,26.75,17.622,26.75L17.622,26.75z M17.774,22.152v-2.63H7.935v2.583
	c-0.894,0.264-1.547,1.012-1.547,1.903c0,1.114,1.002,2.014,2.238,2.014h8.291c1.235,0,2.237-0.899,2.237-2.014
	C19.155,23.174,18.583,22.456,17.774,22.152L17.774,22.152z"/>
<path fill="#278553" d="M21.089,36.254H4.57c-1.887,0-3.121-1.436-3.121-3.208V9.185c0-1.771,1.234-3.115,3.121-3.115h16.519
	c1.883,0,3.215,1.344,3.215,3.115v23.861C24.305,34.82,22.973,36.254,21.089,36.254L21.089,36.254z M21.229,10.415
	c0-0.885-0.229-1.445-1.171-1.445H5.724c-0.942,0-1.217,0.56-1.217,1.445v21.553c0,0.885,0.274,1.562,1.217,1.562h14.335
	c0.942,0,1.171-0.678,1.171-1.562V10.415L21.229,10.415z"/>
<path fill="#278553" d="M25.997,32.325V5.982h-0.254c-0.232-0.556-0.79-0.957-1.453-1.006V4.765H5.114
	c0.314-1.467,1.692-2.57,3.346-2.57h16.519c1.883,0,3.412,1.436,3.412,3.207v23.862C28.392,30.701,27.385,31.917,25.997,32.325
	L25.997,32.325z"/>
</svg>
