<?xml version="1.0" encoding="utf-8"?>
<!-- Generator: Adobe Illustrator 16.0.4, SVG Export Plug-In . SVG Version: 6.00 Build 0)  -->
<!DOCTYPE svg PUBLIC "-//W3C//DTD SVG 1.1//EN" "http://www.w3.org/Graphics/SVG/1.1/DTD/svg11.dtd">
<svg version="1.1" id="Layer_1" xmlns="http://www.w3.org/2000/svg" xmlns:xlink="http://www.w3.org/1999/xlink" x="0px" y="0px"
	 width="168px" height="92px" viewBox="0 0 168 92" enable-background="new 0 0 168 92" xml:space="preserve">
<path fill="#282626" d="M9.733,82.593c0.921,1.255,2.221,1.882,3.899,1.882c0.776,0,1.487-0.112,2.133-0.338
	c0.645-0.226,1.144-0.533,1.495-0.921l0.407-2.627h2.937v3.899c-0.793,0.921-1.807,1.653-3.039,2.2
	c-1.232,0.545-2.611,0.819-4.135,0.819c-2.645,0-4.811-0.917-6.499-2.748C5.244,82.927,4.4,80.577,4.4,77.707v-0.663
	c0-2.861,0.839-5.213,2.518-7.054c1.678-1.841,3.849-2.762,6.512-2.762c1.524,0,2.901,0.277,4.129,0.833
	c1.227,0.555,2.243,1.288,3.045,2.2v3.898h-2.937l-0.407-2.626c-0.388-0.389-0.878-0.695-1.469-0.921
	c-0.591-0.226-1.289-0.339-2.091-0.339c-1.715,0-3.035,0.623-3.96,1.868c-0.925,1.246-1.388,2.87-1.388,4.874v0.69
	C8.353,79.709,8.813,81.339,9.733,82.593L9.733,82.593z M37.96,84.678c-1.651,1.886-3.812,2.83-6.484,2.83
	c-2.662,0-4.813-0.944-6.451-2.83c-1.637-1.886-2.456-4.272-2.456-7.161v-0.298c0-2.87,0.816-5.253,2.45-7.148
	c1.634-1.896,3.782-2.843,6.444-2.843c2.672,0,4.835,0.947,6.492,2.843s2.484,4.278,2.484,7.148v0.298
	C40.438,80.406,39.612,82.792,37.96,84.678L37.96,84.678z M36.498,77.192c0-2.039-0.424-3.695-1.272-4.969
	c-0.848-1.272-2.103-1.909-3.764-1.909c-1.66,0-2.899,0.632-3.715,1.896c-0.817,1.264-1.226,2.925-1.226,4.982v0.325
	c0,2.075,0.413,3.747,1.239,5.016c0.826,1.268,2.065,1.901,3.716,1.901c1.67,0,2.924-0.634,3.764-1.901
	c0.84-1.269,1.259-2.94,1.259-5.016V77.192L36.498,77.192z M50.172,84.854v2.369h-8.164v-2.369l2.112-0.406V70.3l-2.112-0.405
	v-2.383h8.164v2.383L48.06,70.3v14.147L50.172,84.854L50.172,84.854z M69.707,70.3v16.923h-3.939l-7.96-13.267l-0.082,0.014v10.478
	l2.112,0.406v2.369h-8.163v-2.369l2.098-0.406V70.3l-2.098-0.405v-2.383h2.098h3.953l7.961,13.268l0.081-0.014V70.3l-2.112-0.405
	v-2.383h6.051h2.112v2.383L69.707,70.3L69.707,70.3z M74.079,87.223v-3.465h3.94v3.465H74.079L74.079,87.223z M91.651,71.1
	c-0.343-0.217-0.844-0.406-1.502-0.568c-0.659-0.163-1.358-0.244-2.099-0.244c-1.084,0-1.921,0.228-2.512,0.684
	s-0.887,1.045-0.887,1.767c0,0.668,0.31,1.217,0.928,1.645c0.618,0.43,1.686,0.883,3.202,1.361c2.174,0.604,3.824,1.403,4.948,2.396
	c1.123,0.992,1.685,2.296,1.685,3.911c0,1.688-0.668,3.02-2.003,3.994c-1.337,0.976-3.097,1.463-5.28,1.463
	c-1.562,0-2.972-0.248-4.231-0.745c-1.259-0.496-2.308-1.183-3.147-2.058v-4.116h3.06l0.419,2.803
	c0.397,0.325,0.937,0.594,1.618,0.806s1.442,0.318,2.281,0.318c1.083,0,1.906-0.221,2.471-0.663
	c0.563-0.442,0.846-1.034,0.846-1.774c0-0.758-0.269-1.367-0.806-1.827c-0.536-0.46-1.478-0.894-2.822-1.3
	c-2.338-0.677-4.106-1.479-5.307-2.409c-1.201-0.93-1.801-2.203-1.801-3.818c0-1.597,0.677-2.903,2.03-3.919
	c1.354-1.016,3.055-1.536,5.104-1.563c1.516,0,2.896,0.229,4.143,0.69c1.245,0.46,2.292,1.074,3.141,1.842v4.033h-2.965L91.651,71.1
	L91.651,71.1z M111.694,78.356c-1.305,1.146-3.084,1.72-5.341,1.72h-3.33v4.372l2.112,0.406v2.369h-8.164v-2.369l2.099-0.406V70.3
	l-2.099-0.405v-2.383h2.099h7.283c2.257,0,4.036,0.58,5.341,1.739c1.304,1.16,1.957,2.68,1.957,4.556
	C113.651,75.694,112.998,77.209,111.694,78.356L111.694,78.356z M108.852,71.485c-0.564-0.617-1.397-0.927-2.498-0.927h-3.33v6.472
	h3.33c1.101,0,1.934-0.3,2.498-0.9c0.563-0.601,0.846-1.365,0.846-2.295C109.697,72.887,109.415,72.104,108.852,71.485
	L108.852,71.485z M123.614,87.223v-2.369l1.367-0.243l-0.866-2.707h-6.39l-0.866,2.707l1.367,0.243v2.369h-6.715v-2.369l1.408-0.202
	l5.997-17.14h4.048l5.957,17.14l1.407,0.202v2.369H123.614L123.614,87.223z M120.961,72.047h-0.081l-2.22,6.945h4.521
	L120.961,72.047L120.961,72.047z M136.097,82.593c0.921,1.255,2.22,1.882,3.898,1.882c0.776,0,1.486-0.112,2.132-0.338
	s1.145-0.533,1.497-0.921l0.406-2.627h2.937v3.899c-0.794,0.921-1.807,1.653-3.039,2.2c-1.231,0.545-2.61,0.819-4.135,0.819
	c-2.645,0-4.812-0.917-6.498-2.748c-1.688-1.833-2.532-4.184-2.532-7.054v-0.663c0-2.861,0.839-5.213,2.519-7.054
	c1.678-1.841,3.849-2.762,6.512-2.762c1.524,0,2.9,0.277,4.129,0.833c1.228,0.555,2.242,1.288,3.045,2.2v3.898h-2.937l-0.406-2.626
	c-0.389-0.389-0.879-0.695-1.47-0.921s-1.288-0.339-2.092-0.339c-1.714,0-3.034,0.623-3.959,1.868
	c-0.926,1.246-1.388,2.87-1.388,4.874v0.69C134.716,79.709,135.176,81.339,136.097,82.593L136.097,82.593z M161.195,84.191
	l0.177-2.355h3.005v5.388h-15.595v-2.369l2.098-0.406V70.3l-2.098-0.405v-2.383h2.098h13.47v5.402h-3.032l-0.176-2.356h-6.309v4.955
	h6.674v3.046h-6.674v5.632H161.195L161.195,84.191z"/>
<path fill-rule="evenodd" clip-rule="evenodd" fill="#278553" d="M90.088,30.984v-2.048c0-1.161-0.94-2.102-2.101-2.102H73.576
	c-1.161,0-2.102,0.94-2.102,2.102l0.018,2.18l-1.172,0.008l-0.028-3.271c0-1.308,1.06-2.056,2.368-2.056h16.241
	c1.309,0,2.368,0.748,2.368,2.056v3.122L90.088,30.984L90.088,30.984z"/>
<path fill-rule="evenodd" clip-rule="evenodd" fill="#278553" d="M80.848,26.297c-1.195,0-2.166-0.971-2.166-2.166
	c0-1.196,0.97-2.165,2.166-2.165c1.197,0,2.166,0.969,2.166,2.165C83.014,25.327,82.045,26.297,80.848,26.297L80.848,26.297z
	 M80.85,23.028c-0.609,0-1.104,0.494-1.104,1.103c0,0.61,0.494,1.104,1.104,1.104c0.609,0,1.104-0.493,1.104-1.104
	C81.954,23.522,81.459,23.028,80.85,23.028L80.85,23.028z"/>
<path fill-rule="evenodd" clip-rule="evenodd" fill="#278553" d="M87.729,39.407H73.458c-2.125,0-3.63-1.786-3.63-3.911
	c0-1.692,0.961-2.995,2.422-3.463v-4.208h16.98v4.297c1.344,0.545,2.253,1.818,2.253,3.405
	C91.483,37.653,89.854,39.407,87.729,39.407L87.729,39.407z M87.953,32.673V28.82H73.539v3.786
	c-1.311,0.385-2.265,1.482-2.265,2.789c0,1.629,1.467,2.948,3.276,2.948h12.148c1.809,0,3.276-1.319,3.276-2.948
	C89.976,34.168,89.139,33.117,87.953,32.673L87.953,32.673z"/>
<path fill-rule="evenodd" clip-rule="evenodd" fill="#278553" d="M92.809,53.333h-24.2c-2.762,0-4.572-2.104-4.572-4.699V13.676
	c0-2.595,1.81-4.563,4.572-4.563h24.2c2.761,0,4.713,1.969,4.713,4.563v34.958C97.521,51.23,95.569,53.333,92.809,53.333
	L92.809,53.333z M93.015,15.477c0-1.297-0.334-2.117-1.715-2.117h-21c-1.381,0-1.785,0.82-1.785,2.117v31.575
	c0,1.298,0.404,2.291,1.785,2.291h21c1.381,0,1.715-0.993,1.715-2.291V15.477L93.015,15.477z"/>
<path fill-rule="evenodd" clip-rule="evenodd" fill="#278553" d="M100,47.577V8.985h-0.373C99.286,8.17,98.471,7.582,97.5,7.509V7.2
	H69.407c0.461-2.149,2.479-3.766,4.901-3.766h24.2c2.762,0,5,2.104,5,4.699v34.957C103.508,45.197,102.032,46.979,100,47.577
	L100,47.577z"/>
</svg>
