<?xml version="1.0" encoding="UTF-8" standalone="no"?>
<svg width="35px" height="36px" viewBox="0 0 35 36" version="1.1" xmlns="http://www.w3.org/2000/svg" xmlns:xlink="http://www.w3.org/1999/xlink" xmlns:sketch="http://www.bohemiancoding.com/sketch/ns">
    <!-- Generator: Sketch 3.0.3 (7891) - http://www.bohemiancoding.com/sketch -->
    <title>Fill 6</title>
    <desc>Created with Sketch.</desc>
    <defs></defs>
    <g id="Page-1" stroke="none" stroke-width="1" fill="none" fill-rule="evenodd" sketch:type="MSPage">
        <g id="Imported-Layers-2" sketch:type="MSLayerGroup" transform="translate(-81.000000, -91.000000)" fill="#F9D04B">
            <path d="M97.948,91.947 C88.62,91.947 81.058,99.509 81.058,108.837 C81.058,118.165 88.62,125.727 97.948,125.727 C107.275,125.727 114.837,118.165 114.837,108.837 C114.837,99.509 107.275,91.947 97.948,91.947 L97.948,91.947 Z M100.429,112.054 L100.429,117.55 C100.429,118.921 99.318,120.031 97.948,120.031 C96.577,120.031 95.466,118.921 95.466,117.55 L95.466,112.054 C93.175,111.086 91.566,108.818 91.566,106.174 C91.566,102.65 94.423,99.793 97.948,99.793 C101.472,99.793 104.329,102.65 104.329,106.174 C104.329,108.818 102.72,111.086 100.429,112.054 L100.429,112.054 Z" id="Fill-6" sketch:type="MSShapeGroup"></path>
        </g>
    </g>
</svg>