<?xml version="1.0" encoding="UTF-8" standalone="no"?>
<svg width="114px" height="29px" viewBox="0 0 114 29" version="1.1" xmlns="http://www.w3.org/2000/svg" xmlns:xlink="http://www.w3.org/1999/xlink" xmlns:sketch="http://www.bohemiancoding.com/sketch/ns">
    <!-- Generator: Sketch 3.0.3 (7891) - http://www.bohemiancoding.com/sketch -->
    <title>Fill 3</title>
    <desc>Created with Sketch.</desc>
    <defs></defs>
    <g id="Page-1" stroke="none" stroke-width="1" fill="none" fill-rule="evenodd" sketch:type="MSPage">
        <g id="Imported-Layers-4" sketch:type="MSLayerGroup" transform="translate(-41.000000, -129.000000)" fill="#F9D04B">
            <path d="M141.595,156.901 L53.753,156.901 C44.535,156.901 41.651,149.956 41.651,141.781 L41.651,136.312 C41.651,131.34 45.06,129.029 50.418,129.029 L80.725,129.029 C81.063,129.029 81.387,129.148 81.652,129.358 C86.059,132.862 91.621,134.967 97.674,135.03 C103.727,134.967 109.29,132.862 113.697,129.358 C113.962,129.148 114.285,129.029 114.624,129.029 L144.93,129.029 C150.288,129.029 153.697,131.34 153.697,136.312 L153.697,141.781 C153.697,149.956 150.813,156.901 141.595,156.901" id="Fill-3" sketch:type="MSShapeGroup"></path>
        </g>
    </g>
</svg>