<?xml version="1.0" encoding="UTF-8" standalone="no"?>
<svg width="55px" height="30px" viewBox="0 0 55 30" version="1.1" xmlns="http://www.w3.org/2000/svg" xmlns:xlink="http://www.w3.org/1999/xlink" xmlns:sketch="http://www.bohemiancoding.com/sketch/ns">
    <!-- Generator: Sketch 3.0.3 (7891) - http://www.bohemiancoding.com/sketch -->
    <title>Fill 7</title>
    <desc>Created with Sketch.</desc>
    <defs></defs>
    <g id="Page-1" stroke="none" stroke-width="1" fill="none" fill-rule="evenodd" sketch:type="MSPage">
        <g id="Imported-Layers-5" sketch:type="MSLayerGroup" transform="translate(-71.000000, -163.000000)" fill="#F9D04B">
            <path d="M118.419,163.158 L77.476,163.158 C73.226,163.158 70.196,167.278 71.442,171.34 C74.813,182.327 79.148,190.422 91.101,190.984 C91.305,190.994 93.798,191.001 96.458,191.007 L96.458,191.009 C96.698,191.009 96.964,191.008 97.222,191.008 C97.465,191.008 97.707,191.009 97.948,191.009 L97.948,191.007 C100.962,191.001 104.588,190.994 104.795,190.984 C116.747,190.422 121.082,182.327 124.453,171.34 C125.699,167.278 122.669,163.158 118.419,163.158" id="Fill-7" sketch:type="MSShapeGroup"></path>
        </g>
    </g>
</svg>