<?xml version="1.0" encoding="UTF-8" standalone="no"?>
<svg width="198px" height="221px" viewBox="0 0 198 221" version="1.1" xmlns="http://www.w3.org/2000/svg" xmlns:xlink="http://www.w3.org/1999/xlink" xmlns:sketch="http://www.bohemiancoding.com/sketch/ns">
    <!-- Generator: Sketch 3.0.3 (7891) - http://www.bohemiancoding.com/sketch -->
    <title>Fill 1</title>
    <desc>Created with Sketch.</desc>
    <defs></defs>
    <g id="Page-1" stroke="none" stroke-width="1" fill="none" fill-rule="evenodd" sketch:type="MSPage">
        <g id="Imported-Layers-6" sketch:type="MSLayerGroup" transform="translate(0.000000, 1.000000)" fill="#F9D04B">
            <path d="M98.141,218.826 C94.016,218.826 89.947,217.735 86.374,215.673 L11.786,172.61 C4.529,168.419 0.02,160.611 0.02,152.23 L0.02,66.104 C0.02,57.723 4.529,49.914 11.786,45.724 L86.374,2.661 C93.52,-1.463 102.763,-1.463 109.906,2.661 L184.494,45.724 C191.751,49.914 196.26,57.723 196.26,66.104 L196.26,152.23 C196.26,160.611 191.751,168.419 184.494,172.61 L109.906,215.673 C106.335,217.735 102.266,218.826 98.141,218.826 L98.141,218.826 Z M98.141,6.763 C95.288,6.763 92.474,7.517 90.002,8.944 L15.414,52.008 C10.394,54.906 7.275,60.308 7.275,66.104 L7.275,152.23 C7.275,158.026 10.394,163.429 15.414,166.327 L90.002,209.39 C94.945,212.244 101.338,212.244 106.278,209.39 L180.866,166.327 C185.886,163.429 189.005,158.026 189.005,152.23 L189.005,66.104 C189.005,60.308 185.886,54.906 180.866,52.008 L106.278,8.944 C103.808,7.517 100.993,6.763 98.141,6.763 L98.141,6.763 Z" id="Fill-1" sketch:type="MSShapeGroup"></path>
        </g>
    </g>
</svg>