<?xml version="1.0" encoding="UTF-8" standalone="no"?>
<svg width="158px" height="29px" viewBox="0 0 158 29" version="1.1" xmlns="http://www.w3.org/2000/svg" xmlns:xlink="http://www.w3.org/1999/xlink" xmlns:sketch="http://www.bohemiancoding.com/sketch/ns">
    <!-- Generator: Sketch 3.0.3 (7891) - http://www.bohemiancoding.com/sketch -->
    <title>Fill 4 + Fill 5</title>
    <desc>Created with Sketch.</desc>
    <defs></defs>
    <g id="Page-1" stroke="none" stroke-width="1" fill="none" fill-rule="evenodd" sketch:type="MSPage">
        <g id="Imported-Layers-2" sketch:type="MSLayerGroup" transform="translate(-19.000000, -94.000000)" fill="#F9D04B">
            <g id="Fill-4-+-Fill-5" transform="translate(20.000000, 95.000000)" sketch:type="MSShapeGroup">
                <path d="M51.742,13.837 C51.742,11.003 52.199,8.279 53.037,5.727 C53.983,2.845 51.719,-0.099 48.686,-0.099 L8.263,-0.099 C5.756,-0.099 -0.457,0.436 -0.457,14.239 C-0.457,28.043 5.756,27.773 8.263,27.773 L48.686,27.773 C51.719,27.773 53.983,24.828 53.037,21.947 C52.199,19.395 51.742,16.671 51.742,13.837" id="Fill-4"></path>
                <path d="M102.644,5.727 C101.697,2.845 103.962,-0.099 106.995,-0.099 L147.418,-0.099 C149.925,-0.099 156.138,0.436 156.138,14.239 C156.138,28.043 149.925,27.773 147.418,27.773 L106.995,27.773 C103.962,27.773 101.697,24.828 102.644,21.947 C103.482,19.395 103.939,16.671 103.939,13.837 C103.939,11.003 103.482,8.279 102.644,5.727 Z" id="Fill-5"></path>
            </g>
        </g>
    </g>
</svg>