<?xml version="1.0" encoding="UTF-8" standalone="no"?>
<svg width="114px" height="30px" viewBox="0 0 114 30" version="1.1" xmlns="http://www.w3.org/2000/svg" xmlns:xlink="http://www.w3.org/1999/xlink" xmlns:sketch="http://www.bohemiancoding.com/sketch/ns">
    <!-- Generator: Sketch 3.0.3 (7891) - http://www.bohemiancoding.com/sketch -->
    <title>Fill 2</title>
    <desc>Created with Sketch.</desc>
    <defs></defs>
    <g id="Page-1" stroke="none" stroke-width="1" fill="none" fill-rule="evenodd" sketch:type="MSPage">
        <g id="Imported-Layers-2" sketch:type="MSLayerGroup" transform="translate(-41.000000, -60.000000)" fill="#F9D04B">
            <path d="M141.595,60.772 L53.753,60.772 C44.535,60.772 41.651,67.717 41.651,75.893 L41.651,81.362 C41.651,86.333 45.06,88.644 50.418,88.644 L80.725,88.644 C81.063,88.644 81.387,88.526 81.652,88.315 C86.059,84.811 91.621,82.706 97.674,82.643 C103.727,82.706 109.29,84.811 113.697,88.315 C113.962,88.526 114.285,88.644 114.624,88.644 L144.93,88.644 C150.288,88.644 153.697,86.333 153.697,81.362 L153.697,75.893 C153.697,67.717 150.813,60.772 141.595,60.772" id="Fill-2" sketch:type="MSShapeGroup"></path>
        </g>
    </g>
</svg>