<?xml version="1.0" encoding="UTF-8" standalone="no"?>
<svg width="55px" height="30px" viewBox="0 0 55 30" version="1.1" xmlns="http://www.w3.org/2000/svg" xmlns:xlink="http://www.w3.org/1999/xlink" xmlns:sketch="http://www.bohemiancoding.com/sketch/ns">
    <!-- Generator: Sketch 3.0.3 (7891) - http://www.bohemiancoding.com/sketch -->
    <title>Fill 8</title>
    <desc>Created with Sketch.</desc>
    <defs></defs>
    <g id="Page-1" stroke="none" stroke-width="1" fill="none" fill-rule="evenodd" sketch:type="MSPage">
        <g id="f1" sketch:type="MSArtboardGroup" transform="translate(-293.000000, -484.000000)" fill="#F9D04B">
            <g id="Imported-Layers" sketch:type="MSLayerGroup" transform="translate(222.000000, 458.000000)">
                <path d="M118.419,54.512 L77.476,54.512 C73.226,54.512 70.196,50.393 71.442,46.33 C74.813,35.343 79.148,27.248 91.101,26.686 C91.305,26.677 93.798,26.669 96.458,26.664 L96.458,26.661 C96.698,26.662 96.964,26.662 97.222,26.663 C97.465,26.662 97.707,26.662 97.948,26.661 L97.948,26.664 C100.962,26.669 104.588,26.677 104.795,26.686 C116.747,27.248 121.082,35.343 124.453,46.33 C125.699,50.393 122.669,54.512 118.419,54.512" id="Fill-8" sketch:type="MSShapeGroup"></path>
            </g>
        </g>
    </g>
</svg>