<?xml version="1.0" encoding="utf-8"?>
<!-- Generator: Adobe Illustrator 16.0.3, SVG Export Plug-In . SVG Version: 6.00 Build 0)  -->
<!DOCTYPE svg PUBLIC "-//W3C//DTD SVG 1.1//EN" "http://www.w3.org/Graphics/SVG/1.1/DTD/svg11.dtd">
<svg version="1.1" id="Layer_1" xmlns:sketch="http://www.bohemiancoding.com/sketch/ns"
	 xmlns="http://www.w3.org/2000/svg" xmlns:xlink="http://www.w3.org/1999/xlink" x="0px" y="0px" width="85px" height="85px"
	 viewBox="0 0 85 85" enable-background="new 0 0 85 85" xml:space="preserve">
<title>mecto_not_found</title>
<desc>Created with Sketch Beta.</desc>
<circle fill="#FECF08" cx="41.048" cy="43.871" r="37.628"/>
<g id="interface" sketch:type="MSPage">
	<g id="mecto_not_found" sketch:type="MSArtboardGroup">
		<path id="polygon" sketch:type="MSShapeGroup" fill="#FFFFFF" d="M45.971,50.645v-1.516c0-2.863,3.537-4.268,6.175-6.905
			c1.74-1.74,3.2-3.93,3.2-7.354c0-5.67-4.211-11.564-13.248-11.564c-8.702,0-13.024,5.501-14.259,12.518l8.083,1.347
			c0.393-3.593,2.133-7.41,6.175-7.41c3.031,0,4.939,2.189,4.939,4.828c0,2.75-1.965,4.154-3.593,5.333
			c-2.807,2.021-5.669,4.716-5.669,8.813v1.909H45.971z M37.157,59.121c0,2.693,1.965,4.827,4.828,4.827s4.828-2.134,4.828-4.827
			c0-2.863-1.965-4.771-4.828-4.771S37.157,56.258,37.157,59.121z"/>
	</g>
</g>
</svg>