<?xml version="1.0" encoding="utf-8"?>
<!-- Generator: Adobe Illustrator 16.0.3, SVG Export Plug-In . SVG Version: 6.00 Build 0)  -->
<!DOCTYPE svg PUBLIC "-//W3C//DTD SVG 1.1//EN" "http://www.w3.org/Graphics/SVG/1.1/DTD/svg11.dtd">
<svg version="1.1" id="Layer_1" xmlns:sketch="http://www.bohemiancoding.com/sketch/ns"
	 xmlns="http://www.w3.org/2000/svg" xmlns:xlink="http://www.w3.org/1999/xlink" x="0px" y="0px" width="85px" height="85px"
	 viewBox="0 0 85 85" enable-background="new 0 0 85 85" xml:space="preserve">
<title>receive</title>
<desc>Created with Sketch Beta.</desc>
<g id="interface" sketch:type="MSPage">
	<g id="receive" sketch:type="MSArtboardGroup">
		<circle fill="#9AD25C" cx="42.645" cy="42.625" r="37.875"/>
		<path id="down" sketch:type="MSShapeGroup" fill="#FFFFFF" d="M59.941,43.852L42.682,61.11c-0.204,0.146-0.392,0.218-0.566,0.218
			c-0.175,0-0.363-0.072-0.567-0.218L24.289,43.852c-0.232-0.232-0.291-0.523-0.174-0.872c0.146-0.32,0.392-0.479,0.741-0.479
			h10.198V24.456c0-0.232,0.073-0.421,0.218-0.566c0.145-0.146,0.334-0.218,0.566-0.218h12.552c0.232,0,0.422,0.072,0.566,0.218
			c0.146,0.146,0.219,0.334,0.219,0.566V42.5h10.198c0.349,0,0.596,0.16,0.741,0.479C60.231,43.328,60.174,43.619,59.941,43.852
			L59.941,43.852z"/>
	</g>
</g>
</svg>
