<?xml version="1.0" encoding="utf-8"?>
<!-- Generator: Adobe Illustrator 16.0.3, SVG Export Plug-In . SVG Version: 6.00 Build 0)  -->
<!DOCTYPE svg PUBLIC "-//W3C//DTD SVG 1.1//EN" "http://www.w3.org/Graphics/SVG/1.1/DTD/svg11.dtd">
<svg version="1.1" id="Layer_1" xmlns:sketch="http://www.bohemiancoding.com/sketch/ns"
	 xmlns="http://www.w3.org/2000/svg" xmlns:xlink="http://www.w3.org/1999/xlink" x="0px" y="0px" width="85px" height="85px"
	 viewBox="0 0 85 85" enable-background="new 0 0 85 85" xml:space="preserve">
<title>send</title>
<desc>Created with Sketch Beta.</desc>
<g id="interface" sketch:type="MSPage">
	<g id="send" sketch:type="MSArtboardGroup">
		<circle fill="#FC8276" cx="42.96" cy="42.192" r="37.52"/>
		<path id="down-2" sketch:type="MSShapeGroup" fill="#FFFFFF" d="M25.059,41.149L42.318,23.89c0.204-0.146,0.392-0.218,0.566-0.218
			c0.175,0,0.363,0.072,0.566,0.218l17.26,17.259c0.232,0.232,0.291,0.523,0.174,0.872c-0.145,0.32-0.392,0.479-0.74,0.479H49.945
			v18.044c0,0.232-0.072,0.421-0.218,0.566s-0.334,0.218-0.566,0.218H36.609c-0.232,0-0.421-0.072-0.566-0.218
			c-0.146-0.146-0.218-0.334-0.218-0.566V42.5H25.626c-0.349,0-0.596-0.16-0.741-0.479C24.769,41.672,24.827,41.381,25.059,41.149
			L25.059,41.149z"/>
	</g>
</g>
</svg>
