<?xml version="1.0" encoding="UTF-8" standalone="no"?>
<svg width="30px" height="30px" viewBox="0 0 30 30" version="1.1" xmlns="http://www.w3.org/2000/svg" xmlns:xlink="http://www.w3.org/1999/xlink" xmlns:sketch="http://www.bohemiancoding.com/sketch/ns">
    <!-- Generator: Sketch Beta 3.0.4 (7942) - http://www.bohemiancoding.com/sketch -->
    <title>sendto</title>
    <desc>Created with Sketch Beta.</desc>
    <defs></defs>
    <g id="interface" stroke="none" stroke-width="1" fill="none" fill-rule="evenodd" sketch:type="MSPage">
        <g id="sendto" sketch:type="MSArtboardGroup" fill="#CCCDC8">
            <path d="M21.9696741,15.5494289 L14.951163,22.56794 C14.8684528,22.6270187 14.7916517,22.6565576 14.7207573,22.6565576 C14.6498629,22.6565576 14.5730618,22.6270187 14.4903516,22.56794 L7.47184051,15.5494289 C7.37731463,15.454903 7.35368352,15.3367475 7.40094646,15.1949586 C7.46002513,15.0649856 7.56045737,15 7.70224618,15 L11.8495482,15 L11.8495482,7.66246564 C11.8495482,7.56793977 11.8790871,7.49113864 11.9381658,7.43205997 C11.9972444,7.3729813 12.0740456,7.34344241 12.1685714,7.34344241 L17.2729432,7.34344241 C17.367469,7.34344241 17.4442702,7.3729813 17.5033488,7.43205997 C17.5624275,7.49113864 17.5919664,7.56793977 17.5919664,7.66246564 L17.5919664,15 L21.7392684,15 C21.8810572,15 21.9814895,15.0649856 22.0405682,15.1949586 C22.0878311,15.3367475 22.0642,15.454903 21.9696741,15.5494289 L21.9696741,15.5494289 Z" id="down" sketch:type="MSShapeGroup"></path>
        </g>
    </g>
</svg>