<?xml version="1.0" encoding="UTF-8" standalone="no"?>
<svg width="85px" height="85px" viewBox="0 0 85 85" version="1.1" xmlns="http://www.w3.org/2000/svg" xmlns:xlink="http://www.w3.org/1999/xlink" xmlns:sketch="http://www.bohemiancoding.com/sketch/ns">
    <!-- Generator: Sketch Beta 3.0.4 (8039) - http://www.bohemiancoding.com/sketch -->
    <title>token-testnet</title>
    <desc>Created with Sketch Beta.</desc>
    <defs></defs>
    <g id="interface" stroke="none" stroke-width="1" fill="none" fill-rule="evenodd" sketch:type="MSPage">
        <g id="token-testnet" sketch:type="MSArtboardGroup" fill="#FFFFFF">
            <path d="M64.1356236,57.7175926 C64.7118774,58.4984607 65,59.3981431 65,60.4166667 C65,61.7067966 64.5593419,62.7932055 63.6780125,63.6759259 C62.7966831,64.5586464 61.7119862,65 60.4238894,65 L25.645449,65 C23.8149956,65 22.4591246,64.1851933 21.5777952,62.5555556 C20.7303631,60.9259178 20.815105,59.364205 21.8320235,57.8703704 L35.7128923,37.3981481 L35.7128923,21.9166667 C35.7128923,21.6450604 35.7976342,21.4243836 35.9671207,21.2546296 C36.1366071,21.0848757 36.3569361,21 36.6281144,21 L49.441224,21 C49.7124023,21 49.9327314,21.0848757 50.1022178,21.2546296 C50.2717042,21.4243836 50.3564461,21.6450604 50.3564461,21.9166667 L50.3564461,37.3981481 L64.1356236,57.7175926 Z M37.5433365,57.6666667 C38.5602551,57.6666667 39.4246229,57.3101888 40.1364659,56.5972222 C40.8483088,55.8842557 41.204225,55.0185236 41.204225,54 C41.204225,52.9814764 40.8483088,52.1157443 40.1364659,51.4027778 C39.4246229,50.6898113 38.5602551,50.3333333 37.5433365,50.3333333 C36.526418,50.3333333 35.6620502,50.6898113 34.9502072,51.4027778 C34.2383642,52.1157443 33.8824481,52.9814764 33.8824481,54 C33.8824481,55.0185236 34.2383642,55.8842557 34.9502072,56.5972222 C35.6620502,57.3101888 36.526418,57.6666667 37.5433365,57.6666667 Z M45.7803356,48.5 C46.5260758,48.5 47.1701146,48.2283978 47.7124711,47.6851852 C48.2548277,47.1419726 48.5260019,46.4969173 48.5260019,45.75 C48.5260019,45.0030827 48.2548277,44.3580274 47.7124711,43.8148148 C47.1701146,43.2716022 46.5260758,43 45.7803356,43 C45.0345953,43 44.3905566,43.2716022 43.8482,43.8148148 C43.3058434,44.3580274 43.0346692,45.0030827 43.0346692,45.75 C43.0346692,46.4969173 43.3058434,47.1419726 43.8482,47.6851852 C44.3905566,48.2283978 45.0345953,48.5 45.7803356,48.5 Z" id="flask" sketch:type="MSShapeGroup"></path>
        </g>
    </g>
</svg>