<?xml version="1.0" encoding="UTF-8" standalone="no"?>
<svg width="30px" height="30px" viewBox="0 0 30 30" version="1.1" xmlns="http://www.w3.org/2000/svg" xmlns:xlink="http://www.w3.org/1999/xlink" xmlns:sketch="http://www.bohemiancoding.com/sketch/ns">
    <!-- Generator: ${EXECUTABLE_NAME} ${SKETCH_TOOL_VERSION} (101) - http://www.bohemiancoding.com/sketch -->
    <title>user</title>
    <description>Created with ${EXECUTABLE_NAME}.</description>
    <defs></defs>
    <g id="interface" stroke="none" stroke-width="1" fill="none" fill-rule="evenodd" sketch:type="MSPage">
        <g id="user" sketch:type="MSArtboardGroup" fill="#FFFFFF">
            <path d="M26,24.625 L26,25.5416667 C26,25.6774698 25.9575622,25.7878082 25.8726852,25.8726852 C25.7878082,25.9575622 25.6774698,26 25.5416667,26 L4.45833333,26 C4.32253019,26 4.21219178,25.9575622 4.12731481,25.8726852 C4.04243785,25.7878082 4,25.6774698 4,25.5416667 L4,24.625 C4,23.7762303 4.28433358,23.0590307 4.85300926,22.4733796 C5.42168494,21.8877286 6.10917807,21.4293998 6.91550926,21.0983796 C7.72184045,20.7673595 8.52815955,20.4533194 9.33449074,20.15625 C10.1408219,19.8591806 10.8283151,19.4729962 11.3969907,18.9976852 C11.9656664,18.5223742 12.25,17.953707 12.25,17.2916667 C12.1820984,17.2237651 12.0844914,17.1176705 11.9571759,16.9733796 C11.8298605,16.8290888 11.6091837,16.5065611 11.2951389,16.005787 C10.9810941,15.5050129 10.7010043,14.9745398 10.4548611,14.4143519 C10.2087179,13.8541639 9.9880411,13.1284767 9.79282407,12.2372685 C9.59760705,11.3460604 9.5,10.4336466 9.5,9.5 C9.5,7.98918998 10.0389607,6.69483564 11.1168981,5.61689815 C12.1948356,4.53896066 13.48919,4 15,4 C16.51081,4 17.8051644,4.53896066 18.8831019,5.61689815 C19.9610393,6.69483564 20.5,7.98918998 20.5,9.5 C20.5,10.4336466 20.4066367,11.3418166 20.2199074,12.224537 C20.0331781,13.1072575 19.8040137,13.8414323 19.5324074,14.4270833 C19.2608011,15.0127344 18.9891989,15.5304761 18.7175926,15.9803241 C18.4459863,16.430172 18.2168219,16.765431 18.0300926,16.9861111 L17.75,17.2916667 C17.75,17.953707 18.0343336,18.5223742 18.6030093,18.9976852 C19.1716849,19.4729962 19.8591781,19.8591806 20.6655093,20.15625 C21.4718405,20.4533194 22.2781595,20.7673595 23.0844907,21.0983796 C23.8908219,21.4293998 24.5783151,21.8877286 25.1469907,22.4733796 C25.7156664,23.0590307 26,23.7762303 26,24.625 L26,24.625 Z" sketch:type="MSShapeGroup"></path>
        </g>
    </g>
</svg>